<svg clip-rule="evenodd" fill-rule="evenodd" stroke-linejoin="round" stroke-miterlimit="2" viewBox="0 0 200 200" xmlns="http://www.w3.org/2000/svg" xmlns:xlink="http://www.w3.org/1999/xlink"><linearGradient id="a" gradientTransform="matrix(-55.7802 -77.58 77.58 -55.7802 99.9992 185.317)" gradientUnits="userSpaceOnUse" x1="0" x2="1" y1="0" y2="0"><stop offset="0" stop-color="#58e800"/><stop offset="1" stop-color="#008eff"/></linearGradient><linearGradient id="b" gradientTransform="matrix(138.724 33.7345 -33.7345 138.724 30.6396 103.355)" gradientUnits="userSpaceOnUse" x1="0" x2="1" y1="0" y2="0"><stop offset="0" stop-color="#9600ff" stop-opacity=".5"/><stop offset="1" stop-color="#8b0060"/></linearGradient><linearGradient id="c" gradientTransform="matrix(58.3994 121.479 -121.479 58.3994 99.9992 20.8189)" gradientUnits="userSpaceOnUse" x1="0" x2="1" y1="0" y2="0"><stop offset="0" stop-color="#ffde00"/><stop offset="1" stop-color="#ff002e" stop-opacity=".5"/></linearGradient><path d="m0 0h200v200h-200z" fill="none"/><path d="m110.451 191.889c2.312-1.606 2.995-4.722 1.568-7.148-10.597-18.012-50.864-86.456-50.864-86.456-4.913-7.706-15.157-9.97-22.864-5.057-7.704 4.915-9.968 15.16-5.055 22.864 0 0 50.4 62.701 63.62 79.148 1.771 2.203 4.944 2.661 7.265 1.048 1.982-1.378 4.351-3.024 6.33-4.399z" fill="url(#a)"/><path d="m43.315 123.285 105.607 25.458c8.885 2.141 17.838-3.332 19.978-12.217 2.141-8.882-3.332-17.835-12.217-19.975l-105.607-25.459c-8.882-2.143-17.835 3.333-19.976 12.215-2.143 8.884 3.333 17.837 12.215 19.978zm109.397 4.353c-3.341 0-6.053 2.712-6.053 6.053 0 3.34 2.712 6.052 6.053 6.052h.039c3.322-.021 6.013-2.725 6.013-6.052 0-3.328-2.691-6.032-6.013-6.053zm-106.28-26.482c-3.341 0-6.053 2.712-6.053 6.053 0 3.34 2.712 6.052 6.053 6.052h.039c3.322-.021 6.013-2.725 6.013-6.052 0-3.328-2.691-6.032-6.013-6.053z" fill="url(#b)"/><path d="m167.711 125.44s-1.214.343-27.94-96.607c-4.644-16.837-25.733-35.67-46.955-24.742-23.91 12.307-14.94 38.579-10.288 48.583 59.329 92.408 55.369 87.18 55.369 87.18 3.979 8.227 13.887 11.678 22.114 7.7 8.227-3.979 11.678-13.888 7.7-22.114z" fill="url(#c)"/></svg>