<?xml version="1.0" encoding="utf-8"?>
<!-- Generator: Adobe Illustrator 26.0.2, SVG Export Plug-In . SVG Version: 6.00 Build 0)  -->
<svg version="1.1" id="Layer_1" xmlns="http://www.w3.org/2000/svg" xmlns:xlink="http://www.w3.org/1999/xlink" x="0px" y="0px"
	 viewBox="0 0 300 200" style="enable-background:new 0 0 300 200;" xml:space="preserve">
<style type="text/css">
	.st0{display:none;fill:#212121;}
	.st1{fill:#FF7F00;}
	.st2{fill:#303030;}
	.st3{opacity:0.4;}
	.st4{fill:#FFFFFF;}
	.st5{fill:#FFB000;}
</style>
<g>
	<g>
		<g>
			<path class="st1" d="M157.2,61.5C157.2,61.5,157.2,61.5,157.2,61.5c-0.6,0-0.9-0.5-0.9-1c0.7-11-0.6-18.4-4-22
				c-1.6-1.7-3.6-2.5-6.2-2.5c-2.5,0-4.7,0.9-6.3,2.8c-3.3,3.7-4.5,10.8-3.3,20.1c0.1,0.5-0.3,0.9-0.8,1c-0.5,0.1-0.9-0.3-1-0.8
				c-1.2-9.7,0.1-17.3,3.7-21.5c2-2.2,4.5-3.4,7.6-3.4c3,0,5.6,1,7.5,3.1c3.7,4,5.2,11.8,4.5,23.3C158.1,61.2,157.7,61.5,157.2,61.5
				z"/>
		</g>
		<g>
			<polygon class="st1" points="182.2,54.4 186.2,114 129,118.7 129,54.4 			"/>
		</g>
		<g class="st3">
			<polygon class="st1" points="115.1,111.7 129,118.7 129,54.4 120.1,54.4 			"/>
		</g>
		<g>
			<circle class="st4" cx="145.6" cy="61.1" r="2.3"/>
		</g>
		<g>
			<circle class="st4" cx="170.7" cy="61.1" r="2.3"/>
		</g>
		<g>
			<path class="st5" d="M145.6,62c-0.4,0-0.8-0.3-0.9-0.8c-1.4-11.1,0.1-19.7,4.2-24.4c2.2-2.5,5.1-3.8,8.6-3.8
				c3.8,0,6.8,1.2,9.1,3.6c4,4.3,5.6,12.3,4.8,24.5c0,0.5-0.5,0.9-1,0.8c-0.5,0-0.9-0.5-0.8-1c0.8-11.7-0.6-19.3-4.3-23.2
				c-1.9-2.1-4.5-3.1-7.8-3.1c-2.9,0-5.4,1.1-7.3,3.2c-3.8,4.3-5.1,12.4-3.8,23c0.1,0.5-0.3,0.9-0.8,1C145.6,62,145.6,62,145.6,62z"
				/>
		</g>
		<g>
			<g>
				<g>
					<polygon class="st4" points="142.4,99.3 137.9,99.5 138,108.1 142.5,107.9 					"/>
				</g>
			</g>
			<g>
				<g>
					<polygon class="st4" points="152.8,82.3 148.4,82.5 149,107.6 153.6,107.4 					"/>
				</g>
			</g>
			<g>
				<g>
					<polygon class="st4" points="164,89.9 159.4,90.2 160.1,107.1 164.8,106.8 					"/>
				</g>
			</g>
			<g>
				<g>
					<polygon class="st4" points="174,71.2 169.5,71.5 171.3,106.5 176.1,106.3 					"/>
				</g>
			</g>
		</g>
	</g>
	<g>
		<path class="st1" d="M53.9,149.3H40c0.5,2.3,2.5,3.7,5.3,3.7c1.9,0,3.3-0.6,4.6-1.8l2.8,3.1c-1.7,1.9-4.3,3-7.6,3
			c-6.4,0-10.5-4-10.5-9.5c0-5.5,4.2-9.5,9.8-9.5c5.4,0,9.6,3.6,9.6,9.5C54,148.3,53.9,148.9,53.9,149.3z M39.9,146.2h9
			c-0.4-2.3-2.1-3.8-4.5-3.8C42,142.4,40.3,143.8,39.9,146.2z"/>
		<path class="st1" d="M73.3,146.5V157h-5v-2.3c-1,1.7-2.9,2.6-5.6,2.6c-4.3,0-6.9-2.4-6.9-5.6c0-3.2,2.3-5.5,7.9-5.5h4.2
			c0-2.3-1.4-3.6-4.2-3.6c-1.9,0-4,0.6-5.3,1.7l-1.9-3.7c2-1.4,5-2.2,7.9-2.2C70,138.3,73.3,140.9,73.3,146.5z M67.9,151.2v-1.9
			h-3.7c-2.5,0-3.3,0.9-3.3,2.2c0,1.3,1.1,2.2,3,2.2C65.8,153.7,67.3,152.9,67.9,151.2z"/>
		<path class="st1" d="M76.3,155.3l1.8-3.8c1.6,1.1,4.1,1.8,6.4,1.8c2.5,0,3.4-0.6,3.4-1.7c0-3-11.1,0.1-11.1-7.3
			c0-3.5,3.1-5.9,8.5-5.9c2.5,0,5.3,0.6,7.1,1.6l-1.8,3.8c-1.8-1-3.6-1.4-5.3-1.4c-2.4,0-3.4,0.8-3.4,1.7c0,3.1,11.1,0.1,11.1,7.3
			c0,3.4-3.2,5.8-8.7,5.8C81.1,157.3,78,156.4,76.3,155.3z"/>
		<path class="st1" d="M114.1,138.6l-8.3,19.5c-1.8,4.4-4.3,5.8-7.6,5.8c-1.9,0-3.9-0.6-5.1-1.7l1.9-3.8c0.8,0.7,1.9,1.2,3,1.2
			c1.5,0,2.3-0.6,3-2.3l0.1-0.2l-8-18.5h5.5l5.2,12.5l5.2-12.5H114.1z"/>
		<path class="st2" d="M145.1,138.7l-6.7,18.2h-4.1l-4.7-12.6l-4.8,12.6h-4.1l-6.7-18.2h4l4.8,13.5l5-13.5h3.6l4.9,13.5l5-13.5
			H145.1z"/>
		<path class="st2" d="M163.2,149.2h-14.3c0.5,2.7,2.7,4.4,5.9,4.4c2,0,3.7-0.6,5-2l2.3,2.6c-1.6,1.9-4.2,3-7.3,3
			c-6.1,0-10.1-3.9-10.1-9.4s4-9.3,9.4-9.3c5.3,0,9.2,3.7,9.2,9.4C163.3,148.3,163.2,148.8,163.2,149.2z M148.9,146.4h10.3
			c-0.3-2.6-2.4-4.4-5.2-4.4C151.3,142,149.3,143.7,148.9,146.4z"/>
		<path class="st2" d="M185.4,147.9c0,5.7-3.9,9.4-9.3,9.4c-2.5,0-4.6-0.9-6-2.6v2.4H166v-25.3h4.3v9.3c1.5-1.6,3.5-2.4,5.8-2.4
			C181.4,138.5,185.4,142.2,185.4,147.9z M181,147.9c0-3.5-2.3-5.7-5.4-5.7c-3.1,0-5.4,2.2-5.4,5.7c0,3.5,2.4,5.7,5.4,5.7
			C178.7,153.6,181,151.3,181,147.9z"/>
		<path class="st2" d="M186,155.2l1.6-3.2c1.6,1.1,4.1,1.8,6.4,1.8c2.7,0,3.8-0.8,3.8-2c0-3.5-11.3-0.2-11.3-7.5
			c0-3.4,3.1-5.7,8-5.7c2.4,0,5.2,0.6,6.8,1.6l-1.6,3.2c-1.7-1-3.5-1.4-5.2-1.4c-2.6,0-3.8,0.9-3.8,2c0,3.7,11.3,0.4,11.3,7.5
			c0,3.4-3.1,5.6-8.3,5.6C190.7,157.2,187.6,156.3,186,155.2z"/>
		<path class="st2" d="M222.2,146.5V157H218v-9.9c0-3.2-1.6-4.8-4.3-4.8c-3,0-5.1,1.8-5.1,5.5v9.2h-4.3v-25.3h4.3v9.2
			c1.4-1.5,3.6-2.3,6.1-2.3C219,138.5,222.2,141,222.2,146.5z"/>
		<path class="st2" d="M225,147.9c0-5.5,4.1-9.3,9.7-9.3c5.7,0,9.7,3.9,9.7,9.3s-4.1,9.4-9.7,9.4C229.1,157.2,225,153.3,225,147.9z
			 M240.1,147.9c0-3.5-2.3-5.7-5.4-5.7c-3.1,0-5.4,2.2-5.4,5.7c0,3.5,2.3,5.7,5.4,5.7C237.8,153.6,240.1,151.3,240.1,147.9z"/>
		<path class="st2" d="M266.5,147.9c0,5.7-3.9,9.4-9.3,9.4c-2.3,0-4.4-0.8-5.8-2.5v8.8h-4.3v-24.9h4.1v2.4c1.4-1.7,3.6-2.6,6-2.6
			C262.6,138.5,266.5,142.2,266.5,147.9z M262.2,147.9c0-3.5-2.3-5.7-5.4-5.7c-3.1,0-5.4,2.2-5.4,5.7c0,3.5,2.4,5.7,5.4,5.7
			C259.8,153.6,262.2,151.3,262.2,147.9z"/>
	</g>
</g>
</svg>
