<?xml version="1.0" encoding="UTF-8"?>
<svg version="1.1" xmlns="http://www.w3.org/2000/svg" width="308" height="50">
<path d="M0 0 C4.30158926 2.89910173 7.64005509 6.48390246 9.78515625 11.203125 C10.30480361 14.19488114 10.59376652 17.1738876 10.78515625 20.203125 C10.04265625 19.44 9.30015625 18.676875 8.53515625 17.890625 C5.96160225 15.24741301 5.96160225 15.24741301 3.47265625 13.515625 C2.91578125 13.0825 2.35890625 12.649375 1.78515625 12.203125 C1.78515625 11.543125 1.78515625 10.883125 1.78515625 10.203125 C0.79515625 11.193125 -0.19484375 12.183125 -1.21484375 13.203125 C-0.22484375 13.986875 0.76515625 14.770625 1.78515625 15.578125 C2.77515625 16.444375 3.76515625 17.310625 4.78515625 18.203125 C4.78515625 18.863125 4.78515625 19.523125 4.78515625 20.203125 C-5.77484375 20.203125 -16.33484375 20.203125 -27.21484375 20.203125 C-25.23484375 17.563125 -23.25484375 14.923125 -21.21484375 12.203125 C-24.22623947 11.87428862 -24.22623947 11.87428862 -25.96875 13.734375 C-26.56558594 14.3840625 -27.16242187 15.03375 -27.77734375 15.703125 C-28.88620466 16.90498715 -30.02607436 18.08023922 -31.21484375 19.203125 C-31.87484375 19.203125 -32.53484375 19.203125 -33.21484375 19.203125 C-32.68763696 11.55862654 -30.56718757 7.19896646 -24.83984375 1.953125 C-17.36682978 -4.09494987 -8.31337126 -4.69383188 0 0 Z M-12.21484375 -0.796875 C-13.57102874 0.32846605 -13.57102874 0.32846605 -13.27734375 3.265625 C-13.25671875 4.235 -13.23609375 5.204375 -13.21484375 6.203125 C-14.86484375 6.203125 -16.51484375 6.203125 -18.21484375 6.203125 C-16.47924937 9.261077 -14.83011756 11.83692489 -12.21484375 14.203125 C-7.94058795 12.6200673 -5.94952581 9.69744096 -3.21484375 6.203125 C-4.86484375 6.203125 -6.51484375 6.203125 -8.21484375 6.203125 C-8.21484375 4.553125 -8.21484375 2.903125 -8.21484375 1.203125 C-9.53484375 0.543125 -10.85484375 -0.116875 -12.21484375 -0.796875 Z " fill="#1D2428" transform="translate(36.21484375,5.796875)"/>
<path d="M0 0 C1.16657173 0.71731751 2.31559067 1.46466347 3.4375 2.25 C4.324375 2.806875 5.21125 3.36375 6.125 3.9375 C11.38379485 9.19629485 14.11778937 15.54135666 14.75 22.875 C14.65133343 29.48565991 11.83244561 35.13765379 8.25 40.5625 C1.58445003 46.9318033 -4.37541907 49.03917345 -13.60424805 48.9074707 C-20.13379767 48.53424365 -24.79554676 46.70036242 -29.5625 42.25 C-36.38967729 34.00691941 -37.40694802 26.82905715 -36.5625 16.25 C-34.30332539 8.31833261 -28.42725813 3.42854842 -21.5625 -0.75 C-14.98476602 -2.94257799 -6.30880914 -3.08188952 0 0 Z M-31.1171875 10.15234375 C-35.23353099 16.12660443 -35.30295426 22.2111138 -34.5625 29.25 C-32.50455185 36.03566688 -28.09756702 40.92370959 -22.0625 44.5625 C-15.62370554 47.51462652 -8.29185391 47.63461107 -1.6796875 45.1796875 C5.16558006 41.44033239 8.98962952 36.59361145 11.4375 29.25 C12.1068907 21.84280787 12.11392052 15.30720206 7.4375 9.25 C2.82104101 4.38296077 -1.55334659 0.72556854 -8.39453125 -0.0859375 C-18.90212743 -0.22365174 -24.30826772 2.18749108 -31.1171875 10.15234375 Z " fill="#1D2428" transform="translate(36.5625,1.75)"/>
<path d="M0 0 C1.25127906 3.54667178 0.72285053 5.72253438 -0.4375 9.25 C-0.86869141 10.58804687 -0.86869141 10.58804687 -1.30859375 11.953125 C-1.53675781 12.62859375 -1.76492187 13.3040625 -2 14 C-3.65 14.33 -5.3 14.66 -7 15 C-7.33 13.02 -7.66 11.04 -8 9 C-8.66 9 -9.32 9 -10 9 C-10.33 10.98 -10.66 12.96 -11 15 C-12.65 14.67 -14.3 14.34 -16 14 C-16.50512244 12.39743892 -17.00391627 10.79288208 -17.5 9.1875 C-17.7784375 8.29417969 -18.056875 7.40085937 -18.34375 6.48046875 C-19 4 -19 4 -19 1 C-17.68 1 -16.36 1 -15 1 C-14.67 3.31 -14.34 5.62 -14 8 C-13.34 8 -12.68 8 -12 8 C-11.67 5.69 -11.34 3.38 -11 1 C-9.68 1 -8.36 1 -7 1 C-6.34 2.98 -5.68 4.96 -5 7 C-4.731875 6.030625 -4.46375 5.06125 -4.1875 4.0625 C-3.5996875 2.5465625 -3.5996875 2.5465625 -3 1 C-2.01 0.67 -1.02 0.34 0 0 Z " fill="#1D2428" transform="translate(227,17)"/>
<path d="M0 0 C1.32 0 2.64 0 4 0 C4 6.6 4 13.2 4 20 C-5 21 -5 21 -8 20 C-9.99825961 17.00261059 -10.27550398 16.36652492 -10.25 13 C-10.25515625 12.319375 -10.2603125 11.63875 -10.265625 10.9375 C-10 9 -10 9 -8 6 C-4.9375 5.25 -4.9375 5.25 -2 5 C-1.67 5.33 -1.34 5.66 -1 6 C-0.67 4.02 -0.34 2.04 0 0 Z M-5 9 C-6.35618499 10.12534105 -6.35618499 10.12534105 -6.0625 13.0625 C-6.041875 14.031875 -6.02125 15.00125 -6 16 C-4.34385343 16.38218767 -2.67542976 16.71395102 -1 17 C0.35618499 15.87465895 0.35618499 15.87465895 0.0625 12.9375 C0.041875 11.968125 0.02125 10.99875 0 10 C-1.65614657 9.61781233 -3.32457024 9.28604898 -5 9 Z " fill="#1D2428" transform="translate(290,12)"/>
<path d="M0 0 C1.32 0 2.64 0 4 0 C4 6.6 4 13.2 4 20 C-5 21 -5 21 -8.0625 19 C-10.43927493 15.31983237 -10.55822877 13.30633619 -10 9 C-8 6 -8 6 -5 5.25 C-2 5 -2 5 0 6 C0 4.02 0 2.04 0 0 Z M-5 9 C-6.35618499 10.12534105 -6.35618499 10.12534105 -6.0625 13.0625 C-6.041875 14.031875 -6.02125 15.00125 -6 16 C-4.34385343 16.38218767 -2.67542976 16.71395102 -1 17 C0.35618499 15.87465895 0.35618499 15.87465895 0.0625 12.9375 C0.041875 11.968125 0.02125 10.99875 0 10 C-1.65614657 9.61781233 -3.32457024 9.28604898 -5 9 Z " fill="#1D2428" transform="translate(187,12)"/>
<path d="M0 0 C1.63377133 1.63377133 1.31761765 3.62778885 1.5 5.875 C1.74279416 8.84922849 2.05025071 11.15075214 3 14 C-0.75 15.125 -0.75 15.125 -3 14 C-3.804375 14.165 -4.60875 14.33 -5.4375 14.5 C-8 15 -8 15 -11 14 C-11.625 11.125 -11.625 11.125 -12 8 C-9.23776722 5.23776722 -6.79293383 5.42143709 -3 5 C-3 4.34 -3 3.68 -3 3 C-4.32 3 -5.64 3 -7 3 C-7 3.66 -7 4.32 -7 5 C-8.65 5 -10.3 5 -12 5 C-11.25 2.5625 -11.25 2.5625 -10 0 C-6.6882993 -1.65585035 -3.50444172 -0.77876483 0 0 Z M-7 8 C-7.33 8.99 -7.66 9.98 -8 11 C-6.35 11 -4.7 11 -3 11 C-3 10.01 -3 9.02 -3 8 C-4.32 8 -5.64 8 -7 8 Z " fill="#1D2428" transform="translate(82,18)"/>
<path d="M0 0 C0.0814222 2.22855574 0.13938079 4.45797655 0.1875 6.6875 C0.22230469 7.92886719 0.25710937 9.17023437 0.29296875 10.44921875 C-0.04092998 14.49607131 -1.11242948 17.11242948 -4 20 C-10.6 19.4 -10.6 19.4 -13 17 C-13 16.01 -13 15.02 -13 14 C-12.34 13.67 -11.68 13.34 -11 13 C-11.7734375 11.9171875 -11.7734375 11.9171875 -12.5625 10.8125 C-14 8 -14 8 -13.8125 5.375 C-13 3 -13 3 -11 0 C-6.94952424 -1.35015859 -4.2079832 -0.62084998 0 0 Z M-9 2 C-11.36692966 4.84826598 -11.36692966 4.84826598 -10.625 8.1875 C-10.41875 9.115625 -10.2125 10.04375 -10 11 C-8.35 11.33 -6.7 11.66 -5 12 C-3.38050989 9.42786866 -2.95591249 8.32330841 -3.375 5.25 C-3.58125 4.5075 -3.7875 3.765 -4 3 C-5.65 2.67 -7.3 2.34 -9 2 Z M-10 14 C-10 14.99 -10 15.98 -10 17 C-8.02 17 -6.04 17 -4 17 C-4 16.01 -4 15.02 -4 14 C-5.98 14 -7.96 14 -10 14 Z " fill="#1D2428" transform="translate(145,18)"/>
<path d="M0 0 C1 1 1 1 1.09765625 3.28515625 C1.08605469 4.20167969 1.07445312 5.11820313 1.0625 6.0625 C1.05347656 6.98160156 1.04445313 7.90070312 1.03515625 8.84765625 C1.02355469 9.55792969 1.01195312 10.26820312 1 11 C1.66 11 2.32 11 3 11 C2.67 12.32 2.34 13.64 2 15 C1.278125 14.814375 0.55625 14.62875 -0.1875 14.4375 C-2.97350204 13.8200209 -2.97350204 13.8200209 -5.5625 14.625 C-8 15 -8 15 -10.3125 13.5625 C-10.869375 13.046875 -11.42625 12.53125 -12 12 C-11.8125 9.625 -11.8125 9.625 -11 7 C-8.11090151 5.40339294 -6.30941204 5 -3 5 C-3 4.34 -3 3.68 -3 3 C-4.32 3 -5.64 3 -7 3 C-7 3.66 -7 4.32 -7 5 C-8.32 5 -9.64 5 -11 5 C-10.65660347 2.42452602 -10.39993284 1.31105887 -8.3125 -0.3125 C-5.25168069 -1.22247331 -3.07081966 -0.7506448 0 0 Z M-7 8 C-7.33 8.99 -7.66 9.98 -8 11 C-6.35 11 -4.7 11 -3 11 C-3 10.01 -3 9.02 -3 8 C-4.32 8 -5.64 8 -7 8 Z " fill="#1D2428" transform="translate(277,18)"/>
<path d="M0 0 C2.875 1.0625 2.875 1.0625 4.75 3.4375 C5.875 6.0625 5.875 6.0625 5.875 9.0625 C2.575 9.0625 -0.725 9.0625 -4.125 9.0625 C-3.795 9.7225 -3.465 10.3825 -3.125 11.0625 C-1.10036745 11.71463292 -1.10036745 11.71463292 0.875 12.0625 C0.875 11.4025 0.875 10.7425 0.875 10.0625 C2.195 10.0625 3.515 10.0625 4.875 10.0625 C4.53160347 12.63797398 4.27493284 13.75144113 2.1875 15.375 C-0.93386636 16.30297378 -3.01203957 15.94224969 -6.125 15.0625 C-8.56960927 11.3955861 -8.9550812 8.32415399 -8.125 4.0625 C-5.47984396 0.87275301 -4.15015491 0.0830031 0 0 Z M-3.125 4.0625 C-3.455 4.7225 -3.785 5.3825 -4.125 6.0625 C-2.475 6.0625 -0.825 6.0625 0.875 6.0625 C0.545 5.4025 0.215 4.7425 -0.125 4.0625 C-1.115 4.0625 -2.105 4.0625 -3.125 4.0625 Z " fill="#1D2428" transform="translate(64.125,16.9375)"/>
<path d="M0 0 C2.475 0.495 2.475 0.495 5 1 C5.66 2.98 6.32 4.96 7 7 C9.10232344 4.1315587 9.10232344 4.1315587 10 1 C11.65 0.67 13.3 0.34 15 0 C10.4351585 16.5648415 10.4351585 16.5648415 6 21 C4.68 21 3.36 21 2 21 C1.67 19.68 1.34 18.36 1 17 C2.32 17 3.64 17 5 17 C4.80664062 16.35933594 4.61328125 15.71867187 4.4140625 15.05859375 C2.9059252 10.04889015 1.42282214 5.03460143 0 0 Z " fill="#1D2428" transform="translate(97,17)"/>
<path d="M0 0 C2 2.625 2 2.625 3 6 C2.09016393 12.06557377 2.09016393 12.06557377 -0.75 14.5 C-4.48214561 15.32936569 -7.5505192 14.82137246 -10.875 12.9375 C-12.7088832 9.7791456 -12.55633102 6.5531008 -12 3 C-9.01110849 -1.41217318 -4.79569853 -1.49865579 0 0 Z M-7 3 C-8.01540112 7.10223585 -8.01540112 7.10223585 -7 11 C-5.35 10.67 -3.7 10.34 -2 10 C-2 8.02 -2 6.04 -2 4 C-3.65 3.67 -5.3 3.34 -7 3 Z " fill="#1D2428" transform="translate(205,18)"/>
<path d="M0 0 C1 4.75 1 4.75 1 7 C1.20625 7.639375 1.4125 8.27875 1.625 8.9375 C2 11 2 11 0 14 C-3.3125 15 -3.3125 15 -7 15 C-9.9375 12.625 -9.9375 12.625 -12 10 C-12 9.67 -12 9.34 -12 9 C-10.35 9 -8.7 9 -7 9 C-7 9.66 -7 10.32 -7 11 C-5.68 10.67 -4.36 10.34 -3 10 C-4.134375 9.525625 -5.26875 9.05125 -6.4375 8.5625 C-10 7 -10 7 -11 6 C-11.04063832 4.33382885 -11.042721 2.66611905 -11 1 C-7.2297564 -1.56376565 -4.32597804 -0.83191885 0 0 Z M-7 3 C-6.67 3.66 -6.34 4.32 -6 5 C-5.01 5 -4.02 5 -3 5 C-3 4.34 -3 3.68 -3 3 C-4.32 3 -5.64 3 -7 3 Z " fill="#1D2428" transform="translate(96,18)"/>
<path d="M0 0 C0.93454521 4.43908976 1 8.46527914 1 13 C-1.55996781 14.67382511 -2.95830324 15.00085095 -6.0625 14.9375 C-9 14 -9 14 -10.875 11.4375 C-11.24625 10.633125 -11.6175 9.82875 -12 9 C-10.35 9 -8.7 9 -7 9 C-7 9.66 -7 10.32 -7 11 C-5.68 10.67 -4.36 10.34 -3 10 C-4.7015625 9.4121875 -4.7015625 9.4121875 -6.4375 8.8125 C-10 7 -10 7 -11 4.4375 C-11 2 -11 2 -10 0 C-6.52285976 -1.41661269 -3.5974748 -0.73584712 0 0 Z M-7 3 C-6.67 3.66 -6.34 4.32 -6 5 C-5.01 5 -4.02 5 -3 5 C-3 4.34 -3 3.68 -3 3 C-4.32 3 -5.64 3 -7 3 Z " fill="#1D2428" transform="translate(307,18)"/>
<path d="M0 0 C2.53587563 3.80381344 2.59592661 6.53986175 2 11 C0.47589664 13.48669495 -0.6526947 13.87204541 -3.375 14.875 C-6.77139406 15.03673305 -8.28560423 13.96039694 -11 12 C-12 11 -12 11 -12.25 7.125 C-12.2020808 3.29830976 -12.2020808 3.29830976 -10.6875 1.0625 C-6.90309985 -1.32027046 -4.20804694 -1.07439496 0 0 Z M-7 3 C-8.35618499 4.12534105 -8.35618499 4.12534105 -8.0625 7.0625 C-8.041875 8.031875 -8.02125 9.00125 -8 10 C-6.34385343 10.38218767 -4.67542976 10.71395102 -3 11 C-1.64381501 9.87465895 -1.64381501 9.87465895 -1.9375 6.9375 C-1.958125 5.968125 -1.97875 4.99875 -2 4 C-3.65614657 3.61781233 -5.32457024 3.28604898 -7 3 Z " fill="#1D2428" transform="translate(262,18)"/>
<path d="M0 0 C1.38226016 2.76452033 1.09525387 5.0461363 1.0625 8.125 C1.05347656 9.22070312 1.04445312 10.31640625 1.03515625 11.4453125 C1.02355469 12.28835937 1.01195312 13.13140625 1 14 C-0.32 14 -1.64 14 -3 14 C-3.33 10.7 -3.66 7.4 -4 4 C-4.99 4 -5.98 4 -7 4 C-7.33 7.3 -7.66 10.6 -8 14 C-9.32 14 -10.64 14 -12 14 C-12 9.38 -12 4.76 -12 0 C-7.73933592 -0.7518819 -4.1734802 -1.35024359 0 0 Z " fill="#1D2428" transform="translate(241,18)"/>
<path d="M0 0 C0.99 0 1.98 0 3 0 C3 6.6 3 13.2 3 20 C-5 21 -5 21 -8 19.5625 C-10.39751463 16.49068438 -10.73833788 14.73245039 -10.48828125 10.91015625 C-10 9 -10 9 -7.8125 6.4375 C-5 5 -5 5 -2.1875 5.25 C-1.465625 5.4975 -0.74375 5.745 0 6 C0 4.02 0 2.04 0 0 Z M-6 8 C-7.49106457 10.98212913 -7.11941467 13.71609658 -7 17 C-5.9404123 18.28322547 -5.9404123 18.28322547 -3.5 18.125 C-1.0595877 18.28322547 -1.0595877 18.28322547 0 17 C0.16053815 15.12678052 0.16053815 15.12678052 0.125 13 C0.12886719 11.9171875 0.12886719 11.9171875 0.1328125 10.8125 C0.19695276 8.97910585 0.19695276 8.97910585 -1 8 C-2.66617115 7.95936168 -4.33388095 7.957279 -6 8 Z " fill="#1D2428" transform="translate(122,12)"/>
<path d="M0 0 C2.9375 0.8125 2.9375 0.8125 4.9375 3.8125 C5.3515625 6.51171875 5.3515625 6.51171875 5.5625 9.5 C5.63726562 10.49386719 5.71203125 11.48773438 5.7890625 12.51171875 C5.83804688 13.27097656 5.88703125 14.03023437 5.9375 14.8125 C2.59309323 15.39968592 -0.66189315 15.87113115 -4.0625 15.8125 C-6.6875 13.875 -6.6875 13.875 -8.0625 11.8125 C-7.4025 10.1625 -6.7425 8.5125 -6.0625 6.8125 C-3.4225 6.4825 -0.7825 6.1525 1.9375 5.8125 C1.6075 5.1525 1.2775 4.4925 0.9375 3.8125 C-1.58983235 3.15694881 -1.58983235 3.15694881 -4.0625 2.8125 C-4.0625 3.8025 -4.0625 4.7925 -4.0625 5.8125 C-5.0525 5.8125 -6.0425 5.8125 -7.0625 5.8125 C-6.75 3.9375 -6.75 3.9375 -6.0625 1.8125 C-3.0625 -0.1875 -3.0625 -0.1875 0 0 Z M-5.0625 9.8125 C-4.7325 10.8025 -4.4025 11.7925 -4.0625 12.8125 C-2.4125 12.4825 -0.7625 12.1525 0.9375 11.8125 C1.2675 10.4925 1.5975 9.1725 1.9375 7.8125 C-0.41537614 7.8125 -2.85623224 9.06143012 -5.0625 9.8125 Z " fill="#1D2428" transform="translate(166.0625,17.1875)"/>
<path d="M0 0 C0.66 0 1.32 0 2 0 C2 0.66 2 1.32 2 2 C2.99 2 3.98 2 5 2 C5 2.99 5 3.98 5 5 C3.68 5.33 2.36 5.66 1 6 C2.65 6.99 4.3 7.98 6 9 C5.62403791 11.78211944 5.32681541 13.5879284 3.5625 15.8125 C2 17 2 17 0 17 C0 16.34 0 15.68 0 15 C-1.32 14.67 -2.64 14.34 -4 14 C-4 13.01 -4 12.02 -4 11 C-1.03 11.495 -1.03 11.495 2 12 C1.17280855 9.82890503 1.17280855 9.82890503 -1 9.0625 C-3 8 -3 8 -4 5 C-3.34 4.01 -2.68 3.02 -2 2 C-1.34 2 -0.68 2 0 2 C0 1.34 0 0.68 0 0 Z " fill="#1D2428" transform="translate(24,29)"/>
<path d="M0 0 C1.32 0 2.64 0 4 0 C4 6.6 4 13.2 4 20 C2.68 20 1.36 20 0 20 C0 13.4 0 6.8 0 0 Z " fill="#1D2428" transform="translate(244,12)"/>
<path d="M0 0 C0.99 0 1.98 0 3 0 C3 1.32 3 2.64 3 4 C3.99 4 4.98 4 6 4 C6 4.66 6 5.32 6 6 C5.01 6 4.02 6 3 6 C3 9.3 3 12.6 3 16 C3.99 16 4.98 16 6 16 C6 16.66 6 17.32 6 18 C4.35 18 2.7 18 1 18 C-0.26237731 15.47524538 -0.09856404 13.68799534 -0.0625 10.875 C-0.05347656 9.96492188 -0.04445312 9.05484375 -0.03515625 8.1171875 C-0.02355469 7.41851562 -0.01195312 6.71984375 0 6 C-0.66 6 -1.32 6 -2 6 C-2 5.34 -2 4.68 -2 4 C-1.34 4 -0.68 4 0 4 C0 2.68 0 1.36 0 0 Z " fill="#1D2428" transform="translate(152,14)"/>
<path d="M0 0 C0.99 0 1.98 0 3 0 C3 4.62 3 9.24 3 14 C2.01 14 1.02 14 0 14 C0 9.38 0 4.76 0 0 Z " fill="#1D2428" transform="translate(127,18)"/>
<path d="M0 0 C0.66 0 1.32 0 2 0 C2 6.6 2 13.2 2 20 C1.34 20 0.68 20 0 20 C0 13.4 0 6.8 0 0 Z " fill="#1D2428" transform="translate(173,12)"/>
<path d="M0 0 C0.66 0 1.32 0 2 0 C2 4.62 2 9.24 2 14 C1.34 14 0.68 14 0 14 C0 9.38 0 4.76 0 0 Z " fill="#1D2428" transform="translate(147,18)"/>
<path d="M0 0 C0.99 0 1.98 0 3 0 C3 1.32 3 2.64 3 4 C2.01 4 1.02 4 0 4 C0 2.68 0 1.36 0 0 Z " fill="#1D2428" transform="translate(127,12)"/>
<path d="M0 0 C0.66 0 1.32 0 2 0 C2 1.32 2 2.64 2 4 C1.34 4 0.68 4 0 4 C0 2.68 0 1.36 0 0 Z " fill="#1D2428" transform="translate(147,12)"/>
</svg>
