<svg version="1.1" xmlns="http://www.w3.org/2000/svg" width="20" height="20" viewBox="0 0 400 400">
    <path d="M0 0 C0.69965881 0.00054382 1.39931763 0.00108765 2.12017822 0.00164795 C13.28575982 0.04141708 23.57081033 0.99894803 34.25 4.375 C34.9615625 4.58398926 35.673125 4.79297852 36.40625 5.00830078 C74.82846105 16.2965164 108.57393682 37.79673489 136.8125 65.8125 C137.30105469 66.29630127 137.78960937 66.78010254 138.29296875 67.27856445 C140.41336979 69.4089604 142.39933493 71.56174059 144.27734375 73.91015625 C146.43349464 76.60427746 148.80148221 78.94500352 151.25 81.375 C167.98637409 99.7875132 178.63150065 120.99267617 185.25 144.85546875 C186.17750646 148.1198567 187.20039527 151.33578547 188.25 154.5625 C194.72978761 175.46173594 197.93943688 197.78741988 193.25 219.375 C193.00507813 220.64472656 192.76015625 221.91445312 192.5078125 223.22265625 C186.97370876 250.44775489 172.43944783 276.44521854 153.25 296.375 C152.73953125 296.91656738 152.2290625 297.45813477 151.703125 298.01611328 C138.67708978 311.79921071 122.95127504 324.92993989 103.875 328.75 C96.03865566 330.86766715 91.21383912 336.7781647 85.86767578 342.56201172 C80.78933785 348.0443214 75.53437049 352.33542294 69.25 356.375 C68.02071777 357.16837769 68.02071777 357.16837769 66.76660156 357.9777832 C37.35712627 376.62094083 2.04036441 383.37797164 -32.203125 376.4765625 C-48.18969349 372.79979235 -63.70411147 367.07666814 -77 357.3125 C-82.0251058 353.79777572 -87.71189908 352.07810815 -93.44580078 350.05053711 C-121.18483341 340.15381905 -138.69042154 320.50716191 -152.75 295.375 C-153.36125732 294.28807861 -153.36125732 294.28807861 -153.98486328 293.17919922 C-179.61507297 247.19471757 -192.0482626 184.5365771 -178.05419922 132.80273438 C-174.71805088 121.3705026 -170.39634754 110.64795866 -164.72753906 100.18310547 C-163.76543972 98.40355809 -162.82911026 96.61255491 -161.8984375 94.81640625 C-154.70896699 81.11840627 -154.70896699 81.11840627 -150.75 76.375 C-150.09 76.375 -149.43 76.375 -148.75 76.375 C-148.50636719 75.81554687 -148.26273438 75.25609375 -148.01171875 74.6796875 C-142.85456235 65.2594947 -133.33703383 58.11675658 -124.7421875 51.96484375 C-122.62251007 50.33528778 -122.62251007 50.33528778 -120.4375 48.05078125 C-110.79144249 38.44678503 -99.60294063 30.94894747 -87.75 24.375 C-87.02828613 23.96507813 -86.30657227 23.55515625 -85.56298828 23.1328125 C-70.65965059 14.6987693 -55.37255461 9.04458197 -38.875 4.5625 C-38.1634375 4.36744873 -37.451875 4.17239746 -36.71875 3.97143555 C-24.62701361 0.85643936 -12.45023167 -0.0367614 0 0 Z M-73.8125 41.0625 C-74.50113129 41.29638428 -75.18976257 41.53026855 -75.89926147 41.77124023 C-86.29872963 45.31882346 -95.36400059 48.86385555 -103.9375 55.8125 C-104.52724609 56.27720703 -105.11699219 56.74191406 -105.72460938 57.22070312 C-109.29874203 60.07126276 -112.57319605 63.07748848 -115.75 66.375 C-116.28625 66.91382813 -116.8225 67.45265625 -117.375 68.0078125 C-137.62577398 89.98450472 -133.56900235 129.79765537 -132.75 157.375 C-131.01766277 197.22477142 -114.59757468 234.77888065 -85.8828125 262.59375 C-79.5655475 268.33596599 -72.66127073 273.37950196 -65.75 278.375 C-64.83806885 279.03798096 -64.83806885 279.03798096 -63.90771484 279.71435547 C-55.82388524 285.5248207 -47.27896285 290.45202091 -38.5625 295.25 C-37.57693115 295.79785156 -36.5913623 296.34570312 -35.57592773 296.91015625 C-25.55668695 302.31739205 -15.32675921 305.4016022 -4.25 307.8125 C9.54209207 310.98930286 21.19641276 316.74746484 33.53930664 323.51464844 C38.73840748 326.12940958 43.80336537 325.94553642 49.27905273 324.30859375 C50.7511398 323.82154881 52.21919548 323.3221968 53.68359375 322.8125 C54.47919205 322.5429248 55.27479034 322.27334961 56.09449768 321.99560547 C57.77631768 321.42244481 59.45630558 320.8438831 61.13452148 320.26025391 C63.64367462 319.3901966 66.15982627 318.54355018 68.67773438 317.69921875 C76.70096343 314.96705021 84.51044142 311.99855718 92.1171875 308.24609375 C92.757202 307.93313354 93.39721649 307.62017334 94.05662537 307.29772949 C111.24624794 298.47886939 122.70102892 277.35517691 133.29199219 261.97143555 C136.96234459 256.64074886 140.69326243 251.37193346 144.54101562 246.16796875 C165.08213227 218.34121287 176.20075198 188.33453297 171.0625 153.5 C166.21688316 124.93667265 149.95088605 100.73102284 132.0390625 78.64453125 C130.39683398 76.56126756 128.87412229 74.43731586 127.375 72.25 C126.67375 71.30125 125.9725 70.3525 125.25 69.375 C124.59 69.375 123.93 69.375 123.25 69.375 C123.00507813 68.78074219 122.76015625 68.18648437 122.5078125 67.57421875 C111.39797855 48.14926064 67.67528089 36.94537614 48.25 31.375 C41.64203143 29.67036471 34.98754412 28.43492335 28.25 27.375 C26.9609375 27.15199219 25.671875 26.92898437 24.34375 26.69921875 C-10.18899707 21.4550929 -41.40276863 30.00121522 -73.8125 41.0625 Z " fill="currentColor" transform="translate(194.75,13.625)" />
</svg>