<?xml version="1.0" standalone="no"?>
<!DOCTYPE svg PUBLIC "-//W3C//DTD SVG 20010904//EN"
 "http://www.w3.org/TR/2001/REC-SVG-20010904/DTD/svg10.dtd">
<svg version="1.0" xmlns="http://www.w3.org/2000/svg"
 width="800px" height="600px" viewBox="0 0 1605.000000 1221.000000"
 preserveAspectRatio="xMidYMid meet">

<g transform="translate(0.000000,1221.000000) scale(0.100000,-0.100000)"
fill="#000000" stroke="none">
<path d="M7850 10814 c-656 -82 -1204 -497 -1450 -1098 -90 -221 -124 -403
-124 -666 0 -230 20 -362 85 -555 337 -1012 1487 -1501 2445 -1040 506 244
863 706 976 1267 20 98 23 142 22 333 0 199 -2 232 -27 346 -51 242 -155 482
-295 679 -86 122 -290 326 -412 412 -196 139 -438 244 -674 294 -100 21 -154
26 -316 29 -107 2 -211 1 -230 -1z m1489 -1078 c-2 -2 -283 -81 -624 -176
-534 -148 -630 -172 -690 -172 -60 0 -159 25 -668 166 -328 92 -607 171 -620
176 -13 5 502 9 1292 9 723 1 1312 -1 1310 -3z m-2105 -478 c463 -296 503
-324 483 -335 -30 -15 -1008 -453 -1013 -453 -2 0 -4 252 -4 561 0 483 2 560
14 556 8 -3 242 -151 520 -329z m2146 -229 c0 -445 -3 -560 -12 -556 -7 3
-249 107 -536 233 -333 144 -519 230 -510 235 7 4 245 152 528 328 283 176
518 320 523 321 4 0 7 -252 7 -561z m-2160 466 c140 -41 259 -77 264 -78 5 -2
-7 -13 -28 -25 -23 -14 -44 -37 -55 -62 l-18 -40 -49 32 c-27 17 -130 83 -229
146 -99 63 -171 112 -160 108 11 -3 135 -39 275 -81z m1870 63 c-19 -12 -122
-78 -229 -145 -106 -68 -194 -122 -195 -121 -1 2 -9 20 -19 41 -10 22 -32 47
-53 59 l-37 22 274 82 c151 45 279 83 284 83 6 0 -6 -9 -25 -21z m-1278 -238
c87 -26 117 -30 218 -30 101 0 130 4 216 30 118 35 118 35 104 11 -16 -30 -12
-103 8 -132 9 -15 28 -35 41 -46 l24 -19 -34 -21 c-19 -11 -70 -43 -114 -71
l-80 -52 -49 15 c-63 19 -179 19 -241 0 -27 -8 -53 -11 -59 -8 -6 3 -58 35
-114 72 l-104 65 24 19 c53 44 76 126 48 178 -14 25 -9 25 112 -11z m773 -622
c253 -113 520 -231 593 -263 89 -39 129 -61 120 -66 -17 -11 -2529 -11 -2545
-1 -10 6 789 368 1147 519 47 20 67 23 140 19 l85 -4 460 -204z"/>
<path d="M6065 6081 c-164 -76 -166 -298 -3 -382 86 -44 205 -13 263 69 40 58
47 151 16 216 -49 99 -175 144 -276 97z"/>
<path d="M11580 6082 c-69 -38 -97 -141 -54 -199 69 -92 181 -94 242 -3 20 29
23 44 20 88 -4 45 -10 59 -40 89 -46 45 -113 55 -168 25z"/>
<path d="M13762 6083 c-113 -55 -93 -228 30 -265 50 -15 104 1 143 42 39 41
47 123 16 173 -38 62 -121 84 -189 50z"/>
<path d="M692 5098 l3 -933 188 -3 187 -2 0 935 0 935 -190 0 -190 0 2 -932z"/>
<path d="M9722 5098 l3 -933 102 -3 103 -3 2 746 3 746 50 -88 c28 -48 239
-384 470 -745 l420 -658 98 0 97 0 0 935 0 935 -100 0 -100 0 0 -762 0 -763
-70 120 c-38 66 -249 408 -468 760 l-398 640 -107 3 -107 3 2 -933z"/>
<path d="M2125 5590 c-86 -15 -199 -67 -222 -102 -5 -8 -10 3 -13 32 l-5 45
-185 0 -185 0 -3 -703 -2 -702 187 2 188 3 5 460 5 460 30 54 c42 76 90 101
197 101 123 0 179 -38 216 -148 13 -39 17 -119 20 -489 l3 -443 185 0 185 0
-4 483 c-4 536 -6 552 -74 695 -59 124 -167 212 -298 240 -75 17 -174 22 -230
12z"/>
<path d="M4955 5590 c-140 -22 -246 -74 -340 -167 -95 -94 -154 -204 -192
-358 -26 -104 -23 -324 6 -429 63 -235 210 -403 412 -471 72 -24 100 -28 194
-28 92 0 123 4 190 26 200 66 351 233 415 457 28 98 37 282 20 387 -55 341
-278 563 -590 586 -36 3 -87 2 -115 -3z m134 -361 c68 -14 129 -70 167 -151
28 -61 29 -69 29 -208 -1 -129 -3 -152 -24 -204 -31 -77 -102 -150 -162 -166
-151 -41 -275 57 -310 246 -17 87 -6 246 21 319 29 78 100 149 162 163 59 13
60 13 117 1z"/>
<path d="M7215 5590 c-149 -20 -267 -80 -376 -190 -138 -138 -201 -307 -201
-535 0 -231 64 -399 206 -540 133 -133 266 -188 451 -189 122 0 184 14 295 66
70 34 100 57 177 133 51 51 93 99 93 106 0 11 -202 210 -222 217 -4 2 -36 -22
-71 -54 -73 -68 -142 -102 -224 -110 -212 -22 -349 148 -330 410 8 107 38 187
94 248 57 60 115 83 204 82 108 -2 211 -63 287 -169 l21 -30 122 122 123 122
-15 28 c-7 15 -48 62 -90 104 -114 115 -242 171 -414 182 -38 3 -97 1 -130 -3z"/>
<path d="M8575 5589 c-301 -45 -512 -303 -541 -661 -13 -171 39 -398 119 -520
117 -175 308 -272 537 -271 121 0 200 18 307 69 64 30 193 133 193 153 0 7
-194 174 -242 209 -15 11 -24 8 -62 -22 -61 -46 -107 -60 -196 -60 -82 1 -141
21 -197 68 -37 31 -83 118 -83 158 l0 28 414 0 414 0 6 23 c9 35 7 186 -5 257
-15 94 -64 234 -106 304 -118 194 -338 298 -558 265z m171 -343 c68 -32 114
-92 133 -175 l9 -41 -239 0 -239 0 6 28 c38 176 181 258 330 188z"/>
<path d="M12710 5590 c-106 -19 -224 -86 -272 -153 l-23 -32 -5 80 -5 80 -100
0 -100 0 0 -700 0 -700 103 -3 102 -3 0 458 c0 369 3 470 15 521 30 125 93
210 190 254 40 18 68 22 140 22 138 0 219 -43 272 -148 49 -96 53 -145 53
-644 l0 -463 103 3 102 3 0 485 c0 429 -2 494 -18 560 -56 242 -198 366 -437
383 -41 3 -95 2 -120 -3z"/>
<path d="M14800 5588 c-47 -3 -114 -14 -150 -23 -90 -23 -220 -74 -220 -86 0
-13 67 -159 73 -159 3 0 31 13 63 29 92 45 160 62 274 68 131 7 202 -10 260
-63 61 -56 80 -118 80 -269 0 -69 -2 -125 -5 -125 -2 0 -26 9 -53 19 -177 70
-413 66 -579 -9 -112 -51 -205 -164 -233 -282 -23 -102 -6 -248 41 -346 80
-164 312 -249 531 -193 98 25 181 68 245 126 l52 46 3 -78 3 -78 103 -3 103
-3 -3 553 c-4 550 -4 553 -27 616 -74 200 -254 284 -561 260z m244 -744 c33
-9 77 -24 98 -35 l38 -19 0 -149 0 -148 -58 -55 c-94 -90 -212 -138 -337 -138
-168 0 -266 88 -282 252 -15 162 62 270 217 305 68 16 240 9 324 -13z"/>
<path d="M2892 5558 c2 -7 116 -325 253 -706 l249 -692 190 2 190 3 243 675
c134 371 246 687 250 703 l6 27 -196 0 -196 0 -50 -157 c-102 -322 -201 -640
-222 -713 l-22 -75 -33 115 c-39 139 -240 776 -254 808 -9 22 -12 22 -211 22
-156 0 -200 -3 -197 -12z"/>
<path d="M5970 4865 l0 -705 185 0 185 0 -2 703 -3 702 -182 3 -183 2 0 -705z"/>
<path d="M11550 4865 l0 -705 100 0 100 0 0 705 0 705 -100 0 -100 0 0 -705z"/>
<path d="M13730 4863 c0 -390 -4 -745 -10 -790 -15 -138 -61 -195 -192 -243
-35 -13 -67 -26 -71 -30 -6 -5 44 -134 58 -148 2 -2 30 4 62 13 150 44 252
115 300 209 50 98 52 142 53 949 l0 747 -100 0 -100 0 0 -707z"/>
</g>
</svg>
