<?xml version="1.0" encoding="utf-8"?>
<!-- Generator: Adobe Illustrator 23.1.0, SVG Export Plug-In . SVG Version: 6.00 Build 0)  -->
<svg version="1.1" id="nopcommerce_logo" xmlns="http://www.w3.org/2000/svg" xmlns:xlink="http://www.w3.org/1999/xlink" x="0px" y="0px"
	 viewBox="0 0 1044 1044" style="enable-background:new 0 0 1044 1044;" xml:space="preserve">
<style type="text/css">
	.st0{fill:#40BDD7;}
</style>
<path class="st0" d="M762.39,760.01c-43.03-0.18-77.28-33.71-77.29-75.68c-0.01-45.96,40.13-85.23,87.25-85.4
	c41.58-0.14,79.31,36.17,79.37,76.38C851.8,721.02,810.46,760.22,762.39,760.01z"/>
<path class="st0" d="M478.54,695.93c0.61-45.29,38.98-84.68,82.5-84.69c28.84,0,53.6,19.41,60.39,47.36
	c11.87,48.83-29.04,101.85-79.39,102.87C506.31,762.2,478.04,733.03,478.54,695.93z"/>
<path class="st0" d="M843.85,503.07c9.83-27.62,0.19-53.81-24.28-70.17c-30.81-20.61-79.28-11.82-104.87,19.03
	c-12.01,14.47-19.67,30.75-17.68,49.88c3.75,35.94,32.67,58.15,71.38,55.56C806.73,552.81,833.69,531.6,843.85,503.07z"/>
<path class="st0" d="M561.59,571.46c-37.61-0.01-61.62-30.02-53.57-66.95c7.63-35.05,42.08-63.32,77.66-63.72
	c37.82-0.41,63,30.43,54.92,67.29C632.82,543.53,598,571.46,561.59,571.46z"/>
<path class="st0" d="M318.35,699.59c3.07-29.6,19.55-56.61,52.85-71.04c39.61-17.18,77.92,10.97,74.31,54.04
	c-2.77,33.09-19.46,57.76-49.13,72.54C356.57,774.97,317.55,749.81,318.35,699.59z"/>
<path class="st0" d="M795.35,262.05c7.23-0.73,18.42,2.13,28.75,8.52c23.6,14.61,30.5,40.47,17.61,66.12
	c-15.66,31.17-57.55,50.44-91.65,42.15c-37.84-9.2-53.16-46.21-31.72-78.5C735.21,274.94,759.6,262.25,795.35,262.05z"/>
<path class="st0" d="M171.51,701.15c1.1-21.12,17.1-46.34,46.65-62c33.79-17.91,69.06,4.21,66.76,41.84
	c-1.97,32.32-17.7,57.51-46.58,73.01C203.62,772.66,171.5,753.02,171.51,701.15z"/>
<path class="st0" d="M579.4,404.86c-33.84-0.09-54.79-27.68-45.44-59.83c10.1-34.67,53.61-61.26,87.41-53.38
	c27.74,6.46,41.75,30.48,33.78,57.89C646.23,380.22,612.38,404.93,579.4,404.86z"/>
<path class="st0" d="M429.04,464.23c28.5,0.09,47.94,24.59,42.9,54.08c-5.27,30.85-33,57.94-64.06,62.62
	c-28.24,4.24-51.25-15.17-51.56-43.48C355.92,500.64,392.19,464.11,429.04,464.23z"/>
<path class="st0" d="M384.75,387.63c1.23-39.46,48.34-77.3,85.68-68.83c17.6,3.99,29.99,17.99,31.59,35.64
	c3.56,39.48-46.2,82.7-85.21,74.03C396.65,423.97,384.12,408.01,384.75,387.63z"/>
<path class="st0" d="M255.54,593.73c-22.41-0.09-38.11-16.91-37.85-40.53c0.38-34.16,30.14-68.55,63.97-73.93
	c24.12-3.81,43.44,11.18,45.85,35.58C331.17,551.93,292.9,593.86,255.54,593.73z"/>
<path class="st0" d="M258.09,410.6c0.45-30.64,32.45-63.51,63.61-65.31c24.07-1.41,39.99,16.31,36.43,40.5
	c-4.11,27.92-33.53,56.06-61.67,58.97C273.88,447.1,257.76,432.75,258.09,410.6z"/>
</svg>
