<?xml version="1.0" ?><!DOCTYPE svg  PUBLIC '-//W3C//DTD SVG 1.1//EN'  'http://www.w3.org/Graphics/SVG/1.1/DTD/svg11.dtd'><svg height="512px" style="enable-background:new 0 0 512 512;" version="1.1" viewBox="0 0 512 512" width="512px" xml:space="preserve" xmlns="http://www.w3.org/2000/svg" xmlns:xlink="http://www.w3.org/1999/xlink"><g id="_x32_38-opencart"><g><path d="M330.252,388.754c0,18.186-14.59,32.777-32.776,32.777c-18.183,0-32.918-14.592-32.918-32.777    c0-18.185,14.808-32.92,32.918-32.92C315.733,355.834,330.252,370.569,330.252,388.754z M147.759,355.834    c-18.185,0-32.776,14.809-32.776,32.92c0,18.112,14.591,32.777,32.776,32.777c18.185,0,32.919-14.592,32.919-32.777    C180.678,370.569,165.943,355.834,147.759,355.834z M357.422,161.77c-217.21,0-272.556-9.201-331.421-71.301    c24.726,37.161,38.31,107.023,268.17,103.645c239.563-3.593,93.438,61.886,50.887,135.773    C479.251,210.07,574.631,161.77,357.422,161.77L357.422,161.77z" style="fill:#37C2EB;"/></g></g><g id="Layer_1"/></svg>