<?xml version="1.0" encoding="UTF-8"?>
<svg xmlns="http://www.w3.org/2000/svg" version="1.1" width="163px" height="30px" style="shape-rendering:geometricPrecision; text-rendering:geometricPrecision; image-rendering:optimizeQuality; fill-rule:evenodd; clip-rule:evenodd" xmlns:xlink="http://www.w3.org/1999/xlink">
<g><path style="opacity:0.944" fill="#199ed9" d="M 0.5,0.5 C 10.5,0.5 20.5,0.5 30.5,0.5C 30.5,9.83333 30.5,19.1667 30.5,28.5C 20.5,28.5 10.5,28.5 0.5,28.5C 0.5,19.1667 0.5,9.83333 0.5,0.5 Z"/></g>
<g><path style="opacity:0.636" fill="#199ed9" d="M 51.5,3.5 C 53.1667,3.5 54.8333,3.5 56.5,3.5C 56.3367,5.85684 56.5034,8.19018 57,10.5C 61.1028,8.96656 63.9361,10.2999 65.5,14.5C 68.7852,9.50678 73.1185,8.34012 78.5,11C 79.717,12.6477 80.5503,14.481 81,16.5C 82.1761,10.6592 85.6761,8.49252 91.5,10C 93.3333,10.5 94.5,11.6667 95,13.5C 99.116,8.75086 103.449,8.41753 108,12.5C 108.369,16.8629 108.869,21.1962 109.5,25.5C 105.505,24.3495 101.505,24.1829 97.5,25C 96.2986,24.0975 95.4652,22.9308 95,21.5C 92.7937,25.1252 89.627,26.2919 85.5,25C 83.2232,23.3868 81.7232,21.2201 81,18.5C 79.7808,24.3593 76.2808,26.526 70.5,25C 68.3333,24.1667 66.8333,22.6667 66,20.5C 65.9973,24.8822 63.8306,26.5489 59.5,25.5C 59.9239,21.2968 59.4239,17.2968 58,13.5C 56.5761,17.2968 56.0761,21.2968 56.5,25.5C 53.9552,25.8495 51.9552,25.0162 50.5,23C 51.3764,16.407 51.7097,9.90702 51.5,3.5 Z M 73.5,13.5 C 74.1174,13.6107 74.6174,13.944 75,14.5C 75.4955,16.4727 75.6621,18.4727 75.5,20.5C 70.9947,19.4981 70.3281,17.1648 73.5,13.5 Z M 87.5,13.5 C 88.6407,15.2295 90.3074,16.2295 92.5,16.5C 94.524,15.9788 96.524,15.8122 98.5,16C 96.6667,16.5 95.5,17.6667 95,19.5C 94.2753,18.9415 93.4419,18.6082 92.5,18.5C 90.6746,19.6511 88.6746,20.3178 86.5,20.5C 86.298,18.0504 86.6314,15.717 87.5,13.5 Z M 101.5,13.5 C 102.376,13.3691 103.043,13.7025 103.5,14.5C 101.192,15.8734 100.525,15.5401 101.5,13.5 Z M 102.5,18.5 C 103.713,19.4971 103.546,20.4971 102,21.5C 100.205,20.2805 100.372,19.2805 102.5,18.5 Z"/></g>
<g><path style="opacity:0.6" fill="#199ed9" d="M 34.5,4.5 C 37.8499,4.33499 41.1832,4.50166 44.5,5C 50.5828,7.41224 51.9161,11.4122 48.5,17C 45.6074,18.1488 42.6074,18.6488 39.5,18.5C 39.5,20.8333 39.5,23.1667 39.5,25.5C 37.5328,25.7394 35.6995,25.4061 34,24.5C 33.2075,17.7526 33.3742,11.0859 34.5,4.5 Z M 39.5,9.5 C 45.9445,10.4021 46.1112,12.0687 40,14.5C 39.5065,12.8659 39.3398,11.1992 39.5,9.5 Z"/></g>
<g><path style="opacity:0.619" fill="#129dd8" d="M 115.5,4.5 C 122.002,3.56249 125.669,6.22915 126.5,12.5C 123.16,12.1068 120.16,11.2735 117.5,10C 114.543,14.2989 115.043,18.1322 119,21.5C 120.706,20.6921 121.539,19.3588 121.5,17.5C 123.766,17.1412 125.599,17.8078 127,19.5C 127.5,17.6667 128.667,16.5 130.5,16C 129.552,15.5172 128.552,15.3505 127.5,15.5C 128.56,9.90469 131.893,8.07136 137.5,10C 139,10.8333 140.167,12 141,13.5C 141.309,12.2341 141.809,11.0674 142.5,10C 145.817,9.50166 149.15,9.33499 152.5,9.5C 152.5,8.5 152.5,7.5 152.5,6.5C 154.167,6.5 155.833,6.5 157.5,6.5C 157.5,7.5 157.5,8.5 157.5,9.5C 158.5,9.5 159.5,9.5 160.5,9.5C 160.5,10.8333 160.5,12.1667 160.5,13.5C 159.5,13.5 158.5,13.5 157.5,13.5C 157.5,15.8333 157.5,18.1667 157.5,20.5C 158.5,20.5 159.5,20.5 160.5,20.5C 160.5,22.1667 160.5,23.8333 160.5,25.5C 158.208,25.7564 156.041,25.4231 154,24.5C 152.826,20.9542 152.16,17.2875 152,13.5C 150.644,14.3802 149.144,14.7135 147.5,14.5C 147.5,18.1667 147.5,21.8333 147.5,25.5C 145.234,25.8588 143.401,25.1922 142,23.5C 141.326,24.5784 140.326,25.2451 139,25.5C 136.667,24.1667 134.333,24.1667 132,25.5C 129.497,25.01 127.497,23.6766 126,21.5C 119.941,27.2067 114.608,26.54 110,19.5C 108.087,12.9698 109.92,7.96978 115.5,4.5 Z M 133.5,13.5 C 134.773,14.0768 134.773,14.7435 133.5,15.5C 132.537,15.0302 132.537,14.3635 133.5,13.5 Z M 132.5,19.5 C 135.001,19.5109 135.168,20.1776 133,21.5C 132.536,20.9056 132.369,20.2389 132.5,19.5 Z"/></g>
<g><path style="opacity:1" fill="#f1f9fc" d="M 5.5,5.5 C 7.3588,5.46091 8.69213,6.29424 9.5,8C 14.4889,8.49926 19.4889,8.66593 24.5,8.5C 24.0371,11.4824 23.7038,14.4824 23.5,17.5C 19.8333,17.5 16.1667,17.5 12.5,17.5C 12.5,18.5 12.5,19.5 12.5,20.5C 15.8499,20.335 19.1832,20.5017 22.5,21C 21.6667,21.8333 20.8333,22.6667 20,23.5C 17.5261,22.5349 15.0261,22.3683 12.5,23C 10.394,17.0763 8.06067,11.2429 5.5,5.5 Z"/></g>
</svg>
