<svg clip-rule="evenodd" fill-rule="evenodd" stroke-linejoin="round" stroke-miterlimit="2" viewBox="0 0 200 200" xmlns="http://www.w3.org/2000/svg" xmlns:xlink="http://www.w3.org/1999/xlink"><clipPath id="a"><path clip-rule="evenodd" d="m0 0h200v200h-200z"/></clipPath><path d="m0 0h200v200h-200z" fill="none"/><g clip-path="url(#a)"><g fill-rule="nonzero"><path d="m64.791 153.462c1.599-.732 3.197-1.33 4.86-2 1.863-.666 3.727-1.329 5.59-1.928 2.329-.731 4.727-1.333 7.124-1.863 3.261-.67 6.522-1.197 9.783-1.534-1.863 5.794-3.863 11.585-6.124 17.308.065 1.133.133 2.197.197 3.332 4.462-.87 9.052-1.335 13.782-1.335 4.726 0 9.32.465 13.781 1.335 0-1.135.065-2.27.198-3.332-2.197-5.723-4.261-11.514-6.127-17.308 3.264.331 6.593.799 9.789 1.534 2.394.533 4.727 1.132 7.124 1.863 1.863.602 3.727 1.197 5.59 1.928 1.663.605 3.261 1.265 4.859 2 11.32 5.062 21.637 12.519 30.096 22.238 21.239-18.311 34.687-45.408 34.687-75.701 0-55.194-44.738-100-100-100-55.194 0-100 44.741-100 100 0 30.228 13.448 57.322 34.687 75.701 8.468-9.719 18.785-17.179 30.104-22.238z" fill="#a0dbe8"/><g fill="#525353"><path d="m71.384 171.572c4.659-2.064 9.654-3.663 14.781-4.659 0-1.132-.067-2.268-.197-3.332 2.197-5.723 4.261-11.514 6.127-17.305-3.261.327-6.59.796-9.786 1.53-2.397.534-4.73 1.133-7.124 1.864-1.863.601-3.73 1.2-5.59 1.931l7.256 1.796z"/><path d="m54.206 182.292c.198-1.863.265-3.729.265-5.661 0-1.132.932-2.064 2.064-2.064h1.799l6.39-21.17c-11.317 5.059-21.637 12.516-30.093 22.238 4.658 4.057 9.721 7.654 15.046 10.783 1.533-1.395 2.999-2.796 4.529-4.126z"/><path d="m135.164 153.462 6.393 21.176h1.795c1.133 0 2.064.929 2.064 2.064 0 1.928.133 3.792.266 5.655 1.533 1.333 3.063 2.663 4.461 4.128 5.393-3.125 10.388-6.722 15.049-10.785-8.388-9.719-18.711-17.179-30.028-22.238z"/><path d="m122.981 153.261 7.256-1.799c-1.863-.666-3.73-1.329-5.59-1.928-2.332-.731-4.73-1.333-7.124-1.863-3.261-.67-6.525-1.197-9.789-1.534 1.864 5.794 3.863 11.585 6.127 17.308-.065 1.133-.133 2.197-.197 3.332 5.192.994 10.119 2.595 14.781 4.659z"/></g><path d="m85.835 174.635h28.227c-.266-2.598-.401-5.195-.334-7.722-4.461-.867-9.052-1.333-13.781-1.333-4.73 0-9.32.466-13.782 1.333.065 2.595-.067 5.124-.33 7.722z"/><path d="m49.745 186.418c1.132.666 2.332 1.332 3.529 1.999.401-1.999.735-4.061.932-6.125-1.53 1.33-2.996 2.731-4.461 4.126z"/><path d="m70.45 174.635h15.447c.265-2.598.401-5.195.333-7.722-5.192.996-10.119 2.595-14.778 4.659z"/><path d="m145.753 182.292c.197 2.062.53 4.126.931 6.125 1.197-.602 2.333-1.268 3.53-1.999-1.466-1.395-2.931-2.796-4.461-4.126z"/><path d="m129.506 174.635-.932-3.063c-4.658-2.064-9.65-3.663-14.778-4.659-.068 2.595.065 5.124.333 7.722z"/><path d="m70.45 174.635.931-3.063 5.529-18.311-7.259-1.799c-1.663.605-3.261 1.265-4.86 2l-6.389 21.176h12.048z" fill="#aa9678"/><path d="m128.571 171.572.932 3.063h12.051l-6.39-21.176c-1.598-.732-3.196-1.33-4.859-1.999l-7.256 1.798z" fill="#aa9678"/><path d="m58.599 178.896c.068-.068.133-.068.201-.136h-.201z" fill="#c0b098"/><path d="m99.947 178.766h-41.147c-.068.062-.136.062-.201.136-.135 3.924-.666 7.719-1.533 11.446 12.983 6.195 27.495 9.653 42.878 9.653z" fill="#c0b098"/><path d="m141.356 178.766h-.197c.065.062.132.062.197.136z" fill="#aa9678"/><path d="m141.156 178.766h-41.212v21.235c15.312 0 29.892-3.461 42.875-9.653-.864-3.727-1.398-7.59-1.533-11.446.005-.074-.062-.136-.13-.136z" fill="#aa9678"/></g><path d="m99.947 176.699v2.064z" fill="#786453"/><path d="m145.753 182.292c-.201-1.863-.266-3.729-.266-5.661 0-1.132-.931-2.064-2.064-2.064h-86.958c-1.133 0-2.064.932-2.064 2.064 0 1.932-.133 3.798-.266 5.661-.197 2.062-.533 4.126-.931 6.125 1.265.666 2.529 1.329 3.797 1.928.864-3.73 1.398-7.593 1.534-11.449v-.136h82.754v.136c.132 3.927.666 7.719 1.533 11.449 1.265-.599 2.53-1.265 3.795-1.928-.401-1.999-.667-4.063-.864-6.125z" fill="#8b7460" fill-rule="nonzero"/><g fill="none"><path d="m133.634 84.819c1.265 3.595 2.663 7.257 3.394 10.987 0 .268-.065.533-.065.799-.065.401-.136.728-.198 1.061.133-.463.198-1.061.331-1.728-.732-3.794-2.197-7.457-3.462-11.119z"/><path d="m162.73 107.455c-.067 0-.135.068-.197.068.062-.068.13-.068.197-.068z"/><path d="m163.394 106.925c-.065.065-.136.132-.198.2.065-.068.133-.133.198-.2z"/><path d="m130.638 82.225c-2.332-1.929-4.726-3.73-7.256-5.261 2.53 1.534 4.924 3.262 7.256 5.261z"/><path d="m158.001 111.451c.068.065.133.2.2.265 0-.133-.132-.197-.2-.265z"/><path d="m136.698 97.87c-.068.33-.136.601-.198.799.062-.266.13-.531.198-.799z"/><path d="m126.908 134.355c-1.533 2.53-2.526 4.989-3.063 7.256.537-2.329 1.53-4.726 3.063-7.256.534-.87 1-1.663 1.466-2.465-.466.734-.932 1.598-1.466 2.465 0-.065 0-.065 0 0z"/><path d="m133.634 84.819c.068-.197.198-.33.265-.533-.132.2-.197.336-.265.533.599.534 1.2 1.068 1.799 1.599-.602-.531-1.2-1.065-1.799-1.599z"/><path d="m119.785 74.9c-.133-.064-.266-.135-.333-.2.132.068.203.133.333.2z"/><path d="m120.318 75.169c-.132-.068-.265-.204-.401-.269.068.133.269.198.401.269z"/><path d="m123.582 83.221v.732z"/><path d="m162.129 116.711c.133.138.265.333.401.466-.133-.133-.268-.33-.401-.466z"/><path d="m123.582 86.353c0 1.064-.067 2.128-.132 3.128.065-1 .132-2.064.132-3.128z"/><path d="m123.181 76.832c-.33-.201-1.329-.734-2.196-1.265.867.466 1.798.996 2.196 1.265z"/><path d="m120.917 75.499c-.201-.133-.398-.268-.602-.33.201.132.401.265.602.33z"/><path d="m165.458 101.199v-.398.265c0-.065 0 .065 0 .133z"/><path d="m149.079 100.6c.067.136.197.198.265.33.003-.062-.13-.194-.265-.33z"/><path d="m135.433 86.418c1.329 1.197 2.659 2.465 3.927 3.729-1.333-1.264-2.595-2.532-3.927-3.729z"/><path d="m161.462 94.007c.266 0 .466.062.732.133-.263-.065-.531-.133-.732-.133z"/><path d="m157.603 99.002c0 .136-.068.2-.068.33 0-.13.068-.197.068-.33z"/><path d="m162.397 94.208c.136.064.333.132.466.268-.133-.068-.333-.204-.466-.268z"/><path d="m163.93 95.54c.065.062.133.136.133.198-.071-.065-.071-.136-.133-.198z"/><path d="m165.39 99.468v-.136z"/><path d="m165.39 102.396v.065c0 .005 0 .005 0-.065z"/><path d="m158.803 95.738c.065-.062.13-.136.13-.198 0 .062-.065.133-.13.198z"/><path d="m160.731 94.14c.198-.065.466-.133.734-.133-.268 0-.533.068-.734.133z"/><path d="m142.954 93.874c-.598-.669-1.264-1.265-1.863-1.928.666.596 1.265 1.262 1.863 1.928z"/><path d="m161.462 72.17v9.259l-3.529 16.311v.133-.068l3.529-16.312z"/><path d="m146.283 97.404c-.333-.33-.663-.731-.996-1.065.398.398.663.729.996 1.065z"/><path d="m164.992 97.805c.065.135.065.265.133.401 0-.204-.065-.271-.133-.401z"/><path d="m157.402 100.868v-.2c.068.13 0 .13 0 .2z"/><path d="m160.065 94.476c.136-.139.333-.201.466-.268-.201.064-.333.2-.466.268z"/><path d="m159.334 95.074c.132-.2.333-.33.53-.465-.2.129-.398.333-.53.465z"/><path d="m165.125 103.664c-.065.33-.198.669-.334.996.136-.265.269-.595.334-.996z"/><path d="m43.288 97.805c.129-.198.33-.466.466-.667-.133.266-.334.466-.466.667z"/><path d="m163.061 94.609c.197.135.333.333.533.465-.2-.132-.333-.336-.533-.465z"/><path d="m46.151 93.677c.067-.065.132-.201.197-.268-.065.067-.13.132-.197.268z"/><path d="m114.262 100.868v-.065c0-.005 0-.005 0 .065z"/><path d="m38.959 105.792c-.2.334-.333.735-.534 1.068.201-.333.334-.67.534-1.068z"/><path d="m36.762 110.92c0 .065-.067.136-.067.2 0-.067.067-.135.067-.2z"/><path d="m52.608 86.087c.198-.2.401-.404.601-.604-.203.203-.401.404-.601.604z"/><path d="m49.079 89.947c.197-.268.401-.469.601-.734-.2.265-.401.469-.601.734z"/><path d="m164.992 97.805-3.53-16.315z"/><path d="m102.943 110.118c-.068 0-.133-.065-.198-.065.062.065.13.065.198.065z"/><path d="m103.874 110.251c-.067 0-.132 0-.197-.062.065.062.13.062.197.062z"/><path d="m41.159 101.467c-.201.401-.466.799-.667 1.262.198-.398.398-.799.667-1.262z"/><path d="m102.008 109.853c-.065 0-.065 0-.133-.065.068.065.068.065.133.065z"/><path d="m95.683 98.737c0 .064-.067.135-.067.2.067-.068.067-.136.067-.2z"/><path d="m95.952 97.87c0 .065-.068.065-.068.135 0-.003.068-.07.068-.135z"/><path d="m96.285 97.068s0 .065-.068.065z"/><path d="m103.075 91.678c-.067 0 0 0 0 0z"/><path d="m104.939 70.572v-.401z"/><path d="m104.939 69.973v-.268z"/><path d="m104.939 71.84v-.938z"/><path d="m164.19 105.925c-.13.133-.198.33-.33.466.132-.13.268-.333.33-.466z"/><path d="m95.551 99.733c0 .068 0 .136-.065.201 0-.068 0-.133.065-.201z"/><path d="m164.727 104.928c-.068.198-.198.466-.334.667.133-.201.201-.401.334-.667z"/></g><path d="m128.571 160.32c-.33-.327-.598-.731-.931-1.132.333.466.666.799.931 1.132z" fill="#525353" fill-rule="nonzero"/><path d="m130.904 162.652s-.997-.799-2.333-2.264c1.336 1.462 2.333 2.264 2.333 2.264z" fill="#aa9678" fill-rule="nonzero"/><path d="m166.522 77.766c-.864-1.197-1.731-2.267-2.595-3.199-.401-.466-.799-.864-1.2-1.262-.132-.138-.333-.268-.465-.404-.266-.265-.534-.465-.8-.666v9.32l3.53 16.312c.065.135.065.268.133.404l2.465 2.795h2.6v-.731c0-7.726-1.265-15.118-3.529-22.044-.071-.265-.071-.392-.139-.525z" fill="#bbbcbd" fill-rule="nonzero"/><path d="m165.39 99.403v.127c.068.401.068.799.068 1.2v.398c0 .398 0 .799-.068 1.132v.127c-.065.401-.133.799-.198 1.2l2.462-2.733-2.462-2.796c.065.478.133.876.198 1.345z" fill="#676a6a" fill-rule="nonzero"/><path d="m165.325 102.528v-.132c.065-.401.065-.799.065-1.13v-.533c0-.401 0-.799-.065-1.2v-.133c-.065-.404-.133-.799-.2-1.2-.065-.136-.065-.265-.133-.401-.265-.796-.534-1.463-.932-2.064-.065-.062-.133-.133-.133-.198-.132-.132-.197-.268-.333-.401-.132-.197-.333-.33-.53-.463-.065-.067-.133-.067-.198-.135-.133-.136-.333-.201-.466-.266-.068 0-.136-.067-.197-.067-.201-.065-.466-.136-.735-.136-.268 0-.465.068-.734.136-.068 0-.135.067-.197.067-.136.062-.334.133-.466.266-.068.062-.133.062-.198.135-.197.133-.333.328-.533.463-.133.133-.198.269-.334.401-.065.065-.132.136-.132.198-.401.601-.735 1.268-.932 2.064v.065c-.133.333-.198.731-.265 1.132 0 .136-.065.203-.065.333-.065.466-.065.867-.133 1.33v.201c0 3.794 1.799 6.926 3.992 6.926.401 0 .735-.136 1.133-.266.067 0 .135-.068.197-.068.136-.061.265-.197.401-.265.065-.062.133-.133.198-.197.197-.133.333-.331.533-.534.133-.133.198-.266.331-.466.064-.133.132-.201.197-.33.133-.198.198-.401.333-.667.068-.065.068-.138.136-.268.133-.33.198-.666.333-1-.006-.395.062-.796.062-1.197zm-3.727-2.527c-.867 0-1.533-1.132-1.533-2.597 0-1.401.666-2.595 1.533-2.595.864 0 1.533 1.132 1.533 2.595-.003 1.465-.734 2.597-1.533 2.597z" fill-rule="nonzero"/><ellipse cx="161.598" cy="97.404" fill="#fffeee" rx="1.533" ry="2.598"/><path d="m157.868 97.805c.266-.799.531-1.463.932-2.064.065-.062.13-.136.13-.198.132-.135.2-.268.333-.401.133-.197.333-.33.531-.466.067-.064.135-.064.197-.132.136-.136.333-.204.466-.269.068 0 .133-.064.198-.064.197-.065.465-.133.734-.133.268 0 .466.062.734.133.065 0 .133.064.198.064.132.062.333.136.465.269.068.062.133.062.201.132.197.136.333.331.531.466.132.133.197.266.333.401.068.062.132.136.132.198.401.601.735 1.268.932 2.064l-3.529-16.312z" fill="#909393" fill-rule="nonzero"/><path d="m114.262 100.798c0-.331 0-.67-.068-.997-.065-.333-.065-.602-.132-.932-.065-.333-.133-.601-.266-.867-.068-.265-.2-.601-.333-.867-.133-.265-.265-.53-.401-.799-.466-.799-.997-1.533-1.663-2.131-.864-.799-1.863-1.463-2.931-1.932-.533-.197-1.132-.398-1.663-.53h-.068c-.601-.133-1.2-.201-1.798-.201-.602 0-1.2.068-1.799.201h-.068c-.598.135-1.132.268-1.663.465h-.067c-.531.198-1.065.463-1.531.8-.466.333-.931.669-1.332 1.064h-.065c-.667.669-1.265 1.398-1.731 2.197-.133.265-.265.533-.398.799 0 0 0 .065-.068.065-.133.265-.198.465-.265.731 0 .065-.068.065-.068.135-.065.266-.133.466-.198.732 0 .065-.065.135-.065.2-.067.266-.067.466-.135.731 0 .062 0 .136-.068.198 0 .333-.065.669-.065 1 0 .601.065 1.197.198 1.795v.065c.135.602.265 1.132.533 1.734.466 1.061 1.133 2.064 1.932 2.928.663.666 1.397 1.265 2.196 1.73.266.133.534.266.799.401h.068c.266.136.531.198.734.266.065 0 .065 0 .133.068.265.062.466.129.731.197.068 0 .136.062.198.062.265.065.466.065.734.136.065 0 .133 0 .198.065.333 0 .666.062.999.062 1.33 0 2.527-.266 3.659-.729.534-.268 1.065-.533 1.598-.867.997-.669 1.864-1.533 2.53-2.529.333-.534.599-1.065.864-1.599.466-1.132.734-2.394.734-3.659v-.068zm-9.391-1.13c-1.928 0-3.529-1.601-3.529-3.529s1.598-3.527 3.529-3.527 3.529 1.599 3.529 3.527-1.595 3.529-3.529 3.529z" fill-rule="nonzero"/><circle cx="104.871" cy="96.139" fill="#fffeee" r="3.529"/><g fill-rule="nonzero"><path d="m98.346 94.075 6.522-19.903v-4.661c-3.594-.732-7.321-1.133-11.119-1.133-1.262 0-2.53.065-3.798.133-.197 0-.333 0-.53.065-6.526.466-12.918 2.194-18.842 4.927-5.059 2.329-9.854 5.393-14.049 8.99-1.133.997-2.265 1.999-3.326 3.061-.201.197-.401.401-.602.601-.997.997-1.996 2.064-2.931 3.129-.2.268-.401.465-.598.731-.932 1.132-1.864 2.264-2.731 3.396-.065.065-.132.201-.197.266-.799 1.132-1.598 2.267-2.397 3.464-.133.201-.334.463-.466.667-.602.999-1.2 1.999-1.731 2.998h29.562z" fill="#bbbcbd"/><path d="m123.311 91.878c.068-.799.136-1.536.136-2.329.065-1.068.065-2.064.133-3.131v-3.197c0-2.129-.133-4.193-.198-6.327 0 0-.068 0-.068-.062 0 0-.065 0-.065-.065-.398-.198-1.332-.731-2.196-1.265h-.065c-.201-.136-.401-.268-.602-.33-.132-.065-.265-.201-.398-.266l-.068-.067c-.132-.065-.265-.133-.33-.198-1.333-.731-2.73-1.333-4.128-1.931-3.329-1.398-7.858-2.657-10.452-3.261v4.664l6.457 19.841c.666.602 1.262 1.33 1.663 2.132.133.268.265.533.398.799.136.262.265.528.333.864.068.268.198.598.265.867.065.333.133.601.133.928.065.334.065.67.065 1v.068h7.858c.534-2.875.932-5.803 1.129-8.734 0 .136 0 .065 0 0z" fill="#e2dddb"/><path d="m114.324 129.16c1.799-1.796 3.459-3.462 5.06-5.125.931-.999 1.863-1.999 2.795-2.928 6.59-7.126 11.384-13.849 14.312-22.435.065-.201.133-.469.198-.799v-.133c.068-.333.132-.669.197-1.067 0-.269.068-.531.068-.799-.734-3.73-2.132-7.39-3.394-10.987v.068l-.064-.068c-.266-.197-.466-.463-.735-.666-.734-.669-1.465-1.333-2.264-1.999-2.33-1.929-4.727-3.73-7.257-5.26.133 2.131.198 4.195.198 6.324v3.199c0 1.062-.068 2.129-.136 3.129-.067.799-.067 1.533-.132 2.329v.265c-.266 2.931-.599 5.859-1.133 8.722l-.931 4.394c-1.932 7.857-5.859 14.913-9.055 22.238-.864 1.928-1.666 3.927-2.397 5.923-.065.201-.133.401-.198.602 1-1.068 1.928-2.002 2.595-2.663.875-.864 1.542-1.595 2.273-2.264z" fill="#fbb040"/><path d="m98.414 94.075c.398-.398.864-.731 1.332-1.065.466-.333 1-.598 1.534-.799h.065c.53-.197 1.064-.401 1.665-.465h.068c.599-.133 1.2-.201 1.796-.201.601 0 1.2.068 1.799.201h.064c.599.135 1.133.268 1.663.53 1.065.469 2.064 1.068 2.931 1.932l-6.457-19.841z" fill="#909393"/><path d="m96.149 104.46c-.197-.534-.398-1.133-.531-1.731v-.065c-.132-.599-.2-1.197-.2-1.796 0-.33 0-.669.068-.999 0-.065 0-.136.065-.198 0-.265.067-.463.135-.731 0-.065.068-.136.068-.201.065-.265.133-.462.198-.731 0-.065.065-.065.065-.135.067-.266.2-.531.265-.732 0 0 0-.064.065-.064.135-.266.265-.534.398-.8.466-.799 1.067-1.533 1.731-2.196l-27.298 6.725h-.065l27.029 6.587c-.861-.802-1.527-1.801-1.993-2.933z" fill="#676a6a"/><path d="m157.535 99.332c0-.13.068-.262.068-.33.065-.401.133-.799.265-1.132v-.133l3.53-16.311v-9.321c-2.931-2.397-5.992-3.73-9.256-3.73-4.128 0-7.923 2.265-10.786 5.06-3.128 3.064-5.525 6.926-7.521 10.786-.068.2-.198.33-.266.531.599.533 1.2 1.067 1.796 1.601 1.333 1.194 2.662 2.462 3.93 3.73.602.598 1.197 1.194 1.796 1.795.599.667 1.265 1.265 1.863 1.929.8.866 1.599 1.66 2.333 2.529.333.331.663.732.996 1.065.932 1.067 1.864 2.064 2.796 3.131.135.133.265.266.333.33h8.055v-.2c.003-.398.003-.861.068-1.33z" fill="#e2dddb"/><path d="m36.695 111.12c0-.064.067-.135.067-.2.531-1.33 1.068-2.66 1.663-3.992.136-.401.334-.735.534-1.065.466-1.064.997-2.064 1.533-3.063.198-.401.398-.796.667-1.268.132-.198.265-.46.401-.664.598-.999 1.132-1.999 1.731-2.998.132-.201.33-.466.465-.667.735-1.2 1.534-2.332 2.398-3.464.067-.062.135-.198.197-.266.867-1.2 1.799-2.332 2.731-3.393.197-.266.401-.466.601-.735.932-1.067 1.928-2.128 2.931-3.128.197-.2.398-.401.598-.601 1.068-1.065 2.132-2.064 3.329-3.061 4.462-15.049 18.243-26.033 34.487-26.033 6.522 0 13.047 1.867 18.64 5.328 5.726 3.527 10.388 8.657 13.384 14.581 0 0 0 .065.065.065.067.132.135.265.265.466 2.53 1.533 4.927 3.328 7.256 5.26.799.666 1.534 1.33 2.265 1.999.265.197.466.466.734.666.068-.197.133-.33.265-.533 2.265-14.445 8.657-24.901 16.179-24.901 5.658 0 10.718 5.927 13.782 15.049v.065c.866.932 1.727 2.002 2.597 3.132 0 0 0 .065.068.065.068.135.068.262.133.398l-.133-.463c-9.388-27.699-35.554-47.672-66.445-47.672-38.75 0-70.108 31.363-70.108 70.107 0 7.66 1.2 14.979 3.462 21.84v-.065c.465-2.067.999-4.128 1.598-6.127.527-1.601 1.061-3.131 1.66-4.662z" fill="#525353"/><path d="m167.59 100.933-2.465 2.731c-.065.33-.198.669-.334.996 0 .065-.067.136-.135.268-.065.198-.198.466-.333.667-.065.136-.133.197-.198.333-.133.133-.198.33-.33.466-.133.197-.333.401-.534.531-.065.065-.133.135-.197.2-.133.133-.266.198-.401.266-.068 0-.133.064-.198.064-.333.198-.731.266-1.132.266-2.197 0-3.996-3.061-3.996-6.923h-8.055c1.533 1.727 2.996 3.461 4.393 5.257l.065.068c1.398 1.728 2.795 3.461 4.193 5.189.065.068.133.204.198.268 1.329 1.663 2.597 3.329 3.862 4.992.133.133.266.328.398.463 1.333 1.799 2.663 3.595 3.993 5.328v.065c2.332-6.855 3.594-14.115 3.662-21.701z" fill="#fffeee"/><path d="m89.429 68.508c.198 0 .331 0 .531-.065 1.265-.062 2.53-.133 3.798-.133 3.795 0 7.522.401 11.119 1.133v1.798-1.795c2.53.601 7.059 1.863 10.453 3.261 1.397.601 2.795 1.265 4.127 1.931.068 0 .201.062.334.198 0 0 .065 0 .065.064.135.062.265.133.401.269.2.132.401.197.598.327h.065c.867.466 1.799 1.067 2.197 1.265.067 0 .067.065.067.065l.068.065c-.068-.133-.135-.269-.265-.466 0 0 0-.065-.068-.065-2.999-5.991-7.722-11.119-13.383-14.581-5.591-3.393-12.116-5.325-18.641-5.325-16.244 0-30.028 10.987-34.486 26.033 4.26-3.665 8.99-6.726 14.049-8.99 6.054-2.789 12.511-4.455 18.971-4.989z"/></g><path d="m104.939 71.303v.401" fill="none"/><path d="m141.424 73.503c2.863-2.795 6.658-5.066 10.786-5.066 3.261 0 6.389 1.336 9.255 3.73.266.204.534.466.799.67.133.132.334.265.466.401.401.401.799.799 1.2 1.261v-.061c-3.131-9.12-8.123-15.05-13.781-15.05-7.525 0-13.914 10.388-16.179 24.901 1.861-3.863 4.323-7.726 7.454-10.786z" fill-rule="nonzero"/><path d="m74.979 165.58c.663.265 1.262.466 1.928.666 7.256 2.53 15.046 3.928 23.17 3.928 9.252 0 18.11-1.793 26.165-5.06.401-.2.864-.333 1.262-.533.666-.266 1.398-.599 2.064-.932.602-.266 1.197-.531 1.799-.864-.133 0-.266.065-.401.065-2.527.265-4.992.33-7.457-.065-14.445-2.064-17.641-9.055-17.178-16.247-1.068-.601-2.064-1.265-3.197-2.064-11.119-8.058-17.709-16.644-17.709-16.644s8.589 6.587 21.371 11.585c.266.132.534.2.799.333.599-2.067 1.333-4.063 1.929-5.794.068-.2.135-.401.197-.602.735-1.996 1.534-3.992 2.398-5.926 3.196-7.321 7.123-14.445 9.055-22.232l.931-4.396h-7.855v.064c0 1.333-.265 2.53-.734 3.663-.265.533-.534 1.132-.864 1.598-.666.999-1.53 1.866-2.53 2.53-.533.33-1.067.598-1.598.863-1.132.466-2.397.732-3.662.732-.333 0-.666 0-.999-.062-.068 0-.133 0-.201-.065-.265 0-.466-.065-.731-.136-.068 0-.133-.062-.201-.062-.265-.067-.463-.135-.734-.203-.065 0-.065 0-.133-.062-.265-.065-.533-.198-.731-.265h-.068c-.265-.136-.533-.269-.799-.401-.799-.466-1.533-1-2.199-1.731l-27.03-6.59h-29.488c-.133.2-.265.466-.401.666-.198.404-.466.799-.666 1.265-.534 1-1.065 2.064-1.534 3.064-.2.33-.333.734-.533 1.064-.602 1.333-1.133 2.663-1.663 3.992 0 .065-.068.139-.068.201-.599 1.533-1.129 3.131-1.598 4.726-.599 2-1.13 4.061-1.598 6.128 4.658 14.179 13.651 26.362 25.499 34.887.33.265.731.463 1.064.731 1.996 1.398 4.06 2.73 6.195 3.863 2.81 1.727 5.735 3.122 8.734 4.322z" fill="#fffeee" fill-rule="nonzero"/><path d="m123.379 143.743c-.133.734-.198 1.466-.198 2.197-.067 1.265.068 2.527.266 3.662.133.799.265 1.533.466 2.267.333 1.065.663 2.061 1.132 2.996.466.929.932 1.799 1.398 2.53.132.265.333.534.465.731.269.33.466.667.735.997.333.401.666.799.931 1.135 1.265 1.462 2.333 2.264 2.333 2.264v.068c0 .062 0 .133.067.198.133 0 .266-.065.401-.065 3.129-.401 6.257-1.268 9.389-2.332 1.598-.599 3.196-1.197 4.729-1.864.466-.197.932-.466 1.398-.669 16.046-7.79 29.494-21.504 29.494-21.504-20.115 9.919-39.888 9.518-53.006 7.389z" fill="#9f2255" fill-rule="nonzero"/><path d="m162.129 116.711c-1.265-1.66-2.598-3.326-3.863-4.989-.065-.065-.132-.198-.197-.265-1.398-1.734-2.796-3.465-4.193-5.193l-.068-.065c-1.465-1.798-2.928-3.529-4.393-5.263-.065-.133-.198-.197-.266-.327-.934-1.067-1.863-2.067-2.795-3.131-.333-.334-.666-.732-.996-1.065-.8-.87-1.534-1.663-2.333-2.533-.601-.666-1.265-1.262-1.863-1.925-.602-.602-1.2-1.2-1.796-1.799-1.268-1.265-2.598-2.53-3.93-3.73-.599-.533-1.197-1.064-1.796-1.598 1.262 3.662 2.727 7.321 3.459 11.119.197.997.333 1.929.465 2.863 1.799 13.112-2.464 21.702-9.122 33.021-.466.799-1 1.663-1.466 2.465-1.533 2.53-2.53 4.992-3.063 7.256-.198.735-.333 1.466-.466 2.194 13.115 2.135 32.823 2.533 52.994-7.389 0 0-3.927-5.791-9.919-13.781-1.33-1.799-2.659-3.595-3.992-5.328-.133-.204-.268-.401-.401-.537z" fill="#e2066f" fill-rule="nonzero"/><path d="m130.904 162.652s-.997-.799-2.333-2.264c-.33-.333-.598-.734-.931-1.135-.266-.331-.466-.667-.735-1-.132-.265-.333-.463-.465-.731-.466-.799-.932-1.598-1.398-2.527-.401-.932-.799-1.931-1.132-2.999-.198-.731-.401-1.465-.466-2.264-.198-1.133-.265-2.397-.265-3.665 0-.729.067-1.46.197-2.194.133-.731.265-1.463.466-2.197.599-2.264 1.533-4.658 3.063-7.256.466-.864 1-1.66 1.466-2.465 6.658-11.32 10.918-19.841 9.12-33.021-.136-.932-.266-1.928-.466-2.863-.068.666-.201 1.265-.333 1.728v.136c-.065.33-.133.598-.198.799-2.931 8.586-7.722 15.311-14.312 22.432-.867.997-1.799 1.929-2.795 2.931-1.601 1.663-3.332 3.394-5.06 5.128-.734.731-1.465 1.397-2.197 2.128-.666.67-1.598 1.598-2.597 2.66-.602 1.734-1.33 3.73-1.929 5.794-.268-.133-.533-.198-.799-.33-12.782-4.927-21.371-11.588-21.371-11.588s6.59 8.592 17.709 16.647c1.065.799 2.129 1.466 3.196 2.061-.465 7.257 2.728 14.186 17.179 16.25 2.465.33 4.927.33 7.456.062-.002-.124-.07-.192-.07-.257z" fill-rule="nonzero"/></g></svg>