<?xml version="1.0" encoding="UTF-8"?><svg id="Ebene_1" xmlns="http://www.w3.org/2000/svg" viewBox="0 0 116 116"><defs><style>.cls-1{fill:#3b1c4a;}</style></defs><path class="cls-1" d="m45.52,48.98c-.74,0-1.28.13-1.75.27v17.43c.4.13.94.27,1.61.27,3.63,0,5.18-3.03,5.18-8.95s-1.35-9.02-5.05-9.02Z"/><path class="cls-1" d="m114.72,36.13c.74-.07,1.28-.61,1.28-1.35V1.35c0-.74-.61-1.35-1.35-1.35h-38.66v5.38c0,1.15-.94,2.09-2.09,2.09s-2.09-.94-2.09-2.09V0H1.35C.61,0,0,.61,0,1.35v33.44c0,.74.54,1.28,1.28,1.35,11.51.67,20.66,10.23,20.66,21.94s-9.15,21.2-20.66,21.8c-.74.07-1.28.61-1.28,1.35v33.44c0,.74.61,1.35,1.35,1.35h70.48v-5.38c0-1.19.9-2.09,2.09-2.09s2.09.94,2.09,2.09v5.38h38.66c.74,0,1.35-.61,1.35-1.35v-33.44c0-.74-.54-1.28-1.28-1.35-11.51-.67-20.66-10.16-20.66-21.87s9.15-21.26,20.66-21.87Zm-66.85,36.74c-1.82,0-3.36-.2-4.1-.4v11.64h-10.23v-38.89c2.76-1.28,6.46-2.22,12.04-2.22,8.95,0,15.07,4.78,15.07,14.94,0,9.15-5.32,14.94-12.78,14.94Zm28.12,25.3c0,1.15-.94,2.09-2.09,2.09s-2.09-.94-2.09-2.09v-10.77c0-1.15.94-2.09,2.09-2.09s2.09.97,2.09,2.09v10.77Zm0-23.28c0,1.11-.97,2.09-2.09,2.09s-2.09-.97-2.09-2.09v-10.77c0-1.19.9-2.09,2.09-2.09s2.09.94,2.09,2.09v10.77Zm0-23.15c0,1.15-.94,2.09-2.09,2.09s-2.09-.94-2.09-2.09v-10.77c0-1.15.94-2.09,2.09-2.09s2.09.97,2.09,2.09v10.77Zm0-23.28c0,1.11-.97,2.09-2.09,2.09s-2.09-.97-2.09-2.09v-10.77c0-1.19.9-2.09,2.09-2.09s2.09.94,2.09,2.09v10.77Z"/></svg>