<svg clip-rule="evenodd" fill-rule="evenodd" stroke-linejoin="round" stroke-miterlimit="2" viewBox="0 0 200 200" xmlns="http://www.w3.org/2000/svg"><path d="m0 0h200v200h-200z" fill="none"/><g fill="#29a9df" fill-rule="nonzero"><path d="m90.337 0c11.403 13.192 24.327 24.818 37.943 36.428-34.168-4.26-60.513 32.955-40.323 65.159-20.588 3.571-35.801 14.423-43.685 33.887-7.822 19.306-4.612 37.586 7.409 54.556-3.912-1.928-7.269-4.523-10.495-7.275-16.251-13.884-26.098-31.383-29.53-52.492-.118-.724.221-1.664-.745-2.107v-19.253c1.042-.538.659-1.59.789-2.399 3.991-24.644 17.024-42.676 39.239-54.133 7.189-3.71 14.522-7.16 21.382-11.493 8.936-5.643 15.12-13.244 17.235-23.828 1.127-5.652.763-11.357.781-17.05z"/><path d="m127.564 199.674c6.24-5.27 11.874-11.094 15.455-18.533 10.349-21.502 8.073-41.671-6.682-60.427-.614-.782-1.26-1.538-1.971-2.401 22.064-8.699 31.932-24.776 29.524-48.624 2.598 2.097 4.451 4.546 6.366 6.917 8.26 10.237 14.977 21.255 17.62 34.392 3.052 15.191.158 29.503-6.598 43.108-11.001 22.151-28.674 36.892-51.656 45.524-.554.21-1.169.251-1.757.37-.1-.11-.201-.22-.301-.326z"/><path d="m126.516 155.815c.069 17.532-14.04 31.799-31.561 31.911-17.648.115-32.01-14.104-32.071-31.749-.062-17.452 14.187-31.856 31.604-31.947 17.634-.091 31.957 14.122 32.028 31.785z"/><path d="m146.897 78.224c-.026 13.407-10.848 24.087-24.388 24.061-13.54-.028-24.331-10.963-24.266-24.586.064-13.32 11.009-24.08 24.478-24.065 13.586.01 24.199 10.81 24.176 24.59z"/></g></svg>