<svg clip-rule="evenodd" fill-rule="evenodd" stroke-linejoin="round" stroke-miterlimit="2" viewBox="0 0 200 200" xmlns="http://www.w3.org/2000/svg" xmlns:xlink="http://www.w3.org/1999/xlink"><clipPath id="a"><path clip-rule="evenodd" d="m0 0h200v200h-200z"/></clipPath><path d="m0 0h200v200h-200z" fill="none"/><g clip-path="url(#a)"><path d="m196.223 91.103-87.341-87.35c-5.02-5.031-13.18-5.031-18.2 0l-18.139 18.14 23.003 23.011c5.346-1.806 11.474-.598 15.736 3.672 4.293 4.302 5.489 10.477 3.632 15.859l22.182 22.167c5.37-1.85 11.553-.654 15.835 3.635 5.988 5.989 5.988 15.68 0 21.68-5.984 5.984-15.688 5.984-21.68 0-4.501-4.517-5.617-11.131-3.321-16.68l-20.687-20.679v54.411c1.459.721 2.843 1.686 4.055 2.894 5.984 5.988 5.984 15.684 0 21.684-5.988 5.988-15.688 5.988-21.676 0-5.988-6.008-5.988-15.7 0-21.684 1.487-1.475 3.193-2.591 5.019-3.341v-54.921c-1.826-.75-3.532-1.858-5.019-3.345-4.541-4.537-5.629-11.187-3.297-16.752l-22.677-22.701-59.881 59.901c-5.023 5.035-5.023 13.192 0 18.219l87.342 87.33c5.019 5.023 13.172 5.023 18.203 0l86.939-86.935c5.003-5.023 5.003-13.184-.028-18.215z" fill="#f05133" fill-rule="nonzero"/></g></svg>