<svg clip-rule="evenodd" fill-rule="evenodd" stroke-linejoin="round" stroke-miterlimit="2" viewBox="0 0 200 200" xmlns="http://www.w3.org/2000/svg" xmlns:xlink="http://www.w3.org/1999/xlink"><clipPath id="a"><path clip-rule="evenodd" d="m0 0h200v200h-200z"/></clipPath><path d="m0 0h200v200h-200z" fill="none"/><g clip-path="url(#a)"><g fill-rule="nonzero"><path d="m109.636 14.922-5.321 21.14c7.536-14.932 19.512-26.167 33.26-36.072-10.05 11.678-19.218 23.359-24.833 35.037 9.462-13.305 22.175-20.697 36.515-25.575-19.073 16.999-34.209 35.245-45.742 53.577l-9.164-3.992c1.624-14.639 7.152-29.629 15.285-44.115z" fill="#abcd03"/><path d="m85.158 55.148 17.446 7.239c0 4.435-.36 17.964 2.415 21.956 29.012 37.364 24.129 112.267-5.876 114.189-45.701 0-63.126-31.046-63.126-59.577 0-26.018 31.19-43.316 49.816-58.691 4.733-4.141 3.909-13.289-.675-25.116z" fill="#fffcdb"/><path d="m102.609 62.126 6.29 3.209c-.592 4.137.294 13.306 4.431 15.67 18.332 11.38 35.629 23.799 42.429 36.218 24.245 43.758-16.999 84.265-52.629 80.423 19.368-14.341 24.983-43.759 17.741-75.843-2.957-12.564-7.541-23.948-15.67-36.81-3.524-6.315-2.294-14.142-2.592-22.867z" fill="#7d4698"/><path d="m99.581 61.045 13.012 1.777c-3.843 12.713 7.54 21.583 11.234 23.653 8.278 4.58 16.262 9.314 22.619 15.078 11.975 10.94 18.775 26.316 18.775 42.578 0 16.113-7.392 31.633-19.807 41.982-11.681 9.756-27.794 13.897-43.464 13.897-9.756 0-18.481-.443-27.939-3.549-21.583-7.242-37.7-25.72-39.03-47.899-1.184-17.297 2.659-30.453 16.113-44.201 6.949-7.243 20.995-15.521 30.602-22.176 4.734-3.255 9.761-12.419.149-29.716l1.922-1.478 14.241 9.541-12.022-4.957c1.036 1.478 3.843 8.133 4.435 10.054 1.33 5.467.742 10.792-.443 13.156-6.062 10.941-16.411 13.898-23.947 20.105-13.305 10.941-27.795 19.662-26.167 49.672.737 14.783 12.269 32.822 29.562 41.249 9.761 4.729 20.995 6.65 32.379 7.242 10.2.443 29.716-5.619 40.359-14.489 11.383-9.458 17.74-23.799 17.74-38.433 0-14.788-5.914-28.83-17.003-38.735-6.357-5.765-16.85-12.713-23.356-16.411-6.505-3.694-14.634-14.042-11.975-23.948z"/><path d="m95.594 82.927c-1.334 6.799-2.812 19.069-8.726 23.653-2.513 1.772-5.027 3.549-7.685 5.321-10.643 7.243-21.289 14.043-26.167 31.489-1.036 3.698-.145 7.686.741 11.383 2.658 10.643 10.199 22.176 16.113 28.975 0 .298 1.184 1.036 1.184 1.334 4.878 5.764 6.356 7.391 24.834 11.528l-.443 2.071c-11.086-2.957-20.254-5.615-26.019-12.27 0-.149-1.035-1.184-1.035-1.184-6.207-7.098-13.748-18.921-16.556-30.01-1.035-4.436-1.921-7.835-.741-12.419 5.027-18.035 15.968-25.132 27.053-32.673 2.514-1.623 5.471-3.102 7.835-5.023 4.584-3.4 7.094-13.748 9.612-22.175z"/><path d="m100.319 111.015c.149 7.686-.601 11.541 1.321 17.012 1.18 3.254 5.176 7.689 6.36 11.975 1.623 5.769 3.396 12.125 3.247 15.968 0 4.435-.278 12.709-2.199 21.579-1.466 7.33-4.841 13.62-10.523 17.185-5.814-1.196-12.642-3.242-16.675-6.696-7.835-6.799-14.776-18.17-15.662-28.076-.737-8.133 6.791-20.121 17.285-26.184 8.87-5.172 10.932-11.069 12.854-20.531-2.659 8.278-5.16 15.218-13.732 19.654-12.419 6.501-18.792 17.421-18.2 27.769.886 13.305 6.216 22.32 16.709 29.567 4.435 3.102 12.721 6.386 17.898 7.272v-.675c3.921-.737 9.002-7.181 11.532-15.902 2.22-7.834 3.094-17.86 2.945-24.221-.149-3.693-1.781-11.698-4.738-18.941-1.623-3.992-4.12-7.984-5.747-10.791-1.773-2.812-1.785-8.87-2.675-15.964z"/><path d="m99.441 140.002c.145 5.177 2.223 11.806 3.11 18.606.741 5.027.422 10.075.273 14.51-.149 5.135-1.859 14.336-4.195 18.809-2.207-1.011-3.068-2.166-4.501-4.025-1.773-2.514-2.978-5.028-4.158-7.984-.886-2.216-1.925-4.754-2.369-7.711-.592-4.435-.426-11.375 4.601-18.469 3.843-5.619 4.725-6.046 6.054-12.551-1.776 5.764-3.097 6.352-7.238 11.23-4.584 5.321-5.346 13.16-5.346 19.517 0 2.663 1.064 5.615 2.099 8.423 1.18 2.961 2.195 5.905 3.822 8.12 2.444 3.595 5.57 5.64 7.102 6.021.013 0 .025-.004.033 0 .034.009.071.029.104.034v-.17c2.87-3.197 4.592-6.373 5.176-9.574.737-3.843.907-7.694 1.35-12.279.443-3.842.124-9.019-.911-14.34-1.478-6.655-3.971-13.438-5.006-18.167z"/><path d="m99.88 76.715c.149 7.69.737 22.03 2.807 27.646.592 1.921 6.063 10.348 9.906 20.547 2.658 7.098 3.25 13.604 3.693 15.525 1.777 8.427-.443 22.618-3.399 36.073-1.479 7.242-6.506 16.261-12.27 19.81l-1.18 2.067c3.25-.145 11.234-7.98 14.042-17.741 4.733-16.555 6.654-24.241 4.435-42.573-.294-1.777-1.035-7.835-3.843-14.341-4.141-9.905-10.054-19.367-10.792-21.289-1.329-3.106-3.105-16.556-3.399-25.724z"/><path d="m102.654 66.205c-.439 7.897-.559 10.808.919 16.572 1.628 6.357 9.906 15.521 13.306 26.019 6.505 20.104 4.878 46.421.149 66.968-1.773 7.243-10.204 17.741-18.627 21.14l6.208 1.479c3.399-.149 12.12-8.278 15.524-17.591 5.467-14.635 6.502-32.081 4.286-50.413-.149-1.773-3.105-17.591-5.913-24.246-3.992-9.901-11.09-18.776-11.827-20.693-1.329-3.255-4.253-10.009-4.025-19.235z"/></g><path d="m97.954 60.644h.596v136.41h-.596z"/></g></svg>