<svg enable-background="new 0 0 400 400" height="400" viewBox="0 0 400 400" width="400" xmlns="http://www.w3.org/2000/svg"><g opacity=".3"><circle cx="388.936" cy="200" opacity=".05" r="6.107"/><circle cx="341.701" cy="247.234" opacity=".1" r="9.16"/><circle cx="294.468" cy="294.468" opacity=".12" r="12.213"/><circle cx="247.234" cy="341.703" opacity=".1" r="9.16"/><circle cx="199.999" cy="388.936" opacity=".05" r="6.107"/><circle cx="11.064" cy="200" opacity=".05" r="6.107"/><circle cx="105.532" cy="105.532" opacity=".12" r="12.213"/><circle cx="152.766" cy="58.298" opacity=".1" r="9.161"/><circle cx="200" cy="11.064" opacity=".05" r="6.107"/><circle cx="58.298" cy="152.766" opacity=".1" r="9.16"/><circle cx="341.702" cy="152.765" opacity=".1" r="9.16"/><circle cx="152.765" cy="341.702" opacity=".1" r="9.16"/><circle cx="294.468" cy="200" opacity=".12" r="10.992"/><circle cx="247.231" cy="247.233" opacity=".13" r="15.389"/><circle cx="199.999" cy="294.468" opacity=".12" r="10.992"/><circle cx="247.233" cy="58.297" opacity=".1" r="9.16"/><circle cx="105.531" cy="200" opacity=".12" r="10.992"/><circle cx="58.297" cy="247.234" opacity=".1" r="9.16"/><circle cx="199.999" cy="105.532" opacity=".12" r="10.992"/><circle cx="152.765" cy="152.766" opacity=".13" r="15.389"/><circle cx="294.467" cy="105.532" opacity=".12" r="12.214"/><circle cx="105.531" cy="294.468" opacity=".12" r="12.213"/><circle cx="152.766" cy="247.235" opacity=".13" r="15.389"/><circle cx="247.233" cy="152.767" opacity=".13" r="15.389"/><circle cx="199.999" cy="200" opacity=".15" r="18.809"/></g></svg>