<svg clip-rule="evenodd" fill-rule="evenodd" stroke-linejoin="round" stroke-miterlimit="2" viewBox="0 0 200 200" xmlns="http://www.w3.org/2000/svg" xmlns:xlink="http://www.w3.org/1999/xlink"><clipPath id="a"><path clip-rule="evenodd" d="m0 0h200v200h-200z"/></clipPath><path d="m0 0h200v200h-200z" fill="none"/><g clip-path="url(#a)" fill="#9b5d90" fill-rule="nonzero"><path d="m199.992 120.766c0-2.27.002-4.544.002-6.815 0-2.283 0-4.569-.002-6.853.002-2.271.002-4.544.002-6.815 0-2.283 0-4.569-.002-6.853.002-2.271.002-4.544.002-6.812 0-2.284 0-4.57-.002-6.851.002-2.271.002-4.544.002-6.818 0-2.28 0-4.567-.002-6.85.002-2.273.002-4.544.002-6.818.063-2.308-.399-4.546-.824-6.792-1.73-4.929-4.813-8.686-9.23-11.306-2.365-.986-4.757-1.909-7.336-2.028-1.993-.091-3.991-.074-5.986-.104-21.983.02-43.968.051-65.948.061-30.756.007-61.511-.008-92.266.007-4.256 0-8.011 1.502-11.369 4.18-3.091 2.468-4.932 5.776-6.335 9.418-.321 2.179-.751 4.344-.69 6.562v61.485c-.084 2.316.394 4.575.73 6.845 1.763 4.997 4.876 8.851 9.37 11.514 1.866.627 3.73 1.257 5.596 1.884.334.033.667.063 1.001.099 2.231-.051 4.469-.274 6.691.134h6.646c2.23-.332 4.453-.332 6.684 0h6.645c2.233-.332 4.456-.332 6.684 0h6.646c2.23-.332 4.45-.332 6.683 0h6.646c2.23-.332 4.453-.332 6.684 0h6.65c2.226-.332 4.451-.332 6.681 0 1.695-.013 3.386-.026 5.083-.048.63-.008 1.189.154 1.631.629 2.296 1.11 4.514 2.36 6.628 3.793 1.52.686 3.004 1.449 4.332 2.486.885.243 1.629.731 2.314 1.318 4.534 2.344 8.911 4.981 13.311 7.594 2.324 1.312 4.646 2.625 6.965 3.937.771-.503.121-1.024-.046-1.452-1.398-3.681-2.845-7.348-4.284-11.015-.905-2.182-1.808-4.372-2.733-6.55-.253-.584-.111-.905.503-.882 2.091.081 4.188-.268 6.264.187h6.656c2.23-.331 4.45-.331 6.683 0h6.643c2.233-.331 4.456-.331 6.681 0h6.649c2.233-.331 4.455-.331 6.686 0h6.645c2.223-.405 4.459-.19 6.689-.137.443-.045.893-.091 1.333-.131 1.75-.617 3.507-1.239 5.26-1.859 4.493-2.66 7.604-6.509 9.341-11.526.377-2.248.779-4.501.711-6.818zm-111.543-46.952c-2.104 8.5-3.442 17.138-4.468 25.837-.822 6.954-1.404 13.919-1.277 20.933.033 1.697.321 3.371.033 5.101-.886 5.26-5.493 7.336-9.686 4.17-3.398-2.569-5.821-6.082-8.142-9.637-5.144-7.88-8.49-16.602-11.178-25.617-.139-.475-.303-.943-.47-1.472-.736.501-.895 1.265-1.211 1.902-4.145 8.37-8.194 16.794-12.434 25.116-1.766 3.474-3.847 6.81-6.869 9.359-3.171 2.678-5.73 2.306-7.844-1.315-2.278-3.897-3.315-8.305-4.468-12.634-3.467-13.011-5.86-26.249-8.065-39.532-.743-4.482-1.431-8.973-2.179-13.451-.463-2.789.058-5.298 2.281-7.073 2.323-1.849 5.029-2.079 7.73-.994 2.582 1.037 3.141 3.477 3.5 5.965 2.043 14.119 4.473 28.161 7.7 42.049.104.433.25.863.478 1.649 3.181-6.223 6.173-12.065 9.162-17.904 2.723-5.343 5.454-10.689 8.191-16.03.594-1.158 1.203-2.311 2.063-3.295 3.609-4.107 8.674-3.09 10.424 2.134.973 2.911 1.284 5.989 1.949 8.98 1.495 6.656 3.22 13.238 5.571 19.636.177.508.397 1.004.901 1.464.296-2.45.561-4.903.887-7.351 1.447-11.005 3.305-21.917 7.339-32.3.695-1.793 1.52-3.545 2.415-5.247 1.881-3.579 5.647-4.828 9.05-3.093 3.619 1.851 5.043 5.796 3.225 9.526-2.034 4.195-3.495 8.598-4.608 13.124zm42.509 38.612c-4.936 7.101-11.526 10.745-20.164 9.537-9.241-1.29-14.753-7.187-17.009-16.051-3.571-14.06-.761-27.007 8.046-38.364 8.778-11.311 22.186-9.281 28.917-3.391 4.764 4.162 6.916 9.748 7.908 15.914.334 2.086.384 4.187.379 6.299 0 9.564-2.663 18.273-8.077 26.056zm48.191 3.23c-7.437 8.18-19.952 8.805-27.963 1.565-4.403-3.975-6.62-9.278-7.432-15.087-1.712-12.186.771-23.437 7.978-33.397 6.388-8.826 16.007-11.585 25.523-7.377 6.198 2.746 9.415 8.067 11.349 14.371 1.025 3.326 1.422 6.775 1.366 10.277-.2 11.188-3.27 21.348-10.821 29.648z"/><path d="m176.355 87.257c-.253 5.961-1.507 11.582-5.305 16.341-.997 1.247-2.165 2.276-3.5 3.116-3.275 2.061-6.272 1.343-8.224-2.043-1.315-2.279-2.056-4.787-2.354-7.405-.85-7.515 1.267-14.156 5.786-20.048.409-.533.875-1.029 1.355-1.497 3.753-3.636 7.844-2.926 10.13 1.798 1.482 3.052 2.244 6.292 2.112 9.738z"/><path d="m125.385 88.803c-.182 4.321-1.467 9.761-5.007 14.464-1.1 1.462-2.448 2.633-3.981 3.573-3.042 1.864-5.818 1.219-7.771-1.8-1.476-2.274-2.263-4.848-2.569-7.503-.882-7.736 1.206-14.632 6.024-20.64.627-.784 1.383-1.492 2.182-2.081 3.191-2.352 6.438-1.669 8.52 1.735 1.684 2.723 2.602 6.539 2.602 12.252z"/></g></svg>