<svg enable-background="new 0 0 900 225" height="225" viewBox="0 0 900 225" width="900" xmlns="http://www.w3.org/2000/svg" xmlns:xlink="http://www.w3.org/1999/xlink"><clipPath id="a"><path d="m0 0h900v224.314l-900 75.686z"/></clipPath><clipPath id="b"><path d="m528.729 180.992c80.437 115.826 359.771-56.172 374.771 44.822l1-235.314-904.894-.545-43.106 31.545-65 63.5c581-85 558-51.5 637.229 95.992z"/></clipPath><linearGradient id="c" gradientTransform="matrix(1.18 -.2714 .2306 1.0026 -2192.3594 -1627.0535)" gradientUnits="userSpaceOnUse" x1="1785.1699" x2="1921.1234" y1="2379.4619" y2="1683.776"><stop offset="0" stop-color="#8e7c0d"/><stop offset=".7968" stop-color="#002b1e"/></linearGradient><linearGradient id="d" gradientUnits="userSpaceOnUse" x1="344.8096" x2="730.2292" y1="-250.2979" y2="300.1389"><stop offset="0" stop-color="#005044"/><stop offset=".6193" stop-color="#002b1e"/><stop offset="1" stop-color="#02623e"/></linearGradient><linearGradient id="e" gradientUnits="userSpaceOnUse" x1="614.4316" x2="911.833" y1="97.9941" y2="97.9941"><stop offset="0" stop-color="#067b2a"/><stop offset="1" stop-color="#002b1e"/></linearGradient><linearGradient id="f" gradientTransform="matrix(1 0 0 -1 -552 -1108)" gradientUnits="userSpaceOnUse" x1="1170" x2="1170" y1="-1315.3335" y2="-1106.5"><stop offset="0" stop-color="#002b1e"/><stop offset=".3002" stop-color="#003120"/><stop offset=".6894" stop-color="#024126"/><stop offset="1" stop-color="#03532d"/></linearGradient><g clip-path="url(#a)"><path clip-path="url(#b)" d="m-23.883 304.083 977.951-71.185-359.982-701.276-622.469 478.476z" fill="url(#c)"/><path d="m903.5 178.814c-66-75.996-294.334 138.67-381.484-9.123-81.669-138.492-45.516-162.691-567.516-107.691l37.637-65.354 1132.363-3.146z" fill="url(#d)"/><path d="m614.432 201.632c101.401 22.682 230.068-170.811 297.401-123.477l-8.333-85.655z" fill="url(#e)"/><path d="m323.5 0c228 0 146.333 181.484 284.333 206.15 101.432 18.131 209.667-178.329 298.667-160.329l6-47.321z" fill="url(#f)"/></g></svg>