<svg enable-background="new 0 0 600 200" height="200" viewBox="0 0 600 200" width="600" xmlns="http://www.w3.org/2000/svg" xmlns:xlink="http://www.w3.org/1999/xlink"><linearGradient id="a" gradientUnits="userSpaceOnUse" x1="0" x2="600.0859" y1="100.3623" y2="100.3623"><stop offset="0" stop-color="#865500"/><stop offset=".533" stop-color="#004815"/><stop offset="1" stop-color="#865500"/></linearGradient><linearGradient id="b" gradientTransform="matrix(1 0 0 -1 -56 55)" gradientUnits="userSpaceOnUse" x1="356" x2="356" y1="-139.4204" y2="42.0435"><stop offset=".0037" stop-color="#004815"/><stop offset=".1386" stop-color="#003a19"/><stop offset=".3171" stop-color="#002f1d"/><stop offset=".5078" stop-color="#002b1e"/><stop offset=".6976" stop-color="#002e1d"/><stop offset=".8652" stop-color="#00391a"/><stop offset="1" stop-color="#004815"/></linearGradient><path d="m600 39v102.141c3.281.402-88-15.141-201 19.359 84.5-23 204.044-18.907 201-19.701v51.701c-54.5-27-95.118-20.338-243-.5-205 27.5-234.5-55-357 8v-141.018-51.982c19 4.5 95.5 33 165.5 10 67.619-22.218 137-21.5 203 1 147 48.5 164-39 231.5 5.5z" fill="url(#a)"/><path d="m600 140.799v35.701c-111-36-162.111 1.182-233 15.5-156 33.5-181-65.5-367-7.5v-125.518-3.482-23c197.5 24.5 282.5-70.5 379.5-10.5 135.381 54.528 137.5-8.5 220.5 1.5v15.5 102.141z" fill="#002517"/><path d="m600 140.799v24.701c-86-22-136.5.5-206 20.5-112 37-167-64-394 3.5v-129c189.5 21 158.5-87 382-31.5 166.5 51.5 145.5 4.5 218 2.5v7.5 94.5z" fill="url(#b)"/></svg>