<?xml version="1.0" encoding="utf-8"?>
<!-- Generator: Adobe Illustrator 16.0.0, SVG Export Plug-In . SVG Version: 6.00 Build 0)  -->
<!DOCTYPE svg PUBLIC "-//W3C//DTD SVG 1.1//EN" "http://www.w3.org/Graphics/SVG/1.1/DTD/svg11.dtd">
<svg version="1.1" xmlns="http://www.w3.org/2000/svg" xmlns:xlink="http://www.w3.org/1999/xlink" x="0px" y="0px"
	 width="1060.5px" height="377px" viewBox="0 0 1060.5 377" enable-background="new 0 0 1060.5 377" xml:space="preserve">
<g id="Layer_1">
</g>
<g id="Layer_2">
	<path fill="#FFFFFF" d="M201.027,252.83l-89.275-64.482l-63.6-45.938V56.734l104.119,49.544l-76.675,55.954l36.155,26.115
		l89.275-64.483c9.124-7.048,15.125-12.75,14.625-22c-0.717-13.252-9.5-18.25-17.451-21.424L39.652,5.364
		c0,0-17.5-8.033-28.834,4.967c-3.949,4.53-4.666,18.172-4.666,18.172v325.161h0.299c0.091,3.332,0.963,7.1,3.034,11.334
		c7.667,15.666,30.167,6.332,30.167,6.332l158.549-75.076c7.951-3.174,16.734-8.172,17.451-21.424
		C216.152,265.58,210.151,259.879,201.027,252.83z M48.152,319.961v-85.63l27.462-19.855l76.657,55.94L48.152,319.961z"/>
	
		<text transform="matrix(0.9 0 0 1 236.167 284.7803)" display="none" font-family="'HelveticaNeue-Bold'" font-size="256.8158" letter-spacing="-18.889">BTCPAY</text>
	<g>
		<path fill="#FFFFFF" d="M323.776,99.945c7.858,0,15.023,0.77,21.495,2.311s12.02,4.069,16.642,7.576
			c4.623,3.511,8.206,8.178,10.748,13.997c2.543,5.822,3.813,13.013,3.813,21.572c0,9.246-1.889,16.95-5.662,23.113
			c-3.778,6.164-9.361,11.216-16.758,15.152c10.17,3.254,17.758,8.948,22.767,17.078c5.006,8.134,7.512,17.937,7.512,29.406
			c0,9.245-1.617,17.25-4.854,24.012c-3.235,6.766-7.591,12.287-13.059,16.564c-5.472,4.281-11.712,7.447-18.723,9.502
			c-7.013,2.055-14.214,3.082-21.61,3.082h-79.973V99.945H323.776z M319.153,174.165c6.472,0,11.788-1.709,15.948-5.137
			c4.161-3.423,6.241-8.988,6.241-16.693c0-4.277-0.693-7.789-2.08-10.529c-1.387-2.737-3.236-4.879-5.548-6.42
			s-4.969-2.608-7.974-3.21c-3.005-0.598-6.125-0.899-9.361-0.899h-33.977v42.889H319.153z M321.233,251.98
			c3.543,0,6.935-0.386,10.17-1.156c3.236-0.771,6.086-2.055,8.553-3.852c2.463-1.798,4.428-4.237,5.894-7.319
			c1.463-3.082,2.196-7.018,2.196-11.813c0-9.414-2.392-16.135-7.166-20.16c-4.777-4.021-11.094-6.035-18.952-6.035h-39.524v50.336
			H321.233z"/>
		<path fill="#FFFFFF" d="M378.554,133.845V99.945h135.213v33.899h-49.462v149.467h-36.288V133.845H378.554z"/>
		<path fill="#FFFFFF" d="M621.243,148.869c-2.159-3.853-4.854-7.231-8.09-10.145c-3.235-2.909-6.897-5.176-10.979-6.806
			c-4.085-1.625-8.36-2.439-12.828-2.439c-8.169,0-15.104,1.757-20.802,5.265c-5.703,3.511-10.325,8.218-13.868,14.125
			c-3.547,5.907-6.125,12.628-7.743,20.16c-1.618,7.536-2.427,15.325-2.427,23.371c0,7.704,0.809,15.196,2.427,22.471
			c1.618,7.279,4.196,13.828,7.743,19.646c3.543,5.822,8.165,10.489,13.868,13.997c5.698,3.511,12.633,5.264,20.802,5.264
			c11.095,0,19.762-3.764,26.003-11.299c6.24-7.532,10.054-17.464,11.44-29.791h35.133c-0.925,11.473-3.315,21.83-7.165,31.075
			c-3.854,9.245-8.938,17.123-15.255,23.627c-6.32,6.509-13.717,11.473-22.188,14.896c-8.477,3.423-17.798,5.137-27.968,5.137
			c-12.637,0-24.002-2.44-34.092-7.319c-10.095-4.88-18.606-11.597-25.541-20.16c-6.934-8.56-12.25-18.619-15.948-30.176
			c-3.698-11.557-5.547-24.013-5.547-37.367c0-13.696,1.849-26.408,5.547-38.137c3.698-11.726,9.015-21.958,15.948-30.689
			c6.935-8.732,15.446-15.578,25.541-20.545c10.09-4.964,21.455-7.448,34.092-7.448c9.09,0,17.682,1.457,25.771,4.366
			c8.09,2.913,15.331,7.15,21.727,12.712c6.393,5.566,11.673,12.456,15.833,20.674s6.778,17.636,7.858,28.25h-35.133
			C624.786,156.958,623.399,152.721,621.243,148.869z"/>
		<path fill="#FFFFFF" d="M743.743,99.945c10.322,0,19.105,1.669,26.35,5.008c7.241,3.338,13.135,7.749,17.682,13.226
			c4.544,5.481,7.858,11.729,9.939,18.748c2.08,7.022,3.12,14.297,3.12,21.829c0,7.363-1.04,14.599-3.12,21.701
			c-2.081,7.106-5.396,13.398-9.939,18.876c-4.547,5.481-10.44,9.887-17.682,13.226c-7.244,3.339-16.027,5.008-26.35,5.008h-38.137
			v65.745h-36.288V99.945H743.743z M733.805,186.235c4.16,0,8.166-0.341,12.02-1.027c3.85-0.682,7.24-2.01,10.17-3.981
			c2.925-1.966,5.276-4.751,7.049-8.346c1.77-3.596,2.658-8.302,2.658-14.125c0-5.818-0.889-10.529-2.658-14.125
			c-1.772-3.595-4.124-6.376-7.049-8.346c-2.93-1.966-6.32-3.294-10.17-3.981c-3.854-0.682-7.859-1.027-12.02-1.027h-28.198v54.959
			H733.805z"/>
		<path fill="#FFFFFF" d="M871.33,99.945l61.713,183.366h-37.676l-12.48-40.833h-61.713l-12.943,40.833h-36.52l62.406-183.366
			H871.33z M873.41,212.43l-20.803-67.286h-0.462L830.65,212.43H873.41z"/>
		<path fill="#FFFFFF" d="M895.14,99.945h40.679l38.6,72.422l38.368-72.422h40.449l-61.251,112.999v70.368h-36.288v-71.395
			L895.14,99.945z"/>
	</g>
</g>
</svg>
