<?xml version="1.0" encoding="utf-8"?>
<!-- Generator: Adobe Illustrator 16.0.0, SVG Export Plug-In . SVG Version: 6.00 Build 0)  -->
<!DOCTYPE svg PUBLIC "-//W3C//DTD SVG 1.1//EN" "http://www.w3.org/Graphics/SVG/1.1/DTD/svg11.dtd">
<svg version="1.1" xmlns="http://www.w3.org/2000/svg" xmlns:xlink="http://www.w3.org/1999/xlink" x="0px" y="0px"
	 width="221.833px" height="381px" viewBox="0 0 221.833 381" enable-background="new 0 0 221.833 381" xml:space="preserve">
<g id="Layer_1">
</g>
<g id="Layer_2">
	<g>
		<polygon fill="none" points="152.271,108.278 48.152,58.734 48.152,144.409 75.597,164.232 		"/>
		<polygon fill="none" points="48.152,321.961 152.271,272.416 75.597,216.463 48.152,236.286 		"/>
		<path fill="#CDD932" d="M48.152,144.409V58.734l104.119,49.544l-76.675,55.954l36.155,26.115l89.275-64.483
			c9.124-7.048,15.125-12.75,14.625-22c-0.717-13.252-9.5-18.25-17.451-21.424L39.652,7.364c0,0-17.5-8.033-28.834,4.967
			c-3.949,4.53-4.666,18.172-4.666,18.172v325.161h0.299C6.086,342.32,18.458,336.09,18.458,336.09l29.694-14.129v-85.675V144.409z"
			/>
		<line fill="#51B13E" x1="48.152" y1="144.409" x2="48.152" y2="184.261"/>
		<polygon fill="#1D7A44" points="111.752,190.348 48.152,144.409 48.152,236.331 		"/>
		<path fill="#51B13E" d="M201.027,254.83l-89.275-64.482l-36.155,26.115l76.675,55.953L48.152,321.961L18.458,336.09
			c0,0-12.372,6.23-12.007,19.574c0.091,3.332,0.963,7.1,3.034,11.334c7.667,15.666,30.167,6.332,30.167,6.332l158.549-75.076
			c7.951-3.174,16.734-8.172,17.451-21.424C216.152,267.58,210.151,261.879,201.027,254.83z"/>
	</g>
</g>
</svg>
