<?xml version="1.0" encoding="utf-8"?>
<!-- Generator: Adobe Illustrator 16.0.0, SVG Export Plug-In . SVG Version: 6.00 Build 0)  -->
<!DOCTYPE svg PUBLIC "-//W3C//DTD SVG 1.1//EN" "http://www.w3.org/Graphics/SVG/1.1/DTD/svg11.dtd">
<svg version="1.1" id="Layer_1" xmlns="http://www.w3.org/2000/svg" xmlns:xlink="http://www.w3.org/1999/xlink" x="0px" y="0px"
	 width="200px" height="100px" viewBox="0 0 200 100" enable-background="new 0 0 200 100" xml:space="preserve">
<g>
	<path fill="#FFFFFF" d="M6.814,92.522c-2.755,0-4.989-2.233-4.989-4.988V12.465c0-2.754,2.234-4.988,4.989-4.988
		c2.754,0,4.988,2.234,4.988,4.988v75.069C11.803,90.289,9.569,92.522,6.814,92.522"/>
	<path fill="#FFFFFF" d="M6.817,92.524c-1.866,0-3.655-1.052-4.51-2.851c-1.18-2.489-0.121-5.464,2.368-6.646l30.08-14.275
		l-30.9-22.764c-2.217-1.635-2.691-4.757-1.056-6.976c1.633-2.218,4.758-2.692,6.975-1.057l37.613,27.711
		c1.413,1.041,2.175,2.746,2.007,4.493s-1.241,3.276-2.827,4.029L8.952,92.042C8.263,92.369,7.534,92.524,6.817,92.524"/>
	<path fill="#FFFFFF" d="M6.818,63.016c-1.531,0-3.042-0.702-4.02-2.029c-1.635-2.219-1.161-5.342,1.057-6.975l30.899-22.765
		L4.675,16.972c-2.489-1.182-3.549-4.156-2.369-6.646c1.183-2.489,4.158-3.549,6.646-2.367L46.566,25.81
		c1.585,0.751,2.659,2.283,2.827,4.028c0.168,1.747-0.594,3.453-2.007,4.495L9.773,62.044C8.882,62.699,7.845,63.016,6.818,63.016"
		/>
	<polygon fill="#1E7A44" points="11.803,39.452 11.803,60.548 26.114,50.004 	"/>
	<rect x="1.826" y="30.607" fill="#FFFFFF" width="9.977" height="24.317"/>
	<path fill="#FFFFFF" d="M11.803,12.465c0-2.754-2.234-4.988-4.988-4.988c-2.755,0-4.989,2.234-4.989,4.988v62.777h9.977V12.465z"/>
	<path fill="#FFFFFF" d="M77.785,49.396c3.197,0.907,4.966,3.801,4.966,7.429c0,5.659-3.456,8.293-8.164,8.293H63.833V34.881h9.503
		c4.622,0,8.207,2.203,8.207,7.949C81.542,45.724,80.333,48.401,77.785,49.396 M73.379,48.66c3.412,0,6.177-1.209,6.177-5.874
		c0-4.707-2.851-5.961-6.307-5.961h-7.385V48.66H73.379z M74.458,63.131c3.455,0,6.22-1.814,6.22-6.307
		c0-4.839-3.153-6.306-7.083-6.306h-7.731v12.612H74.458z"/>
	<polygon fill="#FFFFFF" points="102.969,34.881 102.969,36.739 94.633,36.739 94.633,65.117 92.602,65.117 92.602,36.739 
		84.265,36.739 84.265,34.881 	"/>
	<path fill="#FFFFFF" d="M117.18,34.449c5.141,0,9.806,2.592,11.275,8.77h-1.943c-1.383-5.054-5.443-6.912-9.374-6.912
		c-7.128,0-10.886,5.831-10.886,13.692c0,8.293,3.758,13.606,10.928,13.606c4.233,0,8.035-1.9,9.504-7.473h1.943
		c-1.296,6.437-6.393,9.417-11.447,9.417c-8.077,0-12.914-5.961-12.914-15.551C104.266,40.799,109.362,34.449,117.18,34.449"/>
	<path fill="#FFFFFF" d="M143.833,34.881c5.226,0,9.028,3.413,9.028,10.022c0,6.22-3.803,9.977-9.028,9.977h-7.949v10.237h-1.985
		V34.881H143.833z M143.833,52.894c3.845,0,6.998-2.462,6.998-8.034s-3.025-8.077-6.998-8.077h-7.949v16.111H143.833z"/>
	<path fill="#FFFFFF" d="M153.206,65.117v-0.259l12.052-30.063h0.907l11.923,30.063v0.259h-2.118l-3.411-8.726h-13.779l-3.413,8.726
		H153.206z M165.69,38.381l-6.22,16.11h12.398L165.69,38.381z"/>
	<polygon fill="#FFFFFF" points="196.016,34.881 198.176,34.881 198.176,35.184 188.759,52.548 188.759,65.117 186.686,65.117 
		186.686,52.548 177.226,35.141 177.226,34.881 179.429,34.881 183.532,42.57 187.679,50.561 187.722,50.561 191.91,42.57 	"/>
</g>
</svg>
