<svg version="1.1" id="BG_WV_NSHR_" xmlns="http://www.w3.org/2000/svg" xmlns:xlink="http://www.w3.org/1999/xlink" x="0px"
	 y="0px" width="900px" height="225px" viewBox="0 0 900 225" enable-background="new 0 0 900 225" xml:space="preserve">
<g>
	<g>
		<g>
			<g>
				<g>
					<defs>
						<polygon id="SVGID_1_" points="0,0 900,0 900,224.314 0,300 						"/>
					</defs>
					<clipPath id="SVGID_2_">
						<use xlink:href="#SVGID_1_"  overflow="visible"/>
					</clipPath>
					<g clip-path="url(#SVGID_2_)">
						<g>
							<g>
								<g>
									<g>
										<g id="Layer_3__9iI">
											<g>
												<g>
													<defs>
														<path id="SVGID_3_" d="M528.729,180.992C609.166,296.818,888.5,124.82,903.5,225.814l1-235.314L-0.394-10.045
															L-43.5,21.5l-65,63.5C472.5,0,449.5,33.5,528.729,180.992z"/>
													</defs>
													<clipPath id="SVGID_4_">
														<use xlink:href="#SVGID_3_"  overflow="visible"/>
													</clipPath>
													
														<linearGradient id="SVGID_5_" gradientUnits="userSpaceOnUse" x1="1721.5596" y1="1906.2588" x2="1857.5129" y2="1210.5739" gradientTransform="matrix(1.18 -0.2714 0.2306 1.0026 -2008.1785 -1169.8849)">
														<stop  offset="0" style="stop-color:#E7F600"/>
														<stop  offset="0.0835" style="stop-color:#E1F401"/>
														<stop  offset="0.1924" style="stop-color:#D1EF04"/>
														<stop  offset="0.3154" style="stop-color:#B6E709"/>
														<stop  offset="0.4489" style="stop-color:#90DC0F"/>
														<stop  offset="0.5907" style="stop-color:#60CE17"/>
														<stop  offset="0.7373" style="stop-color:#26BD22"/>
														<stop  offset="0.7968" style="stop-color:#0CB526"/>
													</linearGradient>
													<polygon clip-path="url(#SVGID_4_)" fill="url(#SVGID_5_)" points="-23.883,304.083 954.068,232.898 594.086,-468.378 
														-28.383,10.098 													"/>
												</g>
											</g>
											
												<linearGradient id="SVGID_6_" gradientUnits="userSpaceOnUse" x1="-771.1909" y1="2336.7021" x2="-385.7701" y2="2887.1404" gradientTransform="matrix(1 0 0 1 1116 -2587)">
												<stop  offset="0" style="stop-color:#005044"/>
												<stop  offset="0.4371" style="stop-color:#09A725"/>
												<stop  offset="0.7715" style="stop-color:#1BD926"/>
												<stop  offset="1" style="stop-color:#02623E"/>
											</linearGradient>
											<path fill="url(#SVGID_6_)" d="M903.5,178.814c-66-75.994-294.334,138.671-381.484-9.123C440.347,31.199,476.5,7-45.5,62
												L-7.863-3.354L1124.5-6.5L903.5,178.814z"/>
										</g>
										
											<linearGradient id="SVGID_7_" gradientUnits="userSpaceOnUse" x1="671.7559" y1="580.0459" x2="671.7559" y2="298.5" gradientTransform="matrix(1 0 0 1 -192 -311)">
											<stop  offset="0.1708" style="stop-color:#FFF600;stop-opacity:0.7"/>
											<stop  offset="0.3131" style="stop-color:#FBF500;stop-opacity:0.535"/>
											<stop  offset="0.4486" style="stop-color:#F0F302;stop-opacity:0.3779"/>
											<stop  offset="0.5814" style="stop-color:#DDEF04;stop-opacity:0.2239"/>
											<stop  offset="0.7117" style="stop-color:#C2E908;stop-opacity:0.0728"/>
											<stop  offset="0.7745" style="stop-color:#B2E60A;stop-opacity:0"/>
										</linearGradient>
										<path display="none" fill="url(#SVGID_7_)" d="M344.5-2.5c129,74,85.523,279.318,270.514,271.318L587.5-12.5L344.5-2.5z"
											/>
										<linearGradient id="SVGID_8_" gradientUnits="userSpaceOnUse" x1="614.4316" y1="97.9946" x2="911.833" y2="97.9946">
											<stop  offset="0" style="stop-color:#09A725"/>
											<stop  offset="0.1846" style="stop-color:#08A127"/>
											<stop  offset="0.4293" style="stop-color:#07902D"/>
											<stop  offset="0.7078" style="stop-color:#047537"/>
											<stop  offset="1" style="stop-color:#005044"/>
										</linearGradient>
										<path fill="url(#SVGID_8_)" d="M614.432,201.632C715.833,224.314,844.5,30.821,911.833,78.155L903.5-7.5L614.432,201.632z
											"/>
										
											<linearGradient id="SVGID_9_" gradientUnits="userSpaceOnUse" x1="1058" y1="-749.3335" x2="1058" y2="-540.5" gradientTransform="matrix(1 0 0 -1 -440 -542)">
											<stop  offset="0" style="stop-color:#568C05"/>
											<stop  offset="0.1169" style="stop-color:#4A920A"/>
											<stop  offset="0.4925" style="stop-color:#26A319"/>
											<stop  offset="0.8003" style="stop-color:#11AD22"/>
											<stop  offset="1" style="stop-color:#09B125"/>
										</linearGradient>
										<path fill="url(#SVGID_9_)" d="M323.5,0c228,0,146.333,181.484,284.333,206.15C709.265,224.281,817.5,27.821,906.5,45.821
											l6-47.321L323.5,0z"/>
									</g>
								</g>
							</g>
						</g>
					</g>
				</g>
			</g>
		</g>
	</g>
</g>
</svg>
