<?xml version="1.0" encoding="utf-8"?>
<!-- Generator: Adobe Illustrator 16.0.0, SVG Export Plug-In . SVG Version: 6.00 Build 0)  -->
<!DOCTYPE svg PUBLIC "-//W3C//DTD SVG 1.1//EN" "http://www.w3.org/Graphics/SVG/1.1/DTD/svg11.dtd">
<svg version="1.1" id="JHJKHKDFD________" xmlns="http://www.w3.org/2000/svg" xmlns:xlink="http://www.w3.org/1999/xlink" x="0px"
	 y="0px" width="1200px" height="300px" viewBox="0 0 1200 300" enable-background="new 0 0 1200 300" xml:space="preserve">
<g id="Layer_3__9iI">
	<g>
		<g>
			<g>
				<g>
					<g>
						<g>
							<g>
								<defs>
									<path id="SVGID_1_" d="M576.33,220.33c195.618-94.354,429.17-100.83,630.354-28.199V-9.602L-0.394-20.045l-6.109,280.291
										v21.632C-6.503,281.877,334.571,336.938,576.33,220.33z"/>
								</defs>
								<clipPath id="SVGID_2_">
									<use xlink:href="#SVGID_1_"  overflow="visible"/>
								</clipPath>
								
									<linearGradient id="SVGID_3_" gradientUnits="userSpaceOnUse" x1="393.7988" y1="1122.9238" x2="1942.9707" y2="1122.9238" gradientTransform="matrix(1.18 -0.2714 0.2306 1.0026 -1250.2871 -464.899)">
									<stop  offset="0.2032" style="stop-color:#0CB526"/>
									<stop  offset="1" style="stop-color:#E7F600"/>
								</linearGradient>
								<polygon clip-path="url(#SVGID_2_)" fill="url(#SVGID_3_)" points="-464.686,823.508 1363.328,403.023 1239.379,-135.817 
									-276.178,284.652 								"/>
							</g>
						</g>
					</g>
				</g>
			</g>
		</g>
	</g>
	
		<linearGradient id="SVGID_4_" gradientUnits="userSpaceOnUse" x1="-1232.0596" y1="1200.5039" x2="-750.4348" y2="1888.3358" gradientTransform="matrix(1 0 0 1 1612 -1474)">
		<stop  offset="0.0473" style="stop-color:#007D22"/>
		<stop  offset="0.3381" style="stop-color:#09A725"/>
		<stop  offset="1" style="stop-color:#1BD926"/>
	</linearGradient>
	<path fill="url(#SVGID_4_)" d="M1333.422,83.422C849.509,0,710.098,100.301,510.5,208.5c-215.849,117.009-515.714,71-515.714,71
		L-5.863-3.354h1347.324C1341.463-3.354,1342.957,84.818,1333.422,83.422z"/>
</g>
<g>
	<polygon opacity="0.4" fill="#E7F600" enable-background="new    " points="149.959,146.407 -2.478,244.021 -2.478,53.08 	"/>
	<polygon id="smtri1" opacity="0.4" fill="#E7F600" enable-background="new    " points="48.936,122.358 -6.236,155.884 
		-6.236,88.833 	"/>
	<polygon id="smtri3" opacity="0.2" fill="#E7F600" enable-background="new    " points="76.52,224.23 21.349,257.755 
		21.349,190.704 	"/>
	<polygon id="smtri4" opacity="0.1" fill="#DDDDDD" enable-background="new    " points="144.623,104.86 89.452,138.385 
		89.452,71.334 	"/>
</g>
</svg>
