<svg enable-background="new 0 0 900 225" height="225" viewBox="0 0 900 225" width="900" xmlns="http://www.w3.org/2000/svg" xmlns:xlink="http://www.w3.org/1999/xlink"><clipPath id="a"><path d="m0 0h902v300l-902-75.083z"/></clipPath><clipPath id="b"><path d="m1065.5 121-120-99.5-43.105-31.545-906.895.545 1 235.917c98.334-102.999 221.334 71.003 301.771-44.823 97.474-148.882 181.562-182.257 767.229-60.594z"/></clipPath><linearGradient id="c" gradientTransform="matrix(-1.18 -.2714 .2306 -1.0026 3423.5615 -1034.5253)" gradientUnits="userSpaceOnUse" x1="2181.459" x2="2317.3896" y1="-1894.1157" y2="-1198.5472"><stop offset="0" stop-color="#8e7c0d"/><stop offset=".7968" stop-color="#002b1e"/></linearGradient><linearGradient id="d" gradientTransform="matrix(-1 0 0 -1 347 -2507)" gradientUnits="userSpaceOnUse" x1="-196.0854" x2="211.2328" y1="-2237.9321" y2="-2819.6436"><stop offset="0" stop-color="#02623e"/><stop offset=".4602" stop-color="#002b1e"/><stop offset="1" stop-color="#005044"/></linearGradient><linearGradient id="e" gradientUnits="userSpaceOnUse" x1="-73.5" x2="212.5679" y1="98.4863" y2="98.4863"><stop offset="0" stop-color="#002b1e"/><stop offset="1" stop-color="#067b2a"/></linearGradient><linearGradient id="f" gradientTransform="matrix(-1 0 0 1 1903 -1188)" gradientUnits="userSpaceOnUse" x1="1655.7988" x2="1699.9355" y1="1389.8105" y2="1139.4982"><stop offset="0" stop-color="#568c05"/><stop offset="1" stop-color="#005044"/></linearGradient><linearGradient id="g" gradientUnits="userSpaceOnUse" x1="-69.0366" x2="481.1227" y1="29.8975" y2="126.9055"><stop offset="0" stop-color="#002b1e"/><stop offset=".3002" stop-color="#003120"/><stop offset=".6894" stop-color="#024126"/><stop offset="1" stop-color="#03532d"/></linearGradient><g clip-path="url(#a)"><path clip-path="url(#b)" d="m930.383 10.098-624.469-478.476-410.982 701.878 1030.951 70.583z" fill="url(#c)"/><path d="m-275.5-6.5 1195 1 16 82.5c-434-69-548.847-45.205-630.516 93.293-87.15 147.794-251.817-70.875-359.484 9.124z" fill="url(#d)"/><path d="m-54.5-7.5-19 120.917c136-46.667 184.667 111.5 286.068 88.815z" fill="url(#e)"/><path d="m-63.5-1.5-4 73.917c123.334-38.333 185.235 152.466 286.667 134.336 138-24.666 26.333-127.253 284.333-206.753z" fill="url(#f)"/><path d="m-63.5-1.5-4 73.917c123.334-38.333 185.235 152.466 286.667 134.336 138-24.666 26.333-127.253 284.333-206.753z" fill="url(#g)"/></g></svg>