<?xml version="1.0" encoding="utf-8"?>
<!-- Generator: Adobe Illustrator 16.0.0, SVG Export Plug-In . SVG Version: 6.00 Build 0)  -->
<!DOCTYPE svg PUBLIC "-//W3C//DTD SVG 1.1//EN" "http://www.w3.org/Graphics/SVG/1.1/DTD/svg11.dtd">
<svg version="1.1" id="Layer_1" xmlns="http://www.w3.org/2000/svg" xmlns:xlink="http://www.w3.org/1999/xlink" x="0px" y="0px"
	 width="339.5px" height="339.5px" viewBox="0 0 339.5 339.5" enable-background="new 0 0 339.5 339.5" xml:space="preserve">
<g>
	<g>
		<path fill="#CCCCCC" d="M253.793,121.01c41.247,0.699,74.523,34.57,73.596,74.904c-0.949,41.223-34.396,74.098-74.681,73.402
			c-41.259-0.711-74.531-34.574-73.597-74.904C180.067,153.186,213.497,120.328,253.793,121.01 M253.091,131.633
			c-35.041,0.076-63.493,28.719-63.37,63.797c0.122,34.865,28.595,63.242,63.48,63.264c35.064,0.023,63.608-28.525,63.579-63.586
			C316.751,160.051,288.161,131.559,253.091,131.633"/>
		<path fill="#FFFFFF" d="M253.091,131.633c35.07-0.074,63.66,28.418,63.689,63.475c0.029,35.059-28.515,63.609-63.579,63.586
			c-34.886-0.021-63.358-28.398-63.48-63.264C189.598,160.352,218.05,131.709,253.091,131.633 M307.972,195.324
			c0.087-30.316-24.332-54.832-54.666-54.885c-30.292-0.049-54.794,24.449-54.777,54.775c0.017,30.137,24.307,54.521,54.459,54.672
			C283.293,250.037,307.885,225.633,307.972,195.324"/>
		<path fill="#CCCCCC" d="M307.971,195.324c-0.086,30.309-24.678,54.713-54.983,54.562c-30.152-0.15-54.444-24.535-54.459-54.674
			c-0.017-30.322,24.485-54.822,54.776-54.77C283.64,140.492,308.059,165.008,307.971,195.324"/>
	</g>
	<g>
		<path fill="#CCCCCC" d="M96.793,121.01c41.247,0.699,74.523,34.57,73.596,74.904c-0.949,41.223-34.396,74.098-74.681,73.402
			c-41.259-0.711-74.531-34.574-73.597-74.904C23.067,153.186,56.497,120.328,96.793,121.01 M96.091,131.633
			c-35.041,0.076-63.493,28.719-63.37,63.797c0.122,34.865,28.595,63.242,63.48,63.264c35.064,0.023,63.608-28.525,63.579-63.586
			C159.751,160.051,131.161,131.559,96.091,131.633"/>
		<path fill="#FFFFFF" d="M96.091,131.633c35.07-0.074,63.66,28.418,63.689,63.475c0.029,35.059-28.515,63.609-63.579,63.586
			c-34.886-0.021-63.358-28.398-63.48-63.264C32.598,160.352,61.05,131.709,96.091,131.633 M150.972,195.324
			c0.087-30.316-24.332-54.832-54.666-54.885c-30.292-0.049-54.794,24.449-54.777,54.775c0.017,30.137,24.307,54.521,54.459,54.672
			C126.293,250.037,150.885,225.633,150.972,195.324"/>
		<path fill="#CCCCCC" d="M150.971,195.324c-0.086,30.309-24.678,54.713-54.983,54.562c-30.152-0.15-54.444-24.535-54.459-54.674
			c-0.017-30.322,24.485-54.822,54.776-54.77C126.64,140.492,151.059,165.008,150.971,195.324"/>
	</g>
</g>
<g>
	<defs>
		<rect id="SVGID_1_" x="-434.5" y="-221.5" width="1280" height="1024"/>
	</defs>
	<clipPath id="SVGID_2_">
		<use xlink:href="#SVGID_1_"  overflow="visible"/>
	</clipPath>
	<g clip-path="url(#SVGID_2_)">
		<defs>
			<rect id="SVGID_3_" x="-434.5" y="-221.5" width="1280" height="1024"/>
		</defs>
		<clipPath id="SVGID_4_">
			<use xlink:href="#SVGID_3_"  overflow="visible"/>
		</clipPath>
	</g>
	<g clip-path="url(#SVGID_2_)">
		<defs>
			<rect id="SVGID_5_" x="-434.5" y="-221.5" width="1280" height="1024"/>
		</defs>
		<clipPath id="SVGID_6_">
			<use xlink:href="#SVGID_5_"  overflow="visible"/>
		</clipPath>
	</g>
	<g clip-path="url(#SVGID_2_)">
		<defs>
			<rect id="SVGID_9_" x="-434.5" y="-221.5" width="1280" height="1024"/>
		</defs>
		<clipPath id="SVGID_8_">
			<use xlink:href="#SVGID_9_"  overflow="visible"/>
		</clipPath>
		<g clip-path="url(#SVGID_8_)">
			<path d="M170.51,66.098C114.184,65.145,67.457,111.073,66.119,168.7c-1.307,56.37,45.201,103.707,102.871,104.702
				c56.312,0.971,103.064-44.982,104.391-102.604C274.678,114.418,228.164,67.074,170.51,66.098"/>
			<path fill="#FFE31A" d="M170.51,66.098c57.654,0.977,104.168,48.322,102.871,104.701
				c-1.326,57.621-48.078,103.573-104.389,102.604C111.32,272.407,64.812,225.073,66.119,168.7
				C67.455,111.072,114.184,65.145,170.51,66.098 M169.527,80.947c-48.98,0.106-88.75,40.143-88.578,89.174
				c0.17,48.735,39.969,88.4,88.732,88.432c49.014,0.033,88.912-39.873,88.871-88.881C258.512,120.67,218.549,80.843,169.527,80.947
				"/>
			<path fill="#90721D" d="M169.527,80.947c49.021-0.104,88.984,39.723,89.025,88.724c0.041,49.007-39.857,88.915-88.871,88.882
				c-48.764-0.031-88.562-39.696-88.732-88.432C80.777,121.09,120.547,81.055,169.527,80.947 M246.24,169.974
				c0.121-42.374-34.012-76.643-76.412-76.716c-42.342-0.069-76.592,34.175-76.568,76.563c0.023,42.127,33.977,76.212,76.123,76.421
				C211.744,246.452,246.119,212.341,246.24,169.974"/>
			<path fill="#FFE31A" d="M246.238,169.974c-0.119,42.365-34.494,76.479-76.855,76.269c-42.146-0.209-76.102-34.296-76.123-76.423
				c-0.023-42.384,34.227-76.631,76.566-76.558C212.229,93.331,246.361,127.598,246.238,169.974 M191.256,166.562
				c10.045-4.13,13.92-11.374,13.033-20.447c-1.279-13.118-11.494-17.408-22.697-20.281c-0.184-3.577-0.354-7.012-0.537-10.686
				h-10.793c-0.207,3.549-0.395,6.763-0.582,9.977h-10.887c-0.227-3.602-0.424-6.796-0.625-10.002h-10.551
				c-0.191,3.535-0.367,6.748-0.572,10.514h-16.877v14.795c3.814,0,7.357-0.436,10.707,0.184c1.637,0.303,4.135,2.546,4.16,3.947
				c0.293,16.372,0.293,32.755,0.002,49.127c-0.025,1.42-2.494,3.716-4.107,3.998c-3.51,0.614-7.205,0.19-10.604,0.19v16.323h16.812
				c0.178,3.803,0.33,6.999,0.48,10.17h10.521c0.266-3.547,0.51-6.766,0.752-10.01h10.877c0.168,3.611,0.318,6.825,0.461,9.864
				h11.363v-10.341c13.477-1.951,25.34-5.894,27.807-21.003C211.602,179.384,203.508,171.911,191.256,166.562"/>
			<path fill="#90721D" d="M191.256,166.562c12.252,5.351,20.346,12.823,18.145,26.319c-2.467,15.11-14.33,19.053-27.807,21.005
				v10.339H170.23c-0.143-3.039-0.293-6.253-0.461-9.866h-10.877c-0.242,3.248-0.486,6.467-0.752,10.012h-10.521
				c-0.15-3.171-0.303-6.368-0.48-10.169h-16.812v-16.325c3.398,0,7.094,0.427,10.602-0.189c1.615-0.281,4.084-2.578,4.109-3.998
				c0.291-16.372,0.291-32.755-0.002-49.127c-0.025-1.403-2.523-3.645-4.158-3.945c-3.352-0.621-6.895-0.188-10.709-0.188v-14.795
				h16.877c0.205-3.766,0.379-6.978,0.572-10.514h10.551c0.201,3.208,0.398,6.4,0.625,10.002h10.887
				c0.188-3.212,0.375-6.428,0.582-9.975h10.793c0.184,3.674,0.355,7.107,0.537,10.686c11.203,2.875,21.416,7.163,22.699,20.281
				C205.176,155.187,201.301,162.435,191.256,166.562 M166.504,198.492c5.451-0.622,10.381-0.637,14.992-1.86
				c5.078-1.351,7.393-5.425,7.092-10.758c-0.287-5.081-3.596-7.851-8.016-8.815c-4.449-0.97-9.113-0.967-14.068-1.427V198.492z
				 M166.598,141.211v19.538c6.039,0.226,12.311,1.41,15.506-4.61c1.377-2.596,1.307-7.12-0.055-9.767
				C179.01,140.461,172.93,140.706,166.598,141.211"/>
			<path fill="#FFE31A" d="M166.504,198.492v-22.86c4.955,0.46,9.619,0.457,14.068,1.429c4.422,0.962,7.729,3.732,8.016,8.813
				c0.301,5.333-2.014,9.407-7.092,10.756C176.885,197.856,171.955,197.87,166.504,198.492"/>
			<path fill="#FFE31A" d="M166.598,141.211c6.332-0.505,12.412-0.75,15.451,5.161c1.361,2.646,1.432,7.171,0.055,9.767
				c-3.195,6.021-9.467,4.836-15.506,4.61V141.211z"/>
		</g>
	</g>
	<g clip-path="url(#SVGID_2_)">
		<defs>
			<rect id="SVGID_11_" x="-434.5" y="-221.5" width="1280" height="1024"/>
		</defs>
		<clipPath id="SVGID_10_">
			<use xlink:href="#SVGID_11_"  overflow="visible"/>
		</clipPath>
	</g>
</g>
</svg>
