<?xml version="1.0" encoding="utf-8"?>
<!-- Generator: Adobe Illustrator 16.0.0, SVG Export Plug-In . SVG Version: 6.00 Build 0)  -->
<!DOCTYPE svg PUBLIC "-//W3C//DTD SVG 1.1//EN" "http://www.w3.org/Graphics/SVG/1.1/DTD/svg11.dtd">
<svg version="1.1" id="Layer_1" xmlns="http://www.w3.org/2000/svg" xmlns:xlink="http://www.w3.org/1999/xlink" x="0px" y="0px"
	 width="400px" height="400px" viewBox="0 0 400 400" enable-background="new 0 0 400 400" xml:space="preserve">
<g opacity="0.3">
		<circle opacity="0.05" cx="388.936" cy="200" r="6.107"/>
		<circle opacity="0.1" cx="341.701" cy="247.234" r="9.16"/>
		<circle opacity="0.12" cx="294.468" cy="294.468" r="12.213"/>
		<circle opacity="0.1" cx="247.234" cy="341.703" r="9.16"/>
		<circle opacity="0.05" cx="199.999" cy="388.936" r="6.107"/>

		<circle opacity="0.05" cx="11.064" cy="200" r="6.107"/>
		<circle opacity="0.12" cx="105.532" cy="105.532" r="12.213"/>
		<circle opacity="0.1" cx="152.766" cy="58.298" r="9.161"/>
		<circle opacity="0.05" cx="200" cy="11.064" r="6.107"/>
		<circle opacity="0.1" cx="58.298" cy="152.766" r="9.16"/>

		<circle opacity="0.1" cx="341.702" cy="152.765" r="9.16"/>
		<circle opacity="0.1" cx="152.765" cy="341.702" r="9.16"/>
		<circle opacity="0.12" cx="294.468" cy="200" r="10.992"/>
		<circle opacity="0.13" cx="247.231" cy="247.233" r="15.389"/>
		<circle opacity="0.12" cx="199.999" cy="294.468" r="10.992"/>

		<circle opacity="0.1" cx="247.233" cy="58.297" r="9.16"/>
		<circle opacity="0.12" cx="105.531" cy="200" r="10.992"/>
		<circle opacity="0.1" cx="58.297" cy="247.234" r="9.16"/>
		<circle opacity="0.12" cx="199.999" cy="105.532" r="10.992"/>
		<circle opacity="0.13" cx="152.765" cy="152.766" r="15.389"/>

		<circle opacity="0.12" cx="294.467" cy="105.532" r="12.214"/>
		<circle opacity="0.12" cx="105.531" cy="294.468" r="12.213"/>
		<circle opacity="0.13" cx="152.766" cy="247.235" r="15.389"/>
		<circle opacity="0.13" cx="247.233" cy="152.767" r="15.389"/>
		<circle opacity="0.15" cx="199.999" cy="200" r="18.809"/>
</g>
</svg>
