<?xml version="1.0" encoding="utf-8"?>
<!-- Generator: Adobe Illustrator 25.0.1, SVG Export Plug-In . SVG Version: 6.00 Build 0)  -->
<svg version="1.1" id="Layer_1" xmlns="http://www.w3.org/2000/svg" xmlns:xlink="http://www.w3.org/1999/xlink" x="0px" y="0px"
	 viewBox="0 0 1600 477" style="enable-background:new 0 0 1600 477;" xml:space="preserve">
<style type="text/css">
	.st0{fill-rule:evenodd;clip-rule:evenodd;}
	.st1{fill:#FFFFFF;}
	.st2{fill-rule:evenodd;clip-rule:evenodd;fill:#FFFFFF;}
</style>
<g>
	<g>
		<g>
			<path d="M574.2,371.7c3.1-5,7-8.8,11.8-11.4c4.8-2.7,10.1-4,15.8-4c6,0,11.4,1.1,16.1,3.3c4.7,2.2,8.8,5.3,12.1,9.4
				c3.3,4.1,5.9,8.9,7.7,14.6c1.8,5.7,2.7,11.9,2.7,18.8c0,6.3-0.9,12.3-2.6,17.9c-1.8,5.6-4.3,10.5-7.6,14.7
				c-3.3,4.2-7.3,7.5-12,9.8c-4.7,2.4-9.9,3.6-15.7,3.6c-7.2,0-13.2-1.4-17.8-4.2c-4.6-2.8-8.1-6.3-10.5-10.6v12.9h-13.9V327.8h13.9
				V371.7z M599.6,368.1c-7.7,0-13.9,2.9-18.7,8.8c-4.8,5.9-7.2,14.5-7.2,25.9c0,5.7,0.7,10.6,2,14.8c1.4,4.2,3.2,7.7,5.5,10.5
				c2.3,2.8,5.1,4.8,8.2,6.2c3.2,1.4,6.5,2,10.2,2c8,0,14.5-3.1,19.3-9.2c4.9-6.1,7.3-14.4,7.3-24.8c0-10.6-2.2-19-6.7-25.2
				C615.1,371.2,608.5,368.1,599.6,368.1z"/>
			<path d="M697.3,451.2c-1.2,3.7-2.6,7.1-4.1,10.3c-1.5,3.1-3.3,5.8-5.6,8.1c-2.3,2.3-5,4-8.2,5.3c-3.2,1.2-7.2,1.9-11.8,1.9
				c-3.8,0-7.1-0.3-9.8-1v-10.9c1.6,0.2,2.8,0.3,3.7,0.3h3.6c3.3,0,6-0.4,8.1-1.2c2.1-0.8,3.9-2,5.3-3.5c1.4-1.5,2.6-3.5,3.5-5.9
				c0.9-2.4,1.8-5.1,2.7-8.1h-4.6L649,358.1h15.1l25.6,77.5l23.2-77.5h14.4L697.3,451.2z"/>
			<path d="M797,433.6h55.3v12.9h-69.4V327.8H797V433.6z"/>
			<path d="M875,325.4c2.5,0,4.6,0.9,6.4,2.6c1.8,1.8,2.7,3.9,2.7,6.4c0,2.6-0.9,4.8-2.7,6.5c-1.8,1.8-4,2.6-6.4,2.6
				c-2.6,0-4.8-0.9-6.6-2.6c-1.8-1.7-2.7-3.9-2.7-6.5c0-2.5,0.9-4.6,2.7-6.4C870.2,326.3,872.4,325.4,875,325.4z M881.9,446.5H868
				v-88.3h13.9V446.5z"/>
			<path d="M982.5,364.8c-3.3,0-6,0.3-8.2,0.8c-2.2,0.5-4.3,1.4-6.2,2.8c1.9,2.4,3.4,5,4.3,7.9c1,2.9,1.4,5.9,1.4,9.1
				c0,4.3-0.9,8.1-2.5,11.5c-1.7,3.4-4.1,6.3-7.2,8.7s-6.9,4.3-11.3,5.6c-4.4,1.3-9.3,1.9-14.8,1.9c-3.3,0-6.5-0.3-9.6-0.9
				c-3.1-0.6-6.1-1.5-8.9-2.8c-1.1,1.1-2.1,2.3-2.8,3.6c-0.7,1.3-1.1,2.6-1.1,3.8c0,2.9,0.9,5.1,2.8,6.6c1.9,1.5,4.9,2.2,9.2,2.2
				h18.5c6.3,0,11.7,0.7,16.1,1.9c4.4,1.3,8,3.1,10.7,5.3c2.7,2.2,4.7,4.8,5.9,7.9c1.2,3.1,1.9,6.3,1.9,9.7
				c0,7.9-3.6,14.3-10.9,19.1c-7.3,4.8-17.4,7.2-30.3,7.2c-7.4,0-13.6-0.6-18.7-1.9c-5.1-1.2-9.3-2.9-12.5-5.1
				c-3.2-2.2-5.5-4.7-6.9-7.5c-1.4-2.9-2.1-6-2.1-9.4c0-8,4.6-14.2,13.7-18.7c-6.4-3.1-9.7-7.9-9.7-14.4c0-5.3,3-10.1,9-14.4
				c-3.2-2.4-5.7-5.2-7.5-8.6c-1.8-3.3-2.7-7.1-2.7-11.4c0-3.8,0.7-7.5,2.2-11c1.5-3.5,3.7-6.6,6.7-9.2c3-2.7,6.7-4.8,11.1-6.4
				c4.4-1.6,9.5-2.4,15.4-2.4c4.8,0,9,0.5,12.7,1.4c3.7,1,7.1,2.3,10,4c4.6-6.2,12-9.3,22-9.3V364.8z M923,437
				c-4.2,2.3-7,4.5-8.5,6.8c-1.5,2.3-2.2,4.7-2.2,7.3c0,4.5,2,8.1,6.1,10.8c4.1,2.7,11.2,4.1,21.4,4.1c9,0,15.9-1.4,20.5-4.1
				c4.6-2.7,7-6.4,7-11c0-2.3-0.4-4.3-1.2-6c-0.8-1.7-2.1-3.2-4.1-4.4c-1.9-1.2-4.5-2.1-7.7-2.6c-3.2-0.6-7.3-0.8-12.1-0.8H923z
				 M938.1,366.8c-7.3,0-12.9,1.7-16.6,5.1c-3.7,3.4-5.6,7.7-5.6,13.1c0,5.5,1.9,9.9,5.8,13.1c3.8,3.2,9.2,4.7,16.1,4.7
				c7.2,0,12.8-1.6,16.6-4.7c3.8-3.1,5.8-7.5,5.8-13.1c0-5.4-1.8-9.8-5.3-13.1C951.2,368.5,945.6,366.8,938.1,366.8z"/>
			<path d="M1011.1,371.7c2.9-4.9,6.8-8.6,11.5-11.4c4.8-2.7,10-4.1,15.8-4.1c9.9,0,17.5,3,22.6,9c5.1,6,7.7,14.3,7.7,24.9v56.3
				h-13.9v-52.9c0-3.7-0.3-7.2-0.9-10.3c-0.6-3.2-1.7-5.8-3.1-8.1c-1.5-2.2-3.4-3.9-5.9-5.2c-2.5-1.2-5.6-1.9-9.3-1.9
				c-3.4,0-6.6,0.7-9.5,2c-2.9,1.4-5.5,3.3-7.7,5.8c-2.2,2.5-4,5.5-5.3,9.2c-1.3,3.6-2,7.7-2,12.2v49.2h-13.9V327.8h13.9V371.7z"/>
			<path d="M1109,358.1h24.8v10.7H1109v54.1c0,4.3,0.9,7.7,2.7,10.1c1.8,2.4,5.3,3.6,10.3,3.6c2.6,0,5.1-0.2,7.6-0.7
				c2.5-0.4,4.7-1,6.6-1.5v11.2c-2.3,0.8-4.8,1.4-7.7,1.9c-2.9,0.5-6,0.8-9.2,0.8c-4.6,0-8.5-0.6-11.5-1.8c-3.1-1.2-5.5-2.8-7.5-4.9
				c-1.9-2.1-3.3-4.6-4.1-7.5c-0.8-2.9-1.2-6-1.2-9.4v-55.9h-12.6v-10.7h12.6v-23.6h13.9V358.1z"/>
			<path d="M1183.9,356.3c7.8,0,14.5,1.2,20.2,3.5c5.7,2.3,10.5,5.5,14.6,9.4l-8.3,8.3c-3.4-3-7.3-5.4-11.7-7.1
				c-4.4-1.7-9.3-2.5-14.8-2.5c-6.4,0-11.4,1.2-14.8,3.6c-3.4,2.4-5.2,5.4-5.2,9.2c0,2,0.4,3.8,1.2,5.3c0.8,1.5,2.1,2.8,4,3.9
				s4.3,2.1,7.4,2.9c3.1,0.8,6.9,1.5,11.5,2.2c5.4,0.9,10.2,2,14.2,3.3c4.1,1.3,7.5,3,10.3,5.1c2.8,2.1,4.9,4.6,6.4,7.6
				c1.4,3,2.1,6.6,2.1,10.9c0,3.8-0.8,7.4-2.4,10.6c-1.6,3.2-4,6-7.1,8.4c-3.2,2.4-7.1,4.2-11.7,5.6c-4.6,1.4-10,2-16.1,2
				c-8.5,0-16.1-1.3-22.7-4c-6.7-2.7-12.2-6.4-16.6-11.1l9-8.8c3.6,4,8,7,13.1,9.1c5.1,2.1,10.8,3.1,16.9,3.1c8,0,13.9-1.4,17.7-4.1
				c3.8-2.7,5.7-6.2,5.7-10.3c0-2.1-0.4-4-1.1-5.7c-0.7-1.6-2.1-3.1-4.1-4.3c-2-1.2-4.7-2.3-8.1-3.3c-3.4-1-7.7-1.8-13.1-2.6
				c-10.6-1.7-18.4-4.6-23.2-8.7c-4.9-4.1-7.3-9.6-7.3-16.4c0-3.8,0.8-7.3,2.5-10.3c1.6-3.1,3.9-5.7,6.9-7.8c2.9-2.2,6.5-3.8,10.7-5
				C1174.2,356.9,1178.8,356.3,1183.9,356.3z"/>
			<path d="M1280.2,356.3c5.9,0,11.2,1.1,15.9,3.4c4.7,2.3,8.8,5.4,12,9.4c3.3,4,5.8,8.8,7.6,14.4c1.8,5.6,2.7,11.7,2.7,18.2
				c0,6.4-0.8,12.5-2.5,18.2c-1.7,5.7-4.2,10.7-7.5,14.8c-3.3,4.2-7.4,7.5-12.1,9.9s-10.2,3.6-16.3,3.6c-6.6,0-12.2-1.3-16.9-4
				c-4.7-2.7-8.3-6.2-10.9-10.8v40.2h-13.7V358.1h13.7v13.2c3-4.7,7-8.4,11.9-11.1C1269,357.6,1274.3,356.3,1280.2,356.3z
				 M1278,368.1c-7.8,0-14.1,2.9-18.9,8.7c-4.8,5.8-7.2,14.3-7.2,25.5c0,5.9,0.7,11,2,15.3c1.4,4.3,3.2,7.8,5.5,10.6
				c2.3,2.8,5,4.8,8.1,6.2c3.1,1.4,6.5,2,10.1,2c8,0,14.5-3.1,19.3-9.2c4.9-6.1,7.3-14.6,7.3-25.6c0-5-0.6-9.5-1.7-13.6
				c-1.1-4.1-2.8-7.7-5-10.6c-2.2-2.9-5-5.2-8.2-6.9C1286.1,369,1282.3,368.1,1278,368.1z"/>
			<path d="M1373.5,356.3c6.3,0,11.9,1.2,16.8,3.6s9,5.7,12.3,9.8c3.3,4.1,5.9,9,7.5,14.6c1.7,5.6,2.5,11.5,2.5,17.7v3.2h-65.8
				c0.2,9.9,2.8,17.7,7.6,23.1c4.9,5.5,11.8,8.2,20.7,8.2c6,0,11-1.3,15.2-3.9c4.1-2.6,7.4-6,9.9-10.2l11.5,6.3
				c-4,6.2-9,11.1-15.2,14.5c-6.2,3.4-13.5,5.2-22,5.2c-6.8,0-12.8-1.2-18.1-3.6c-5.3-2.4-9.7-5.7-13.2-9.8c-3.6-4.1-6.2-9-8.1-14.7
				c-1.8-5.7-2.7-11.7-2.7-18.1c0-6.4,0.9-12.5,2.6-18.1c1.8-5.6,4.3-10.5,7.7-14.6c3.4-4.1,7.6-7.4,12.7-9.7
				C1360.8,357.5,1366.7,356.3,1373.5,356.3z M1373.1,367.8c-7.9,0-14.1,2.5-18.6,7.4c-4.5,4.9-7,11.4-7.5,19.4h51.2
				c-0.6-8.1-3-14.6-7.2-19.5C1386.8,370.2,1380.8,367.8,1373.1,367.8z"/>
			<path d="M1467.1,356.3c6.3,0,11.9,1.2,16.8,3.6s9,5.7,12.3,9.8c3.3,4.1,5.9,9,7.5,14.6c1.7,5.6,2.5,11.5,2.5,17.7v3.2h-65.8
				c0.2,9.9,2.8,17.7,7.6,23.1c4.9,5.5,11.8,8.2,20.7,8.2c6,0,11-1.3,15.2-3.9c4.1-2.6,7.4-6,9.9-10.2l11.5,6.3
				c-4,6.2-9,11.1-15.2,14.5c-6.2,3.4-13.5,5.2-22,5.2c-6.8,0-12.8-1.2-18.1-3.6s-9.7-5.7-13.2-9.8c-3.6-4.1-6.2-9-8.1-14.7
				c-1.8-5.7-2.7-11.7-2.7-18.1c0-6.4,0.9-12.5,2.6-18.1c1.8-5.6,4.3-10.5,7.7-14.6c3.4-4.1,7.6-7.4,12.7-9.7
				C1454.4,357.5,1460.3,356.3,1467.1,356.3z M1466.7,367.8c-7.9,0-14.1,2.5-18.6,7.4c-4.5,4.9-7,11.4-7.5,19.4h51.2
				c-0.6-8.1-3-14.6-7.2-19.5C1480.4,370.2,1474.4,367.8,1466.7,367.8z"/>
			<path d="M1600,446.5h-13.9v-13.6c-2.9,4.9-6.9,8.6-11.8,11.4c-4.9,2.7-10.3,4.1-16.2,4.1c-6,0-11.4-1.1-16.1-3.4
				c-4.7-2.3-8.8-5.4-12-9.4c-3.3-4-5.8-8.8-7.6-14.4c-1.7-5.6-2.6-11.7-2.6-18.4c0-6.7,0.9-12.8,2.7-18.5s4.4-10.6,7.7-14.8
				c3.3-4.2,7.4-7.4,12.2-9.7s10.2-3.5,16.2-3.5c6.7,0,12.3,1.3,16.8,4c4.5,2.7,8.1,6.1,10.7,10.4v-42.9h13.9V446.5z M1560.7,368.1
				c-8.5,0-15,3.1-19.6,9.2c-4.6,6.1-6.9,14.5-6.9,25.1c0,10.6,2.2,19,6.5,25c4.3,6,10.9,9.1,19.8,9.1c7.7,0,14-2.9,18.8-8.6
				c4.9-5.8,7.3-14.4,7.3-25.8c0-5.7-0.7-10.6-2-14.8c-1.4-4.2-3.2-7.8-5.5-10.6c-2.3-2.8-5.1-4.9-8.2-6.4
				C1567.7,368.9,1564.3,368.1,1560.7,368.1z"/>
		</g>
	</g>
	<g>
		<path class="st0" d="M345.1,0H101.6C45.5,0,0,45.5,0,101.6v243.6c0,56.1,45.5,101.6,101.6,101.6h243.6
			c56.1,0,101.6-45.5,101.6-101.6V101.6C446.7,45.5,401.2,0,345.1,0z M279.3,120.2c11.1,0,20.2,9,20.2,20.2c0,11.1-9,20.2-20.2,20.2
			s-20.2-9-20.2-20.2S268.2,120.2,279.3,120.2z M279.3,177.1c11.1,0,20.2,9,20.2,20.2c0,11.1-9,20.2-20.2,20.2s-20.2-9-20.2-20.2
			C259.1,186.1,268.2,177.1,279.3,177.1z M222.5,120.2c11.1,0,20.2,9,20.2,20.2c0,11.1-9,20.2-20.2,20.2s-20.2-9-20.2-20.2
			S211.4,120.2,222.5,120.2z M222.5,177.1c11.1,0,20.2,9,20.2,20.2c0,11.1-9,20.2-20.2,20.2s-20.2-9-20.2-20.2
			C202.3,186.1,211.4,177.1,222.5,177.1z M165.7,120.2c11.1,0,20.2,9,20.2,20.2c0,11.1-9,20.2-20.2,20.2c-11.1,0-20.2-9-20.2-20.2
			S154.6,120.2,165.7,120.2z M165.7,177.1c11.1,0,20.2,9,20.2,20.2c0,11.1-9,20.2-20.2,20.2c-11.1,0-20.2-9-20.2-20.2
			C145.5,186.1,154.6,177.1,165.7,177.1z M111.1,390c-21.3,0-38.5-17.3-38.5-38.5c0-21.3,17.3-38.6,38.5-38.6
			c21.3,0,38.6,17.3,38.6,38.6C149.7,372.8,132.4,390,111.1,390z M333.8,391.7c-21.3,0-38.5-17.3-38.5-38.5
			c0-21.3,17.3-38.6,38.5-38.6c21.3,0,38.6,17.3,38.6,38.6C372.4,374.5,355.1,391.7,333.8,391.7z M401.6,78.2l-39.8,148.4
			c-10.6,39.6-44.2,64.5-85.2,64.5h-26.3c-8.7,0-21.3-4.7-26.5-9.6c-0.9-0.8-2.2-0.8-3.1,0c-5.2,4.9-17.8,9.6-26.5,9.6h-28.9
			c-39.7,0-69.8-22.6-81.9-60.5L49.5,124.4c-0.7-2.1-0.3-4.4,1-6.2c1.3-1.8,3.3-2.8,5.6-2.8l6.5,0c15.6,0.1,29.3,10.1,34,25
			l24.9,78.2c6.7,21.2,28.3,35.4,50.5,35.4l9.7,0c10,0,17-5.1,21.2-9.7c2.2-2.4,5.3-3.8,8.5-3.8l21.7,0c3.1,0,6.1,1.2,8.1,3.5
			c4.1,4.5,11.4,10,21.5,10l9.2,0c22.9,0,45.2-15.5,51.2-37.6l32.3-120.2c4.2-15.6,18.4-26.6,34.6-26.6h5.7c0.5,0,1.1,0.1,1.6,0.3
			C400.8,71.4,402.4,75,401.6,78.2z"/>
		<path class="st0" d="M333.8,339.4c-7.6,0-13.8,6.2-13.8,13.8s6.2,13.8,13.8,13.8c7.6,0,13.8-6.2,13.8-13.8
			C347.7,345.6,341.5,339.4,333.8,339.4z"/>
		<path class="st0" d="M111.1,337.6c-7.6,0-13.8,6.2-13.8,13.8s6.2,13.8,13.8,13.8c7.6,0,13.8-6.2,13.8-13.8
			C124.9,343.8,118.7,337.6,111.1,337.6z"/>
	</g>
	<g>
		<g>
			<path d="M972.8,217.1c-7.1,0-14.9-0.3-18.3,5.9c-10.8,19.5-35.5,25.7-55.8,25.7c-40.3,0-71-32.8-71-73s30.6-73,71-73
				c17.9,0,41.2,3.5,55.1,24.4c3.9,5.9,11.7,4.6,18.8,4.6c10,0,7.6-11.9,3.7-17.8c-20.1-30.5-53.3-36.9-77.5-36.9
				c-54.5,0-98.9,44.3-98.9,98.7s44.4,98.7,98.9,98.7c35.3,0,65.6-15.2,79.2-39.8C981.3,228.4,983.3,217.1,972.8,217.1z"/>
			<path d="M1344.3,82c-7.1,0-12.9,3.1-12.9,10.2v170.4c0,7.1,5.8,9.3,12.9,9.3c7.1,0,12.9-2.2,12.9-9.3V92.2
				C1357.1,85.1,1351.4,82,1344.3,82z"/>
			<path d="M1344.3,0c-9,0-16.3,7.3-16.3,16.3s7.3,16.3,16.3,16.3c9,0,16.3-7.3,16.3-16.3C1360.6,7.3,1353.3,0,1344.3,0z"/>
			<path d="M1271.4,83c-0.3,0-0.8,0-0.8,0c0,0-12.1,0-15.8,9.2c-3.5,8.9-22.9,69.8-43.4,129.1c-0.7,1.9-1.5,3.8-2.2,5.7l-44-110.6
				c-2-4.7-4.9-8.3-8.7-10.4c-2.2-1.3-4.6-2.2-7.7-2.2c0,0,0,0-0.1,0s0,0-0.1,0c-3,0-5.5,0.9-7.7,2.2c-3.8,2.1-6.7,5.7-8.7,10.4
				l-44,110.6c-0.7-1.9-1.5-3.8-2.2-5.7c-20.6-59.8-39.8-120.2-43.4-129.1c-3.7-9.2-16.3-9.2-16.6-9.2c-6.5,0.1-9.1,1.8-8.9,6
				c0,1,0,2,0.4,3.2c1,3.8,31.8,97.6,56.9,168.8c1.6,4.6,5.2,11.2,13.5,11.2c5.5,0,9.6-3.7,11.1-7.4l47.1-120
				c0.5-1.1,1.5-1.6,2.5-1.7c1,0,2,0.6,2.5,1.7l47.1,120c1.5,3.8,5.9,7.4,11.1,7.4c8.5,0,12-6.6,13.5-11.2
				c23.5-71.5,55.9-165.1,56.9-168.8c0.3-1.2,0.4-2.3,0.4-3.2C1280.4,84.8,1277.9,83.1,1271.4,83z"/>
			<path d="M560.3,261.4c0,6,4.8,10.8,10.8,10.8h191.6c6.9,0,9.9-6,9.9-13.4c0-7.4-3-13.4-9.9-13.4H594c-2.8,0-5.1-2.3-5.1-5.1
				v-95.5h147.5c6.9,0,9.9-6,9.9-13.4s-3-13.4-9.9-13.4H588.9V32.2c0-3,2.4-5.4,5.4-5.4h168.5c6.9,0,9.9-6,9.9-13.4S769.6,0,762.7,0
				H571.1c-6,0-10.8,4.8-10.8,10.8V261.4z"/>
			<path d="M1587.1,0c-7.1,0-12.9,3.1-12.9,10.2v99c-14.6-23.9-42.9-32.1-67.8-32.1c-54.5,0-98.8,44.3-98.8,98.6
				s44.3,98.6,98.8,98.6c21.3,0,54.4-10.6,67.8-33.8v21.7c0,0,0,0.1,0,0.1c0,0.3,0,0.4,0.1,0.4c0.3,6.6,5.9,8.8,12.8,8.8
				c7.1,0,12.9-2.2,12.9-9.3v-27V26.2v-16C1600,3.1,1594.2,0,1587.1,0z M1506.5,248.7c-40.3,0-70.6-32.7-70.6-73s30.3-73,70.6-73
				c23.4,0,67.4,14,67.8,66.1v11.8C1573.9,232,1527.6,248.7,1506.5,248.7z"/>
		</g>
	</g>
</g>
</svg>
