<?xml version="1.0" encoding="utf-8"?>
<!-- Generator: Adobe Illustrator 16.0.0, SVG Export Plug-In . SVG Version: 6.00 Build 0)  -->
<!DOCTYPE svg PUBLIC "-//W3C//DTD SVG 1.1//EN" "http://www.w3.org/Graphics/SVG/1.1/DTD/svg11.dtd">
<svg version="1.1" id="Layer_1" xmlns="http://www.w3.org/2000/svg" xmlns:xlink="http://www.w3.org/1999/xlink" x="0px" y="0px"
	 width="1000px" height="127.5px" viewBox="0 0 1000 127.5" enable-background="new 0 0 1000 127.5" xml:space="preserve">
<g id="Layer_3">
	<g>
		
			<linearGradient id="SVGID_1_" gradientUnits="userSpaceOnUse" x1="-1609.5029" y1="-193.4219" x2="-1609.5029" y2="-192.7349" gradientTransform="matrix(1 0 0 -1 2104 -105)">
			<stop  offset="0" style="stop-color:#0CA626"/>
			<stop  offset="0.2647" style="stop-color:#0CB526"/>
		</linearGradient>
		<path fill="url(#SVGID_1_)" d="M494.5,88.072C491.975,89.273,497.016,86.894,494.5,88.072L494.5,88.072z"/>
		
			<linearGradient id="SVGID_2_" gradientUnits="userSpaceOnUse" x1="-1604" y1="-229.4932" x2="-1604" y2="-104.7476" gradientTransform="matrix(1 0 0 -1 2104 -105)">
			<stop  offset="0" style="stop-color:#0C5E24"/>
			<stop  offset="0.609" style="stop-color:#0C5A24"/>
			<stop  offset="0.9463" style="stop-color:#0C5424"/>
		</linearGradient>
		<path fill="url(#SVGID_2_)" d="M1053.25-0.252H-53.25v115.301c0,0,16.31-1.021,45.5-6.332v3.04
			c100.009-1.415,320.25,40.792,502.25-21.136C733.538,1.705,905.559,43.823,1005.25,44.69v13.125c30.959-4.625,48-34.693,48-34.693
			V-0.252z"/>
	</g>
	<polygon opacity="0.15" enable-background="new    " points="87.636,53.986 28.443,96.776 28.443,11.193 	"/>
	<polygon id="smtri2" fill="#F2F2F2" enable-background="new    " points="960.75,65.479 986.25,49.983 986.25,79.835 	"/>
	<polygon id="smtri4" opacity="0.15" fill="#1A1A1A" enable-background="new    " points="78.886,81.135 53.146,96.776 
		53.146,65.495 	"/>
</g>
</svg>
