<svg clip-rule="evenodd" fill-rule="evenodd" stroke-linejoin="round" stroke-miterlimit="2" viewBox="0 0 200 200" xmlns="http://www.w3.org/2000/svg"><path d="m0 0h200v200h-200z" fill="none"/><g fill="#f16322" fill-rule="nonzero"><path d="m186.551 149.974c-6.356 3.662-12.708 7.323-19.048 10.984-1.687.975-3.383 1.954-5.07 2.929-.615.36-.631.352-.631-.332-.008-.946-.004-1.917-.004-2.871 0-31.883 0-63.77.008-95.657 0-.483-.102-.77-.569-1.036-10.267-5.902-20.514-11.836-30.769-17.745-9.985-5.767-19.965-11.521-29.946-17.316-.446-.254-.77-.262-1.224-.012-6.488 3.768-12.979 7.519-19.474 11.262-9.952 5.738-19.904 11.471-29.852 17.209-3.817 2.204-7.617 4.423-11.434 6.618-.365.213-.52.426-.52.873.024 10.062.028 20.121.037 30.179.004 2.322.012 4.669.024 6.999.017 6.123.053 12.245.066 18.364.016 11.43.02 22.869.037 34.307.004 2.916.016 5.832.028 8.748v.811c-8.309-4.812-16.537-9.563-24.761-14.314v-99.989c1.041-.606 2.085-1.213 3.125-1.811 6.799-3.919 13.601-7.838 20.399-11.762 5.226-3.014 10.46-6.053 15.694-9.075 7.679-4.431 15.362-8.854 23.037-13.286 6.569-3.792 13.122-7.588 19.683-11.377 1.527-.884 3.034-1.789 4.554-2.674h.376c-.008.127.107.16.193.213 3.051 1.773 6.102 3.53 9.161 5.299 7.032 4.059 14.072 8.109 21.092 12.176 6.577 3.805 13.15 7.622 19.727 11.418 9.023 5.218 18.057 10.423 27.088 15.624 2.985 1.72 5.979 3.428 8.96 5.14.013 33.357.013 66.731.013 100.104z"/><path d="m99.805 199.971c-.978-.77-2.113-1.294-3.173-1.925-8.838-5.119-17.685-10.23-26.535-15.345-2.232-1.278-4.451-2.592-6.696-3.846-.446-.254-.573-.544-.573-1.028.012-29.724.008-59.457.008-89.169 0-3.158.004-6.332-.016-9.489-.008-.426.114-.672.491-.897 7.564-4.35 15.108-8.728 22.668-13.085.492-.283.996-.569 1.516-.848.131.315.073.586.073.848.004 32.788.004 65.572-.008 98.36 0 .52.131.806.598 1.073 3.817 2.158 7.605 4.349 11.414 6.54.295.176.532.184.84.004 3.845-2.261 7.715-4.509 11.573-6.741.238-.135.344-.262.32-.536-.017-.168-.004-.336-.004-.5v-99.04c.765.266 1.359.709 1.994 1.077 7.466 4.305 14.928 8.617 22.402 12.913.418.238.446.52.446.918-.004 21.476-.004 42.948-.004 64.425 0 11.385-.008 22.778.017 34.184 0 .537-.189.795-.635 1.053-7.286 4.193-14.58 8.408-21.866 12.618-4.693 2.711-9.386 5.414-14.08 8.125-.147.086-.385.094-.413.34-.107-.029-.23-.029-.357-.029z"/></g></svg>