<?xml version="1.0" encoding="utf-8"?>
<!-- Generator: Adobe Illustrator 16.0.0, SVG Export Plug-In . SVG Version: 6.00 Build 0)  -->
<!DOCTYPE svg PUBLIC "-//W3C//DTD SVG 1.1//EN" "http://www.w3.org/Graphics/SVG/1.1/DTD/svg11.dtd">
<svg version="1.1" id="Layer_1" xmlns="http://www.w3.org/2000/svg" xmlns:xlink="http://www.w3.org/1999/xlink" x="0px" y="0px"
	 width="500px" height="500px" viewBox="0 0 500 500" enable-background="new 0 0 500 500" xml:space="preserve" >
<g>
	<g>
		<path fill-rule="evenodd" clip-rule="evenodd" fill="#2285B1" d="M145.729,395.557c3.811-8.605,4.603-17.994,6.815-27.004
			c3.183-12.953,5.508-26.115,8.321-39.162c2.952-13.684,6.041-27.336,8.906-41.041c1.279-6.115,2.397-12.32,4.146-18.352
			c1.738-0.742,3.573-0.693,5.409-0.691c30.987,0.035,61.975-0.01,92.961,0.043c2.771,0.004,5.732-0.541,8.073,1.684
			c0.79,2.645,1.58,5.289,2.37,7.932c1.655,2.412,2.839,4.934,1.855,7.961c2.011,13.617,5.617,26.904,8.416,40.359
			c2.065,9.928,4.459,19.787,6.707,29.678c1.686,2.406,2.867,4.93,1.86,7.965c0.237,5.182,1.701,10.105,3.141,15.035
			c1.685,2.406,2.865,4.93,1.861,7.965c-0.565,2.848,1.185,5.355,1.19,8.119c-1.332,3.33-4.397,3.127-7.111,3.285
			c-14.223,0.822-28.399,2.219-42.609,3.184c-1.999,0.135-3.869,0.943-5.874,1.012c-0.632-0.047-1.151-0.314-1.559-0.801
			c-5.964-23.195-11.942-46.389-17.876-69.592c-0.954-3.732-2.626-7.268-2.9-11.195c-0.112-1.602-0.867-3.672-2.294-3.91
			c-2.335-0.389-2.111,2.219-2.478,3.607c-3.605,13.678-6.836,27.457-10.639,41.078c-3.747,13.422-6.181,27.197-10.918,40.346
			c-16.877-1.244-33.726-2.852-50.621-3.867C150.125,399.027,147.163,398.631,145.729,395.557z"/>
		<path fill-rule="evenodd" clip-rule="evenodd" fill="#34BE87" d="M280.362,271.033c-33.388-0.033-66.775-0.059-100.163-0.117
			c-2.12-0.002-4.351,0.498-6.279-0.918c1.631-8.406,2.702-16.973,5.015-25.187c4.568-16.229,9.287-32.523,20.363-45.889
			c4.23-5.104,10.162-7.899,15.909-10.879c8.71-0.085,17.424-3.379,26.13,0.027c18.448,8.98,36.979,17.796,55.321,26.989
			c18.279,9.161,36.363,18.714,54.55,28.063c2.762,1.42,5.613,2.666,8.423,3.992c0.923,1.338,1.02,2.776,0.467,4.265
			c-3.689,9.941-7.324,19.906-11.256,29.756c-0.308,0.771-0.805,1.449-1.724,1.623c-8.837-1.119-17.079-4.463-25.583-6.828
			c-2.545,1.178-4.08-0.91-5.972-1.846c-8.343-2.383-16.686-4.768-25.028-7.15c-2.812,1.311-4.919-0.99-7.288-1.633
			c-3.104-0.842-2.419,1.143-2.681,2.633C280.498,268.969,280.431,270.002,280.362,271.033z"/>
		<path fill-rule="evenodd" clip-rule="evenodd" fill="#FEAF44" d="M241.337,188.071c-8.712-0.836-17.428,2.253-26.134-0.028
			c-17.286-3.528-30.647-12.803-40.207-27.583c-1.951-3.016-4.352-5.85-4.626-9.68c0.332-2.064,2.066-1.958,3.472-2.07
			c16.349-1.313,25.2-11.33,30.174-25.879c1.025-3.001,1.674-6.101,2.35-9.195c0.456-2.089,0.713-4.335,2.878-5.577
			c9.542-2.671,19.445-2.364,29.169-3.515c13.042-1.543,26.168-2.328,39.225-3.8c2.605-0.294,5.332-0.863,7.599,1.202
			c2.296,6.794,3.793,13.754,4.131,20.924c0.09,1.896,0.42,3.069,2.656,3.299c1.422,0.146,2.846,0.895,4.135,1.612
			c4.785,2.664,7.942,8.575,6.925,12.748c-1.202,4.932-7.314,9.69-12.9,8.992c-3.328-0.416-3.907,0.938-4.593,3.339
			c-1.136,3.978-2.333,7.954-5.063,11.224c-2.391-1.031-4.655-0.881-7.184-0.04c-8.902,2.959-15.636,0.489-21.074-7.383
			c-0.282-0.409-0.5-0.864-0.808-1.256c-0.608-0.773-1.305-1.826-2.368-1.104c-1.01,0.687-0.357,1.813-0.022,2.723
			c2.546,6.905,13.073,12.435,20.94,11.276c2.862-0.422,5.547-2.322,8.619-1.171c-7.308,10.979-18.355,16.126-30.516,19.497
			C245.892,187.242,243.598,187.596,241.337,188.071z"/>
		<path fill-rule="evenodd" clip-rule="evenodd" fill="#0095E6" d="M285.235,101.946c-16.817,1.479-33.637,2.927-50.449,4.451
			c-8.739,0.793-17.467,1.723-26.199,2.591c-6.063,3.365-12.904,2.356-19.378,3.239c-5.707,0.779-11.492,1.272-17.264,1.663
			c-2.087,0.141-4.346,0.873-5.78-1.51c-0.087-1.81-0.38-3.628,0.222-5.41c1.876-16.294,8.493-30.289,20.879-41.141
			c7.93-6.947,17.832-9.802,28.008-11.71c2.104-0.394,4.192-0.867,6.288-1.305c1.965-0.951,4.218,0.265,6.166-0.818
			c5.183,0.007,10.364,0.013,15.547,0.02c1.642,0.947,3.574-0.055,5.232,0.783c7.733,2.301,15.195,4.968,21.776,10.023
			c5.037,3.869,8.323,8.814,11.406,14.088c1.276,0.66,1.876,1.667,1.597,3.123c0.432,4.193,1.617,6.695,6.876,5.13
			c5.189-1.545,10.702-2.002,16.071-2.942c6.443-1.13,8.255,0.328,8.294,6.696c0.008,1.327-0.091,2.662,0.018,3.981
			c0.337,4.102-1.452,6.079-5.605,6.458C301.025,100.078,293.135,101.068,285.235,101.946z"/>
		<path fill-rule="evenodd" clip-rule="evenodd" fill="#FEDF54" d="M251.581,403.514c1.761-1.654,3.769-2.406,6.261-2.57
			c14.608-0.963,29.206-2.088,43.805-3.191c2.136-0.16,4.329-0.24,6.117-1.705c6.414-1.607,12.646-3.836,19.244-4.84
			c13.486-2.053,21.96,4.131,23.512,17.609c0.507,4.404,0.92,8.709,0.492,13.268c-1.366,14.531-15.206,23.922-29.069,24.838
			c-0.495,0.033-0.985,0.139-1.478,0.209c-5.627,0.438-11.253,0.529-16.877-0.045c-9.609-0.793-19.124-1.973-28.38-4.955
			c-10.819-3.488-17.938-10.312-20.742-21.445c-0.993-3.943-2.05-7.871-3.078-11.807
			C250.975,407.074,250.667,405.271,251.581,403.514z"/>
		<path fill-rule="evenodd" clip-rule="evenodd" fill="#FEDF54" d="M145.729,395.557c6.478,3.383,13.665,2.293,20.522,3.064
			c10.396,1.17,20.869,1.684,31.318,2.326c2.268,0.141,4.217,0.676,5.936,2.113c1.604,7.732-1.933,14.559-4.416,21.334
			c-4.123,11.248-13.271,16.941-24.702,19.223c-7.582,1.512-15.159,3.086-22.913,3.488c-5.625,0.512-11.251,0.502-16.877,0.006
			c-5.521-0.115-10.558-1.824-15.625-3.988c-9.092-3.881-12.989-11.166-14.62-20.254c-0.492-3.955-0.479-7.91-0.01-11.865
			c0.207-1.969,0.151-4.01,0.663-5.896c2.816-10.379,7.931-14.225,18.943-14.131C131.49,391.041,138.607,393.371,145.729,395.557z"
			/>
		<path fill-rule="evenodd" clip-rule="evenodd" fill="#00B7C0" d="M166.319,111.682c4.951,2.541,9.888-0.02,14.792-0.236
			c9.177-0.405,18.319-1.596,27.477-2.458c-1.216,8.282-3.194,16.348-7.43,23.657c-6.097,10.521-15.092,16.61-27.394,17.486
			c-1.141,0.081-2.263,0.426-3.394,0.648c-3.475-6.172-4.434-12.972-4.963-19.879c-0.601-4.309-0.523-8.619-0.047-12.932
			c0.08-1.957,0.16-3.915,0.241-5.872l0.232-0.426L166.319,111.682z"/>
		<path fill-rule="evenodd" clip-rule="evenodd" fill="#FEAF44" d="M347.118,282.76c3.689-9.967,7.391-19.932,11.058-29.906
			c0.682-1.855,1.718-3.637,1.455-5.738c10.055,4.037,20.128,8.027,30.153,12.134c3.681,1.508,7.705,2.932,6.688,8.305
			c-0.795,4.197-4.006,6.246-9.729,6.232c-0.661-0.002-1.321,0.045-1.982,0.07c-1.625-0.943-3.519,0.004-5.173-0.736
			c-3.77-0.902-6.297-0.16-8.404,3.766c-2.36,4.393-7.104,6.369-12.02,6.793C355.161,284.023,350.999,284.736,347.118,282.76z"/>
		<path fill-rule="evenodd" clip-rule="evenodd" fill="#030201" d="M278.629,167.128c-10.984,4.478-20.518,2.928-27.539-4.5
			c-1.731-1.831-2.926-3.983-3.917-6.306c-0.79-1.849-0.629-3.346,1.166-4.208c1.791-0.859,3.059,0.017,4.073,1.688
			c6.257,10.306,12.17,12.463,23.057,8.016c2.99-1.222,3.854,0.452,5.057,2.265C280.367,165.393,279.635,166.346,278.629,167.128z"
			/>
		<path fill-rule="evenodd" clip-rule="evenodd" fill="#FEFEFE" d="M280.566,267.936c-1.081-1.123-1.264-2.588-1.653-4.408
			c4.121,0.768,7.951,1.783,11.622,3.408c-0.556,2.773-3.315,2.629-4.082,1.525C284.406,265.508,282.539,267.566,280.566,267.936z"
			/>
		<path fill-rule="evenodd" clip-rule="evenodd" fill="#FEFEFE" d="M284.588,286.926c-1.17-2.525-1.456-5.256-1.855-7.961
			C288.557,282.293,288.784,283.266,284.588,286.926z"/>
		<path fill-rule="evenodd" clip-rule="evenodd" fill="#FEFEFE" d="M306.573,387.928c-1.174-2.525-1.46-5.26-1.861-7.965
			C310.561,383.283,310.791,384.27,306.573,387.928z"/>
		<path fill-rule="evenodd" clip-rule="evenodd" fill="#FEFEFE" d="M301.571,364.928c-1.173-2.525-1.469-5.256-1.86-7.965
			C305.562,360.283,305.792,361.271,301.571,364.928z"/>
		<path fill-rule="evenodd" clip-rule="evenodd" fill="#FEFEFE" d="M303.588,447.086c5.626,0.016,11.252,0.029,16.877,0.045
			C314.836,448.428,309.21,448.51,303.588,447.086z"/>
		<path fill-rule="evenodd" clip-rule="evenodd" fill="#FEFEFE" d="M134.598,447.111c5.626-0.002,11.252-0.004,16.878-0.006
			C145.85,448.473,140.224,448.465,134.598,447.111z"/>
		<path fill-rule="evenodd" clip-rule="evenodd" fill="#FEFEFE" d="M315.563,274.086c2.093,0.285,4.131,0.746,5.972,1.846
			C318.594,279.127,317.809,278.885,315.563,274.086z"/>
		<path fill-rule="evenodd" clip-rule="evenodd" fill="#FEFEFE" d="M165.361,117.969c0.016,4.311,0.031,8.621,0.047,12.932
			C163.972,126.595,164.039,122.285,165.361,117.969z"/>
		<path fill-rule="evenodd" clip-rule="evenodd" fill="#FEFEFE" d="M104.343,411.004c0.003,3.955,0.007,7.91,0.01,11.865
			C103.03,418.914,103.051,414.959,104.343,411.004z"/>
		<path fill-rule="evenodd" clip-rule="evenodd" fill="#FEFEFE" d="M283.286,80.034c-0.532-1.041-1.064-2.082-1.597-3.123
			c1.516-0.995,2.593-0.206,3.152,1.086C285.373,79.226,284.146,79.6,283.286,80.034z"/>
		<path fill-rule="evenodd" clip-rule="evenodd" fill="#FEFEFE" d="M227.728,51.997c-1.945,1.105-4.081,0.773-6.166,0.818
			C223.438,51.195,225.662,52.198,227.728,51.997z"/>
		<path fill-rule="evenodd" clip-rule="evenodd" fill="#FEFEFE" d="M251.581,403.514c-0.064,1.789-0.128,3.578-0.192,5.367
			c-1.578-1.885-0.597-4.094-0.778-6.154C250.934,402.988,251.258,403.252,251.581,403.514z"/>
		<path fill-rule="evenodd" clip-rule="evenodd" fill="#FEFEFE" d="M248.507,52.799c-1.787,0.028-3.581,0.105-5.231-0.783
			C245.04,52.13,246.946,51.312,248.507,52.799z"/>
		<path fill-rule="evenodd" clip-rule="evenodd" fill="#FCFCFC" d="M379.589,273.121c1.767-0.059,3.541-0.172,5.172,0.736
			C383.018,273.754,381.147,274.529,379.589,273.121z"/>
		<path fill-rule="evenodd" clip-rule="evenodd" fill="#FEFEFE" d="M166.319,111.682c-0.253,0.113-0.492,0.252-0.718,0.415
			c0.127-1.729-0.672-3.601,0.785-5.127C166.364,108.541,166.342,110.112,166.319,111.682z"/>
		<path fill-rule="evenodd" clip-rule="evenodd" fill="#FEA42E" d="M239.53,149.563c-0.097,10.581-8.804,19.283-19.379,19.367
			c-10.603,0.086-19.739-9.079-19.609-19.67c0.12-9.816,9.929-19.446,19.678-19.319C230.359,130.074,239.622,139.486,239.53,149.563
			z"/>
		<path fill-rule="evenodd" clip-rule="evenodd" fill="#030201" d="M261.809,126.26c-3.676,0.074-6.665-2.834-6.675-6.49
			c-0.008-3.535,3.188-6.872,6.638-6.585c3.769,0.313,6.088,2.56,6.502,6.323C268.649,122.93,265.368,126.188,261.809,126.26z"/>
	</g>
</g>
</svg>
