<?xml version="1.0" encoding="utf-8"?>
<!-- Generator: Adobe Illustrator 16.0.0, SVG Export Plug-In . SVG Version: 6.00 Build 0)  -->
<!DOCTYPE svg PUBLIC "-//W3C//DTD SVG 1.1//EN" "http://www.w3.org/Graphics/SVG/1.1/DTD/svg11.dtd">
<svg version="1.1" id="Layer_1" xmlns="http://www.w3.org/2000/svg" xmlns:xlink="http://www.w3.org/1999/xlink" x="0px" y="0px"
	 width="339.5px" height="339.5px" viewBox="0 0 339.5 339.5" enable-background="new 0 0 339.5 339.5" xml:space="preserve" style="transform:rotateY(180deg)">
<g>
	<defs>
		<rect id="SVGID_1_" x="-434.5" y="-221.5" width="1280" height="1024"/>
	</defs>
	<clipPath id="SVGID_2_">
		<use xlink:href="#SVGID_1_"  overflow="visible"/>
	</clipPath>
	<g clip-path="url(#SVGID_2_)">
		<defs>
			<rect id="SVGID_3_" x="-434.5" y="-221.5" width="1280" height="1024"/>
		</defs>
		<clipPath id="SVGID_4_">
			<use xlink:href="#SVGID_3_"  overflow="visible"/>
		</clipPath>
		<path clip-path="url(#SVGID_4_)" fill="#EDB072" d="M157.7,112.307c0,27.066-24.433,49.009-54.57,49.009
			c-30.139,0-54.57-21.942-54.57-49.009c0-27.065,24.432-49.008,54.57-49.008C133.268,63.299,157.7,85.241,157.7,112.307"/>
		<path clip-path="url(#SVGID_4_)" fill="#7110AF" d="M123.946,84.514c2.771-0.178,5.176,2.131,5.371,5.156
			c0.194,3.027-1.894,5.625-4.664,5.805c-2.771,0.179-5.175-2.131-5.37-5.156C119.088,87.291,121.175,84.693,123.946,84.514"/>
		<path clip-path="url(#SVGID_4_)" fill="#8549BF" d="M129.943,66.977c-1.787-4.459-4.222-8.66-7.593-12.129
			c-0.075-0.016-0.133-0.027-0.207-0.043C88.03,67.988,55.937,71.824,51.803,72.278c-0.192,0.186-0.311,0.3-0.503,0.487
			c-0.589,4.304-1.061,10.054,1.232,14.141c0.768,1.367,2.365,2.076,3.931,1.781c7.994-1.508,15.959-3.207,23.893-5.002
			c14.575-3.295,29.419-6.719,43.335-12.242c1.212-0.481,6.268-1.942,6.485-3.301C130.24,67.745,130.093,67.35,129.943,66.977"/>
		<path clip-path="url(#SVGID_4_)" fill="#A453E5" d="M122.26,54.759c-1.906-1.946-4.036-3.696-6.263-5.313
			c-4.771-3.467-9.825-6.731-15.711-8c-8.272-1.78-16.946-0.685-24.739,2.565c-6.931,2.89-13.372,7.315-17.951,13.263
			c-3.387,4.398-5.396,9.631-6.219,15.049C52.375,72.222,86.206,68.714,122.26,54.759"/>
		<path clip-path="url(#SVGID_4_)" fill="#EDB072" d="M148.26,151.857c0,0-40.358-12.184-85.613,3.131l23.737,28.772l44.761-2.784
			L148.26,151.857z"/>
		<path clip-path="url(#SVGID_4_)" fill="#A453E5" d="M35.568,293.736c-0.495,0.544-1.103,1.023-1.727,1.614
			c-1.238,1.17-1.959,2.155-2.527,3.964c0,0-1.33,4.211-1.39,4.4c-0.394,1.247-1.337,1.89-2.541,2.324
			c-1.528,0.551-3.141,0.094-4.671,0.368c-3.492,0.623-8.709,3.23-8.323,7.445c0.407,4.44,6.974,7.171,10.611,8.317
			c8.253,2.599,17.343,2.221,25.803,1.044c7.366-1.024,8.194-8.331,9.807-14.249c1.245-4.57,2.706-9.108,3.437-13.8
			c0.229-1.467,1.196-5.009,0.102-6.226c-0.767-0.852-4.125-1.267-5.254-1.659c-3.675-1.275-7.595-0.541-11.357-0.197
			c-2.229,0.203-9.841-1.508-10.627,0.778c-0.354,1.029-0.106,2.159-0.194,3.244C36.62,292.298,36.179,293.066,35.568,293.736"/>
		<path clip-path="url(#SVGID_4_)" fill="#A453E5" d="M186.636,293.736c0.496,0.544,1.103,1.023,1.727,1.614
			c1.238,1.17,1.96,2.155,2.527,3.964c0,0,1.33,4.211,1.391,4.4c0.394,1.247,1.336,1.89,2.541,2.324
			c1.527,0.551,3.14,0.094,4.67,0.368c3.492,0.623,8.708,3.23,8.324,7.445c-0.407,4.44-6.974,7.171-10.612,8.317
			c-8.254,2.599-17.343,2.221-25.803,1.044c-7.365-1.024-8.194-8.331-9.807-14.249c-1.245-4.57-2.706-9.108-3.438-13.8
			c-0.228-1.467-1.195-5.009-0.101-6.226c0.767-0.852,4.125-1.267,5.255-1.659c3.674-1.275,7.594-0.541,11.356-0.197
			c2.229,0.203,9.841-1.508,10.627,0.778c0.354,1.029,0.107,2.159,0.194,3.244C185.584,292.298,186.025,293.066,186.636,293.736"/>
		<path clip-path="url(#SVGID_4_)" fill="#5454B2" d="M176.84,223.359c-0.131-0.746-0.74-1.299-1.469-1.334l-64.188-3.213h-0.186
			h-0.187l-64.188,3.213c-0.729,0.035-1.338,0.588-1.469,1.334l-11.742,66.907c-0.175,0.991,0.552,1.907,1.522,1.921l61.549,0.847
			c2.385,0.034,4.506-1.563,5.219-3.925l9.296-30.877l9.295,30.877c0.712,2.361,2.834,3.959,5.219,3.925l61.549-0.847
			c0.97-0.014,1.697-0.93,1.522-1.921L176.84,223.359z"/>
		<path clip-path="url(#SVGID_4_)" fill="#FF721D" d="M131.145,161.949c0,0-21.866,26.85-48.782,3.562l-10.21,59.319l78.737-1.006
			L131.145,161.949z"/>
		<path clip-path="url(#SVGID_4_)" fill="#EDB072" d="M47.625,227.468c-1.445-0.333-2.671-0.687-3.763-1.142l-3.93,27.513
			c6.011,0.79,11.069,0.479,14.944-4.616c2.977-3.915,5.079-9.892,3.206-14.712C56.427,230.25,51.75,228.415,47.625,227.468"/>
		<path clip-path="url(#SVGID_4_)" fill="#FF721D" d="M38.259,220.611c-3.755-7.973-0.254-18.189,3.924-25.345
			c1.536-2.632,3.552-5.144,5.798-7.197c1.314-1.201,2.757-2.308,4.37-3.083c3.315-1.573,6.738-0.02,9.894-1.581
			c1.734-0.856,3.132-2.267,4.375-3.748c2.765-3.3,4.971-7.226,5.448-11.505c0.282-2.532-0.047-5.089-0.375-7.616
			c-0.256-1.969-0.526-3.983-1.441-5.747c-2.355-4.537-6.664-2.634-10.659-1.998c-2.944,0.469-5.858,1.141-8.714,1.997
			c-7.931,2.38-15.468,6.243-21.706,11.726c-11.223,9.863-16.23,23.588-17.812,38.13c0,0.005-4.872,44.782,28.573,49.196
			l3.93-27.513C41.453,225.327,39.76,223.797,38.259,220.611"/>
		<path clip-path="url(#SVGID_4_)" fill="#EDB072" d="M238.861,157.221c0.924,1.543,10.226-2.047,11.237-2.775
			c4.091-2.948,5.806-7.704,5.118-12.668c-0.774-5.6-5.511-12.605-11.77-12.488c-3.153,0.059-7.113,1.09-9.796,2.784
			c-1.358,0.858-2.516,2.164-2.833,3.739c-0.166,0.83-0.095,1.688-0.022,2.531c0.186,2.156,0.396,3.496,1.294,5.426
			c0.896,1.926,1.932,3.783,3.019,5.604C236.813,152.234,237.164,154.356,238.861,157.221"/>
		<path clip-path="url(#SVGID_4_)" fill="#FF721D" d="M241.742,157.727l-94.989,20.133c-0.497,0.104-0.985-0.213-1.091-0.709
			l-5.318-25.094c-0.105-0.496,0.211-0.985,0.709-1.09l94.989-20.134c0.497-0.106,0.985,0.212,1.091,0.709l5.318,25.093
			C242.557,157.132,242.239,157.621,241.742,157.727"/>
		<path clip-path="url(#SVGID_4_)" fill="#A453E5" d="M76.988,151.869c0.202,0.638,0.268,1.327,0.445,1.973
			c0.41,1.494,1.041,2.924,1.813,4.266c1.587,2.76,3.757,5.156,6.12,7.272c3.585,3.21,7.683,5.867,11.957,8.067
			c1.204,0.62,1.776,1.986,1.438,3.297c-4.239,16.424-4.298,39.268-4.171,47.268c0.025,1.604-1.269,2.907-2.872,2.907H49.312
			c-1.689,0-3.026-1.464-2.865-3.147c3.729-39,14.806-64.239,17.773-70.428c0.444-0.926,1.348-1.531,2.371-1.606l4.723-0.349
			c1.157-0.084,2.315-0.17,3.473-0.256c0.895-0.065,1.784-0.424,2.144,0.568C76.951,151.756,76.969,151.812,76.988,151.869"/>
		<path clip-path="url(#SVGID_4_)" fill="#A453E5" d="M138.044,149.764c-0.026,0.367-0.049,0.742-0.063,0.819
			c-0.097,0.501-0.22,0.997-0.364,1.486c-0.292,0.979-0.677,1.933-1.133,2.847c-0.93,1.872-2.152,3.59-3.522,5.164
			c-2.682,3.08-5.924,5.653-9.328,7.887c-1.878,1.231-3.821,2.364-5.818,3.393c-1.203,0.619-1.775,1.986-1.437,3.297
			c4.239,16.424,4.299,39.268,4.171,47.268c-0.026,1.604,1.357,4.996,2.961,4.996c0,0,50.913-2.089,51.434-2.089
			c7.969-0.006-6.704-35.786-8.322-40.483c-3.351-9.727-7.762-18.982-12.831-27.918c-0.972-1.713-2.02-3.398-2.871-5.174
			c-0.444-0.926-1.348-1.531-2.371-1.606c-2.649-0.196-5.296-0.392-7.944-0.586c-0.758-0.056-1.739-0.298-2.471-0.066
			C138.103,149.008,138.071,149.381,138.044,149.764"/>
		<path clip-path="url(#SVGID_4_)" fill="#E56610" d="M120.405,132.976c1.577,4.872-0.305,9.845-4.202,11.106
			s-8.336-1.666-9.912-6.539c-1.577-4.871,0.305-9.844,4.202-11.105C114.391,125.177,118.829,128.104,120.405,132.976"/>
		<path clip-path="url(#SVGID_4_)" fill="#8549BF" d="M88.233,125.395c2.287-0.516,4.402-2.11,5.661-4.265
			c0.181-0.312,0.346-0.631,0.511-0.95c0.252-0.488,0.505-0.974,0.804-1.434c1.328-2.044,3.408-3.362,6.547-4.146
			c1.954-0.49,3.854-0.631,5.641-0.49c-4.842-3.09-13.01-3.232-17.374,0.238c-1.943,1.545-3.209,3.86-4.659,5.83
			c-1.035,1.407-2.227,2.719-3.609,3.68C83.465,125.323,85.92,125.915,88.233,125.395"/>
		<path clip-path="url(#SVGID_4_)" fill="#8549BF" d="M102.205,116.398c-2.655,0.665-4.385,1.73-5.442,3.359
			c-0.264,0.408-0.486,0.841-0.71,1.272c-0.179,0.349-0.36,0.697-0.558,1.035c-1.512,2.59-4.074,4.511-6.854,5.138
			c-0.69,0.155-1.394,0.232-2.091,0.232c-2.318,0-4.587-0.838-6.242-2.368c-0.09-0.082-0.156-0.179-0.207-0.283
			c-0.527,0.222-1.087,0.375-1.669,0.474c0.733,1.562,2.105,2.773,3.261,3.57c2.371,1.639,7.123,4.068,12.305,1.93
			c1.106-0.455,2.039-1.041,2.769-1.739c0.602-0.574,1.123-1.281,1.606-1.956c0.553-0.773,1.092-1.559,1.604-2.361
			c0.229-0.363,0.454-0.732,0.681-1.101c0.768-1.259,1.561-2.56,2.599-3.698c1.639-1.799,3.616-2.8,5.566-2.82
			c0.447-0.054,0.932,0.405,0.937,0.918c0.006,0.512-0.405,0.932-0.918,0.938c-1.927,0.018-3.468,1.396-4.216,2.215
			c-0.917,1.006-1.63,2.175-2.386,3.413c-0.231,0.378-0.462,0.756-0.698,1.129c-0.529,0.833-1.087,1.644-1.659,2.447
			c-0.534,0.745-1.116,1.532-1.833,2.218c-0.898,0.857-2.022,1.568-3.345,2.115c-1.587,0.654-3.247,0.979-4.937,0.979
			c-3.028,0-6.152-1.045-9.128-3.098c-0.884-0.609-1.879-1.432-2.717-2.457c0.957,1.852,2.093,4.084,2.352,4.406
			c5.853,7.281,16.408,5.8,23.38,0.968c3.963-2.747,6.253-7.062,6.883-11.794c0,0,0.517-2.88-0.785-5.121
			c-0.047-0.006-0.092,0.002-0.138-0.011C107.44,115.713,104.878,115.73,102.205,116.398"/>
		<path clip-path="url(#SVGID_4_)" fill="#7110AF" d="M107.396,114.109c-1.786-0.141-3.688,0.001-5.641,0.491
			c-3.139,0.784-5.219,2.102-6.548,4.146c-0.298,0.459-0.551,0.946-0.803,1.435c-0.165,0.319-0.33,0.639-0.511,0.95
			c-1.259,2.153-3.374,3.748-5.661,4.264c-2.312,0.521-4.769-0.072-6.479-1.536c-0.522,0.364-1.069,0.683-1.651,0.926
			c0.05,0.104,0.116,0.201,0.206,0.283c1.655,1.53,3.924,2.368,6.242,2.368c0.697,0,1.4-0.076,2.092-0.232
			c2.778-0.627,5.341-2.548,6.853-5.138c0.197-0.338,0.379-0.687,0.558-1.035c0.224-0.432,0.446-0.864,0.71-1.272
			c1.058-1.627,2.787-2.694,5.442-3.359c2.672-0.668,5.235-0.686,7.409-0.052c0.046,0.013,0.091,0.005,0.138,0.012
			c-0.234-0.403-0.508-0.791-0.875-1.132C108.435,114.815,107.93,114.449,107.396,114.109"/>
		<path clip-path="url(#SVGID_4_)" fill="#7110AF" d="M80.64,130.355c2.976,2.054,6.1,3.099,9.129,3.099
			c1.688,0,3.349-0.325,4.935-0.979c1.323-0.545,2.447-1.258,3.346-2.115c0.717-0.686,1.299-1.473,1.833-2.219
			c0.571-0.802,1.13-1.613,1.659-2.447c0.236-0.373,0.467-0.75,0.698-1.129c0.755-1.236,1.469-2.405,2.386-3.412
			c0.748-0.819,2.289-2.196,4.216-2.215c0.513-0.006,0.924-0.426,0.918-0.937c-0.005-0.515-0.489-0.972-0.937-0.918
			c-1.951,0.019-3.928,1.021-5.566,2.819c-1.038,1.138-1.831,2.438-2.599,3.697c-0.227,0.369-0.452,0.737-0.682,1.102
			c-0.511,0.803-1.05,1.588-1.603,2.361c-0.483,0.674-1.005,1.381-1.606,1.957c-0.73,0.697-1.662,1.283-2.769,1.739
			c-5.182,2.138-9.934-0.292-12.305-1.93c-1.156-0.798-2.527-2.011-3.261-3.57c-0.146,0.024-0.281,0.065-0.429,0.081
			c-0.646,0.071-1.03,0.746-0.727,1.321c0.193,0.366,0.416,0.794,0.646,1.237C78.761,128.925,79.756,129.745,80.64,130.355"/>
		<path clip-path="url(#SVGID_4_)" fill="#8549BF" d="M132.806,119.311c-2.343,0.086-4.795-0.914-6.562-2.676
			c-0.256-0.254-0.496-0.521-0.737-0.787c-0.368-0.408-0.737-0.812-1.144-1.182c-1.806-1.637-4.154-2.379-7.389-2.335
			c-2.015,0.026-3.889,0.375-5.579,0.966c3.893-4.223,11.752-6.447,16.858-4.208c2.273,0.997,4.089,2.912,5.994,4.446
			c1.36,1.096,2.848,2.061,4.43,2.636C137.397,118.023,135.176,119.225,132.806,119.311"/>
		<path clip-path="url(#SVGID_4_)" fill="#8549BF" d="M116.999,114.185c2.737-0.036,4.682,0.554,6.12,1.856
			c0.359,0.328,0.686,0.688,1.012,1.05c0.263,0.291,0.526,0.582,0.804,0.858c2.124,2.117,5.092,3.319,7.938,3.215
			c0.708-0.025,1.407-0.131,2.081-0.31c2.241-0.592,4.221-1.981,5.431-3.883c0.065-0.103,0.104-0.214,0.126-0.327
			c0.568,0.08,1.148,0.084,1.736,0.032c-0.312,1.694-1.327,3.218-2.241,4.284c-1.873,2.189-5.847,5.753-11.403,5.011
			c-1.186-0.159-2.236-0.487-3.12-0.976c-0.729-0.401-1.413-0.953-2.054-1.481c-0.731-0.606-1.453-1.226-2.152-1.873
			c-0.315-0.293-0.627-0.592-0.939-0.89c-1.065-1.021-2.164-2.076-3.458-2.911c-2.044-1.321-4.212-1.783-6.103-1.304
			c-0.446,0.062-0.798,0.629-0.671,1.127c0.126,0.496,0.631,0.795,1.127,0.67c1.868-0.475,3.71,0.464,4.643,1.064
			c1.143,0.739,2.132,1.686,3.178,2.69c0.321,0.307,0.64,0.614,0.965,0.913c0.724,0.671,1.471,1.312,2.229,1.941
			c0.707,0.586,1.471,1.197,2.339,1.678c1.088,0.599,2.356,1,3.774,1.188c1.701,0.229,3.39,0.118,5.021-0.313
			c2.929-0.774,5.682-2.582,8.034-5.328c0.698-0.816,1.451-1.863,1.999-3.07c-0.452,2.034-0.979,4.484-1.147,4.861
			c-3.798,8.535-14.382,9.799-22.356,6.91c-4.533-1.644-7.85-5.229-9.668-9.645c0,0-1.235-2.652-0.549-5.15
			c0.043-0.019,0.089-0.022,0.13-0.048C111.763,114.858,114.244,114.222,116.999,114.185"/>
		<path clip-path="url(#SVGID_4_)" fill="#7110AF" d="M111.396,113.297c1.69-0.592,3.563-0.939,5.579-0.965
			c3.234-0.045,5.583,0.697,7.389,2.334c0.406,0.369,0.775,0.774,1.144,1.182c0.241,0.267,0.481,0.533,0.736,0.787
			c1.768,1.762,4.22,2.763,6.562,2.677c2.37-0.087,4.592-1.287,5.872-3.14c0.598,0.218,1.208,0.386,1.833,0.473
			c-0.021,0.113-0.061,0.225-0.126,0.327c-1.21,1.901-3.189,3.291-5.431,3.883c-0.674,0.178-1.373,0.284-2.081,0.312
			c-2.847,0.104-5.814-1.099-7.938-3.218c-0.277-0.276-0.541-0.567-0.804-0.858c-0.326-0.359-0.651-0.721-1.012-1.049
			c-1.438-1.303-3.383-1.892-6.12-1.856c-2.755,0.037-5.236,0.675-7.176,1.842c-0.041,0.024-0.087,0.029-0.13,0.047
			c0.123-0.448,0.289-0.894,0.556-1.317C110.572,114.246,110.967,113.763,111.396,113.297"/>
		<path clip-path="url(#SVGID_4_)" fill="#7110AF" d="M141.415,122.168c-2.353,2.746-5.105,4.554-8.034,5.328
			c-1.632,0.432-3.32,0.543-5.021,0.313c-1.418-0.188-2.687-0.59-3.774-1.188c-0.868-0.48-1.632-1.093-2.339-1.678
			c-0.758-0.63-1.505-1.271-2.229-1.941c-0.325-0.299-0.644-0.606-0.965-0.914c-1.046-1.004-2.035-1.95-3.178-2.689
			c-0.933-0.602-2.774-1.539-4.643-1.064c-0.496,0.125-1.002-0.174-1.128-0.67c-0.126-0.498,0.226-1.064,0.672-1.127
			c1.891-0.479,4.059-0.017,6.103,1.303c1.294,0.836,2.393,1.891,3.458,2.912c0.312,0.297,0.624,0.597,0.939,0.89
			c0.699,0.647,1.421,1.267,2.152,1.873c0.641,0.528,1.325,1.08,2.054,1.481c0.884,0.488,1.935,0.816,3.12,0.976
			c5.557,0.741,9.53-2.821,11.403-5.011c0.914-1.066,1.93-2.588,2.241-4.284c0.146-0.013,0.289-0.009,0.436-0.031
			c0.643-0.097,1.187,0.459,1.039,1.091c-0.094,0.404-0.2,0.874-0.308,1.361C142.866,120.305,142.113,121.353,141.415,122.168"/>
		<path clip-path="url(#SVGID_4_)" fill="#EDB072" d="M104.715,104.787c0.21-0.141,0.42-0.279,0.629-0.42
			c3.332-1.057,6.762-3.214,9.944-1.061c1.509,1.021,2.692,2.6,2.989,4.397c0.394,2.372-0.828,4.826-2.717,6.313
			c-1.889,1.486-4.345,2.104-6.747,2.177"/>
		<path clip-path="url(#SVGID_4_)" fill="#7110AF" d="M114.823,116.66c0.68-0.337,1.311-0.732,1.885-1.186
			c2.547-2.004,3.882-5.174,3.401-8.073c-0.363-2.199-1.742-4.251-3.781-5.632c-3.341-2.26-6.825-0.932-9.625,0.136
			c-0.643,0.245-1.283,0.49-1.921,0.692c-0.167,0.052-0.324,0.129-0.471,0.228l-0.63,0.419c-0.852,0.57-1.08,1.725-0.51,2.576
			c0.571,0.854,1.725,1.087,2.575,0.51l0.414-0.277c0.62-0.205,1.242-0.441,1.865-0.679c2.776-1.059,4.562-1.651,6.221-0.53
			c1.181,0.801,2.005,1.982,2.199,3.164c0.26,1.561-0.56,3.39-2.034,4.551c-1.761,1.39-4.048,1.732-5.654,1.781
			c-1.021,0.027-1.831,0.883-1.801,1.909c0.031,1.025,0.887,1.831,1.911,1.802C111.092,117.983,113.112,117.51,114.823,116.66"/>
		<path clip-path="url(#SVGID_4_)" fill="#7110AF" d="M82.906,96.906c2.771-0.18,5.176,2.129,5.37,5.156
			c0.194,3.026-1.893,5.625-4.663,5.803c-2.771,0.18-5.175-2.129-5.37-5.155C78.048,99.683,80.135,97.085,82.906,96.906"/>
		<path clip-path="url(#SVGID_4_)" fill="#ED8C8C" d="M70.828,121.963c-3.772-8.795-12.72-13.846-21.789-13.177
			c-0.618,7.239,0.448,14.593,3.438,21.561c2.867,6.685,7.221,12.321,12.577,16.777C72.027,141.042,74.661,130.896,70.828,121.963"
			/>
		<path clip-path="url(#SVGID_4_)" fill="#ED8C8C" d="M142.084,77.726c-9.291,5.144-13.749,16.495-9.956,26.743
			c3.851,10.408,14.902,16.148,25.452,13.722c1.001-7.22,0.312-14.644-2.328-21.778C152.492,88.955,147.898,82.656,142.084,77.726"
			/>
	</g>
	<g clip-path="url(#SVGID_2_)">
		<defs>
			<rect id="SVGID_5_" x="-434.5" y="-221.5" width="1280" height="1024"/>
		</defs>
		<clipPath id="SVGID_6_">
			<use xlink:href="#SVGID_5_"  overflow="visible"/>
		</clipPath>
		<path clip-path="url(#SVGID_6_)" fill="#F7F1EB" d="M325.979,78.134H209.862h-3.254v3.253v2.002v7.508
			c0,1.797,1.457,3.254,3.254,3.254h116.116c1.797,0,3.254-1.457,3.254-3.254v-7.508v-2.002v-3.253H325.979z"/>
		<rect x="206.608" y="84.891" clip-path="url(#SVGID_6_)" fill="#00A9DF" width="122.624" height="1.252"/>
		<path clip-path="url(#SVGID_6_)" fill="#EDD664" d="M231.884,67.186c3.322,0.887,6.001-3.146,3.903-5.807
			c-1.812-2.3-3.917-4.416-6.05-6.414c-1.872-1.755-3.846-3.404-5.904-4.935l-0.144,0.146c-1.608,1.615-3.168,3.284-4.762,4.916
			l0.694,0.582C219.622,55.674,229.381,66.518,231.884,67.186"/>
		<path clip-path="url(#SVGID_6_)" fill="#EDD664" d="M239.349,55.926c1.652,1.31,3.539,2.664,5.535,1.147
			c1.487-1.13,2.142-3.386,0.9-4.937c-1.87-2.334-4.236-4.42-6.452-6.409c-1.995-1.792-4.073-3.492-6.232-5.084
			c-1.647,1.676-3.3,3.344-4.951,5.016c0.187,0.157,0.915,0.767,0.915,0.767C232.342,49.727,235.7,53.034,239.349,55.926"/>
		<path clip-path="url(#SVGID_6_)" fill="#EDD664" d="M248.885,47.291c1.589,1.195,3.196,1.403,4.93,0.342
			c1.437-0.879,2.543-2.607,1.407-4.18c-1.64-2.272-3.886-4.308-5.906-6.225c-2.23-2.116-4.583-4.105-7.057-5.934
			c-1.642,1.68-3.28,3.361-4.924,5.037c0.22,0.185,0.885,0.742,0.885,0.742C241.552,40.637,244.979,44.352,248.885,47.291"/>
		<path clip-path="url(#SVGID_6_)" fill="#5B28FF" d="M329.232,75.36v2.099c0.198-4.396,0.271-12.744,0.268-13.425
			c-0.047-9.604-0.438-19.663-3.266-28.909c-1.336-4.367-3.438-9.428-8.081-11.326c-5.231-2.137-11.859-0.308-16.905,1.531
			c-3.181,1.159-5.704,3.888-9.201,4.888c-3.929,1.121-8.359,1.062-12.209-0.344c-3.864-1.412-5.744-4.385-8.719-6.926
			c-6.858-5.86-15.115-5.579-21.561,0.88c-2.428,2.495-4.866,4.978-7.3,7.467c2.474,1.826,4.826,3.815,7.057,5.933
			c2.021,1.917,4.267,3.951,5.906,6.224c1.136,1.573,0.029,3.301-1.407,4.18c-1.733,1.062-3.341,0.854-4.93-0.342
			c-3.905-2.939-7.333-6.654-10.665-10.217c0,0-0.665-0.558-0.885-0.742c-0.729,0.744-1.456,1.492-2.186,2.236
			c-0.682,0.693-1.368,1.382-2.05,2.075c2.159,1.592,4.236,3.292,6.233,5.084c2.215,1.989,4.582,4.076,6.451,6.41
			c1.241,1.55,0.588,3.806-0.9,4.936c-1.996,1.517-3.883,0.162-5.535-1.147c-3.648-2.892-7.007-6.199-10.285-9.5
			c0,0-0.729-0.609-0.915-0.767c-1.439,1.456-2.872,2.919-4.315,4.37c2.059,1.532,4.032,3.182,5.904,4.936
			c2.133,1.998,4.237,4.113,6.05,6.414c2.098,2.662-0.581,6.693-3.903,5.807c-2.503-0.668-12.262-11.512-12.262-11.512l-0.694-0.582
			c-0.733,0.752-1.454,1.518-2.228,2.229c-1.927,1.774-4.34,3.038-6.103,4.948c-3.26,3.536-3.989,9.02-3.989,13.611v4.254h121.517
			V75.36H329.232z"/>
		<path clip-path="url(#SVGID_6_)" fill="#0007FF" d="M328.965,80.136h0.268V77.46C329.16,79.05,329.072,80.136,328.965,80.136"/>
		<path clip-path="url(#SVGID_6_)" fill="#0007FF" d="M329.232,75.36h-1.107v4.774h0.84c0.107,0,0.195-1.086,0.268-2.676V75.36z"/>
		<path clip-path="url(#SVGID_6_)" fill="#00BDDF" d="M243.752,65.191l8.119,7.867c0.791,0.766,2.046,0.754,2.812-0.039
			c9.6-9.947,28.261-26.828,40.015-9.734c1.285,1.869,2.332,3.797,4.439,4.916c4.783,2.539,8.639-2.481,11.353-5.713
			c1.562-1.859,3.067-3.76,4.42-5.778c1.491-2.228,2.284-5.173,3.812-7.263c-0.002,0.003-7.676,10.5-16.684,1.826
			c-2.885-2.777-5.916-5.295-9.505-7.139c-9.018-4.633-17.417-1.207-25.508,3.485c-8.039,4.661-15.662,10.052-23.127,15.571
			C243.249,63.671,243.172,64.63,243.752,65.191"/>
	</g>
	<g clip-path="url(#SVGID_2_)">
		<defs>
			<rect id="SVGID_9_" x="-434.5" y="-221.5" width="1280" height="1024"/>
		</defs>
		<clipPath id="SVGID_8_">
			<use xlink:href="#SVGID_9_"  overflow="visible"/>
		</clipPath>
	</g>
	<g clip-path="url(#SVGID_2_)">
		<defs>
			<rect id="SVGID_11_" x="-434.5" y="-221.5" width="1280" height="1024"/>
		</defs>
		<clipPath id="SVGID_10_">
			<use xlink:href="#SVGID_11_"  overflow="visible"/>
		</clipPath>
	</g>
</g>
</svg>
