<svg version="1.1" xmlns="http://www.w3.org/2000/svg" xmlns:xlink="http://www.w3.org/1999/xlink" x="0px" y="0px"
	 width="500px" height="500px" viewBox="0 0 500 500" enable-background="new 0 0 500 500" xml:space="preserve">
<g>
	<g>
		<path fill-rule="evenodd" clip-rule="evenodd" fill="#00B900" d="M254.59,68.828c-8.209,9.706-15.952,18.956-23.855,28.066
			c-0.814,0.938-2.55,1.194-3.915,1.521c-51.904,12.428-87.262,43.134-100.633,95.36c-11.756,45.912,0.954,86.653,32.874,121.143
			c23.98,25.91,54.313,40.037,89.327,43.218c66.303,6.02,128.843-35.817,142.263-103.028c8.302-41.577-2.922-78.463-29.818-110.825
			c-1.644-1.977-2.428-3.856-2.512-6.442c-0.355-10.868-0.962-21.729-1.467-32.593c-0.021-0.442,0.068-0.891,0.115-1.426
			c53.834,36.244,94.89,120.225,63.807,207.512c-31.639,88.844-127.862,138.764-218.979,113.458
			c-92.786-25.77-148.086-117.626-129.842-209.586C91.945,114.449,181.703,65.178,254.59,68.828z"/>
		<path fill-rule="evenodd" clip-rule="evenodd" fill="#00B900" d="M311.691,223.965c-0.112,22.851-15.915,42.348-35.916,48.356
			c-24.229,7.278-60.492-6.271-66.571-38.327c-3.294-17.378,1.588-31.912,12.108-46.557c33.578-46.746,78.271-97.092,78.271-97.092
			c1.398-1.552,3.789-3.53,5.997-2.794c2.294,0.766,3.163,2.134,3.375,5.999C308.955,93.551,312.074,145.791,311.691,223.965z"/>
	</g>
</g>
</svg>
