<?xml version="1.0" encoding="utf-8"?>
<!-- Generator: Adobe Illustrator 16.0.0, SVG Export Plug-In . SVG Version: 6.00 Build 0)  -->
<!DOCTYPE svg PUBLIC "-//W3C//DTD SVG 1.1//EN" "http://www.w3.org/Graphics/SVG/1.1/DTD/svg11.dtd">
<svg version="1.1" id="Layer_1" xmlns="http://www.w3.org/2000/svg" xmlns:xlink="http://www.w3.org/1999/xlink" x="0px" y="0px"
	 width="400px" height="400px" viewBox="0 0 400 400" enable-background="new 0 0 400 400" xml:space="preserve">
<g>
	<path fill="#EDB072" d="M178.81,181.18c0,0-38.791-11.711-82.289,3.007l22.816,27.657l43.022-2.678L178.81,181.18z"/>
	<path fill="#A453E5" d="M70.494,317.549c-0.476,0.522-1.06,0.983-1.66,1.552c-1.19,1.124-1.883,2.071-2.429,3.81
		c0,0-1.278,4.048-1.335,4.229c-0.378,1.199-1.285,1.816-2.442,2.234c-1.469,0.529-3.019,0.09-4.49,0.354
		c-3.356,0.599-8.371,3.105-8,7.156c0.392,4.269,6.703,6.893,10.2,7.995c7.932,2.497,16.669,2.134,24.801,1.003
		c7.08-0.984,7.876-8.008,9.427-13.695c1.196-4.394,2.6-8.755,3.302-13.265c0.22-1.409,1.151-4.814,0.098-5.983
		c-0.735-0.818-3.965-1.218-5.05-1.595c-3.532-1.227-7.3-0.521-10.916-0.189c-2.142,0.194-9.459-1.449-10.215,0.748
		c-0.34,0.989-0.102,2.075-0.187,3.118C71.505,316.166,71.081,316.905,70.494,317.549"/>
	<path fill="#A453E5" d="M215.697,317.549c0.477,0.522,1.059,0.983,1.66,1.552c1.189,1.124,1.883,2.071,2.428,3.81
		c0,0,1.279,4.048,1.338,4.229c0.377,1.199,1.283,1.816,2.441,2.234c1.469,0.529,3.018,0.09,4.488,0.354
		c3.357,0.599,8.369,3.105,8.002,7.156c-0.393,4.269-6.705,6.893-10.201,7.995c-7.934,2.497-16.668,2.134-24.801,1.003
		c-7.08-0.984-7.875-8.008-9.426-13.695c-1.196-4.394-2.6-8.755-3.304-13.265c-0.218-1.409-1.149-4.814-0.096-5.983
		c0.736-0.818,3.965-1.218,5.05-1.595c3.531-1.227,7.299-0.521,10.917-0.189c2.141,0.194,9.457-1.449,10.215,0.748
		c0.34,0.989,0.102,2.075,0.186,3.118C214.686,316.166,215.109,316.905,215.697,317.549"/>
	<path fill="#5454B2" d="M205.148,249.622c-0.127-0.717-0.713-1.248-1.412-1.284l-60.563-2.805h-0.178h-0.18l-58.292,3.088
		c-0.7,0.036-1.286,0.567-1.412,1.284l-14.69,64.309c-0.168,0.953,0.53,1.833,1.463,1.847l59.159,0.813
		c2.292,0.033,4.331-1.503,5.016-3.772l8.936-29.678l8.934,29.678c0.684,2.27,2.724,3.806,5.016,3.772l59.158-0.813
		c0.932-0.014,1.633-0.894,1.463-1.847L205.148,249.622z"/>
	<g>
		<path fill="#FF821D" d="M162.359,190.879c0,0-21.016,25.806-46.887,3.425l-9.814,57.016l75.681-0.967L162.359,190.879z"/>
		<path fill="#EDB072" d="M82.083,253.854c-1.389-0.32-2.567-0.661-3.616-1.097L74.689,279.2c5.777,0.76,10.64,0.461,14.364-4.437
			c2.861-3.763,4.883-9.508,3.082-14.141C90.542,256.527,86.047,254.764,82.083,253.854"/>
		<path fill="#FF821D" d="M73.08,247.263c-3.609-7.664-0.244-17.483,3.771-24.36c1.477-2.528,3.414-4.942,5.573-6.918
			c1.264-1.154,2.65-2.217,4.201-2.963c3.187-1.513,6.478-0.018,9.509-1.52c1.667-0.824,3.011-2.178,4.205-3.603
			c2.658-3.172,4.778-6.946,5.238-11.059c0.27-2.434-0.045-4.891-0.361-7.32c-0.246-1.893-0.507-3.83-1.385-5.523
			c-2.264-4.361-6.405-2.533-10.246-1.92c-2.83,0.449-5.631,1.094-8.375,1.918c-7.623,2.287-14.867,6.001-20.863,11.271
			c-10.787,9.48-15.601,22.671-17.121,36.648c0,0.005-4.683,43.044,27.464,47.286l3.777-26.444
			C76.15,251.796,74.523,250.326,73.08,247.263"/>
		<path fill="#EDB072" d="M265.895,186.335c0.887,1.481,9.828-1.968,10.801-2.669c3.932-2.833,5.58-7.405,4.918-12.176
			c-0.742-5.381-5.295-12.116-11.312-12.003c-3.029,0.057-6.836,1.048-9.414,2.676c-1.307,0.824-2.418,2.08-2.723,3.593
			c-0.16,0.798-0.092,1.623-0.021,2.433c0.178,2.073,0.381,3.36,1.242,5.217c0.861,1.85,1.857,3.636,2.902,5.386
			C263.926,181.541,264.262,183.581,265.895,186.335"/>
		<path fill="#FF821D" d="M268.662,186.819l-91.299,19.352c-0.479,0.101-0.948-0.203-1.05-0.683l-5.111-24.117
			c-0.102-0.479,0.203-0.948,0.681-1.049l91.303-19.351c0.477-0.102,0.945,0.204,1.047,0.682l5.111,24.119
			C269.445,186.249,269.141,186.719,268.662,186.819"/>
		<path fill="#A453E5" d="M110.306,181.19c0.195,0.613,0.257,1.276,0.428,1.895c0.395,1.438,1,2.811,1.744,4.1
			c1.524,2.654,3.61,4.958,5.881,6.991c3.447,3.086,7.385,5.64,11.493,7.755c1.158,0.596,1.708,1.908,1.382,3.169
			c-4.074,15.786-4.13,37.741-4.008,45.433c0.024,1.54-1.221,2.794-2.762,2.794h-40.76c-1.624,0-2.909-1.407-2.754-3.024
			c3.584-37.486,14.232-61.746,17.083-67.693c0.428-0.891,1.295-1.472,2.279-1.545l4.54-0.334c1.113-0.083,2.226-0.165,3.337-0.246
			c0.86-0.064,1.716-0.408,2.062,0.545C110.27,181.081,110.287,181.135,110.306,181.19"/>
		<path fill="#A453E5" d="M168.992,179.167c-0.026,0.351-0.047,0.711-0.062,0.787c-0.092,0.481-0.21,0.958-0.35,1.428
			c-0.281,0.942-0.651,1.857-1.089,2.736c-0.894,1.799-2.068,3.451-3.387,4.963c-2.577,2.96-5.693,5.434-8.966,7.58
			c-1.804,1.185-3.672,2.273-5.592,3.262c-1.156,0.595-1.707,1.908-1.38,3.169c4.074,15.786,4.132,37.741,4.008,45.433
			c-0.024,1.541,1.305,4.801,2.846,4.801c0,0,48.938-2.007,49.436-2.007c7.66-0.006-6.442-34.396-7.999-38.913
			c-3.22-9.348-7.46-18.244-12.332-26.833c-0.935-1.645-1.941-3.266-2.76-4.973c-0.428-0.889-1.295-1.472-2.279-1.543
			c-2.547-0.189-5.091-0.375-7.637-0.563c-0.729-0.054-1.671-0.285-2.375-0.063C169.048,178.439,169.018,178.799,168.992,179.167"/>
	</g>
	<path fill="#EDB072" d="M187.885,143.165c0,26.015-23.485,47.105-52.451,47.105c-28.969,0-52.453-21.09-52.453-47.105
		c0-26.015,23.484-47.105,52.453-47.105C164.4,96.06,187.885,117.149,187.885,143.165"/>
	<path fill="#591777" d="M155.441,116.451c2.662-0.172,4.975,2.047,5.163,4.956c0.186,2.909-1.821,5.407-4.483,5.579
		c-2.664,0.172-4.975-2.047-5.163-4.956C150.771,119.119,152.778,116.623,155.441,116.451"/>
	<path fill="#69C418" d="M161.205,99.594c-1.717-4.285-4.057-8.323-7.297-11.657c-0.073-0.016-0.127-0.027-0.199-0.042
		c-32.789,12.671-63.637,16.358-67.611,16.795c-0.185,0.179-0.298,0.288-0.483,0.469c-0.566,4.136-1.02,9.663,1.185,13.591
		c0.738,1.314,2.273,1.997,3.778,1.713c7.684-1.449,15.339-3.083,22.965-4.808c14.01-3.168,28.277-6.459,41.653-11.768
		c1.164-0.463,6.024-1.867,6.232-3.173C161.49,100.333,161.349,99.952,161.205,99.594"/>
	<path fill="#80DB31" d="M153.82,87.85c-1.833-1.871-3.879-3.552-6.019-5.106c-4.586-3.332-9.445-6.471-15.101-7.689
		c-7.952-1.712-16.29-0.659-23.78,2.465c-6.661,2.778-12.852,7.032-17.254,12.749c-3.255,4.227-5.187,9.256-5.978,14.465
		C86.648,104.635,119.167,101.264,153.82,87.85"/>
	<path fill="#E56610" d="M152.038,163.03c1.515,4.683-0.293,9.461-4.04,10.674c-3.745,1.214-8.012-1.601-9.527-6.283
		c-1.515-4.683,0.293-9.461,4.04-10.675C146.256,155.534,150.523,158.347,152.038,163.03"/>
	<path fill="#8549BF" d="M121.115,155.743c2.198-0.495,4.231-2.028,5.44-4.099c0.175-0.299,0.333-0.606,0.492-0.913
		c0.242-0.469,0.484-0.937,0.771-1.379c1.277-1.964,3.276-3.232,6.293-3.984c1.879-0.471,3.706-0.607,5.422-0.472
		c-4.654-2.969-12.505-3.107-16.699,0.23c-1.868,1.485-3.084,3.709-4.479,5.604c-0.995,1.352-2.141,2.613-3.47,3.537
		C116.531,155.675,118.891,156.244,121.115,155.743"/>
	<path fill="#8549BF" d="M134.543,147.097c-2.551,0.639-4.214,1.664-5.23,3.229c-0.253,0.392-0.467,0.808-0.683,1.223
		c-0.171,0.335-0.346,0.67-0.535,0.995c-1.453,2.489-3.916,4.335-6.587,4.939c-0.665,0.148-1.34,0.222-2.011,0.222
		c-2.228,0-4.408-0.805-6-2.276c-0.087-0.079-0.15-0.171-0.199-0.272c-0.507,0.214-1.044,0.36-1.604,0.456
		c0.704,1.5,2.024,2.665,3.133,3.432c2.279,1.575,6.847,3.91,11.827,1.855c1.064-0.438,1.96-1.001,2.662-1.673
		c0.578-0.552,1.079-1.231,1.543-1.88c0.531-0.744,1.049-1.497,1.542-2.27c0.221-0.35,0.437-0.704,0.655-1.058
		c0.738-1.21,1.5-2.46,2.497-3.555c1.575-1.729,3.477-2.691,5.35-2.71c0.43-0.052,0.896,0.389,0.901,0.882
		c0.005,0.492-0.391,0.895-0.883,0.9c-1.853,0.018-3.334,1.342-4.053,2.129c-0.88,0.967-1.566,2.09-2.292,3.28
		c-0.224,0.363-0.445,0.727-0.672,1.085c-0.509,0.8-1.043,1.581-1.594,2.352c-0.514,0.717-1.074,1.474-1.763,2.132
		c-0.864,0.825-1.943,1.508-3.214,2.033c-1.526,0.629-3.122,0.941-4.746,0.941c-2.91,0-5.914-1.005-8.772-2.979
		c-0.85-0.586-1.806-1.375-2.611-2.362c0.92,1.78,2.011,3.926,2.26,4.234c5.625,6.999,15.771,5.576,22.471,0.931
		c3.809-2.641,6.011-6.786,6.616-11.336c0,0,0.497-2.768-0.755-4.922c-0.045-0.005-0.088,0.002-0.131-0.01
		C139.577,146.438,137.114,146.455,134.543,147.097"/>
	<path fill="#591777" d="M139.534,144.896c-1.716-0.135-3.544,0.001-5.422,0.472c-3.017,0.753-5.016,2.02-6.293,3.984
		c-0.287,0.442-0.529,0.91-0.771,1.379c-0.159,0.307-0.317,0.614-0.492,0.914c-1.209,2.069-3.242,3.603-5.44,4.098
		c-2.223,0.501-4.584-0.069-6.229-1.476c-0.501,0.35-1.026,0.656-1.586,0.89c0.047,0.101,0.11,0.193,0.197,0.272
		c1.592,1.471,3.771,2.276,6,2.276c0.67,0,1.346-0.073,2.011-0.222c2.671-0.604,5.134-2.45,6.587-4.939
		c0.189-0.325,0.364-0.659,0.535-0.995c0.216-0.415,0.43-0.831,0.683-1.223c1.016-1.564,2.679-2.59,5.23-3.229
		c2.568-0.642,5.033-0.659,7.123-0.05c0.043,0.012,0.086,0.005,0.131,0.011c-0.225-0.387-0.488-0.76-0.841-1.088
		C140.532,145.575,140.046,145.223,139.534,144.896"/>
	<path fill="#591777" d="M113.816,160.512c2.859,1.974,5.863,2.979,8.774,2.979c1.622,0,3.218-0.313,4.742-0.942
		c1.273-0.523,2.352-1.208,3.216-2.031c0.689-0.66,1.249-1.416,1.763-2.133c0.548-0.771,1.085-1.551,1.594-2.352
		c0.227-0.359,0.449-0.721,0.672-1.085c0.725-1.189,1.412-2.312,2.292-3.28c0.719-0.788,2.2-2.111,4.053-2.129
		c0.492-0.006,0.888-0.408,0.883-0.9c-0.006-0.494-0.472-0.934-0.901-0.882c-1.875,0.019-3.775,0.982-5.35,2.711
		c-0.997,1.093-1.759,2.343-2.497,3.554c-0.218,0.354-0.436,0.708-0.655,1.058c-0.492,0.771-1.01,1.526-1.542,2.27
		c-0.464,0.648-0.965,1.328-1.543,1.881c-0.702,0.67-1.598,1.234-2.662,1.672c-4.98,2.054-9.548-0.281-11.827-1.855
		c-1.111-0.767-2.429-1.932-3.133-3.432c-0.141,0.023-0.27,0.063-0.413,0.078c-0.62,0.068-0.99,0.717-0.699,1.27
		c0.186,0.352,0.4,0.763,0.622,1.189C112.01,159.137,112.966,159.925,113.816,160.512"/>
	<path fill="#8549BF" d="M163.957,149.896c-2.253,0.083-4.609-0.879-6.308-2.573c-0.246-0.244-0.477-0.5-0.708-0.756
		c-0.355-0.392-0.709-0.781-1.1-1.136c-1.734-1.573-3.993-2.287-7.102-2.245c-1.936,0.025-3.738,0.361-5.362,0.928
		c3.742-4.059,11.296-6.197,16.203-4.044c2.185,0.958,3.931,2.799,5.761,4.274c1.309,1.053,2.737,1.98,4.258,2.533
		C168.371,148.659,166.234,149.814,163.957,149.896"/>
	<path fill="#8549BF" d="M148.764,144.969c2.63-0.035,4.5,0.533,5.881,1.784c0.345,0.315,0.659,0.662,0.973,1.009
		c0.253,0.28,0.507,0.559,0.773,0.825c2.041,2.035,4.894,3.191,7.629,3.091c0.681-0.025,1.354-0.127,2.001-0.298
		c2.153-0.569,4.057-1.905,5.219-3.732c0.064-0.099,0.102-0.206,0.122-0.314c0.546,0.077,1.104,0.081,1.669,0.031
		c-0.3,1.629-1.276,3.093-2.155,4.118c-1.8,2.104-5.619,5.53-10.959,4.816c-1.14-0.153-2.149-0.469-3-0.937
		c-0.7-0.387-1.357-0.916-1.973-1.425c-0.704-0.582-1.396-1.178-2.068-1.8c-0.304-0.282-0.603-0.569-0.903-0.855
		c-1.025-0.982-2.08-1.996-3.324-2.798c-1.964-1.27-4.048-1.714-5.865-1.253c-0.43,0.06-0.768,0.604-0.646,1.083
		c0.122,0.477,0.606,0.765,1.083,0.644c1.797-0.456,3.567,0.446,4.462,1.023c1.098,0.71,2.05,1.621,3.054,2.586
		c0.31,0.295,0.616,0.59,0.928,0.878c0.696,0.645,1.414,1.26,2.142,1.866c0.68,0.563,1.414,1.151,2.249,1.613
		c1.046,0.575,2.264,0.961,3.627,1.142c1.635,0.221,3.259,0.114,4.827-0.3c2.816-0.745,5.461-2.482,7.723-5.122
		c0.67-0.785,1.395-1.791,1.92-2.951c-0.434,1.956-0.94,4.311-1.102,4.673c-3.651,8.203-13.824,9.418-21.489,6.642
		c-4.357-1.58-7.545-5.025-9.292-9.27c0,0-1.187-2.549-0.527-4.95c0.042-0.018,0.086-0.022,0.125-0.046
		C143.731,145.616,146.115,145.004,148.764,144.969"/>
	<path fill="#591777" d="M143.378,144.116c1.624-0.568,3.424-0.904,5.362-0.928c3.108-0.042,5.367,0.67,7.102,2.245
		c0.391,0.354,0.745,0.743,1.1,1.135c0.231,0.256,0.462,0.513,0.708,0.757c1.699,1.692,4.055,2.654,6.308,2.572
		c2.277-0.083,4.414-1.237,5.643-3.018c0.574,0.209,1.162,0.371,1.763,0.454c-0.021,0.109-0.058,0.216-0.122,0.314
		c-1.162,1.828-3.065,3.163-5.219,3.732c-0.647,0.17-1.32,0.273-2.001,0.299c-2.735,0.099-5.589-1.056-7.629-3.093
		c-0.267-0.265-0.52-0.544-0.773-0.824c-0.313-0.347-0.625-0.694-0.973-1.008c-1.381-1.253-3.251-1.819-5.881-1.785
		c-2.649,0.036-5.033,0.648-6.897,1.77c-0.039,0.024-0.084,0.028-0.125,0.045c0.118-0.431,0.278-0.859,0.535-1.266
		C142.586,145.028,142.965,144.563,143.378,144.116"/>
	<path fill="#591777" d="M172.232,152.642c-2.262,2.64-4.907,4.377-7.723,5.122c-1.567,0.414-3.191,0.521-4.827,0.3
		c-1.363-0.181-2.581-0.567-3.627-1.142c-0.835-0.462-1.569-1.05-2.249-1.613c-0.728-0.605-1.445-1.221-2.142-1.866
		c-0.312-0.288-0.618-0.583-0.928-0.878c-1.004-0.965-1.956-1.875-3.054-2.586c-0.896-0.577-2.666-1.479-4.462-1.022
		c-0.477,0.12-0.963-0.168-1.083-0.645c-0.122-0.479,0.216-1.023,0.646-1.083c1.817-0.461,3.901-0.016,5.865,1.253
		c1.244,0.803,2.299,1.816,3.324,2.798c0.299,0.286,0.599,0.573,0.903,0.855c0.672,0.622,1.365,1.218,2.068,1.8
		c0.616,0.509,1.273,1.038,1.973,1.425c0.851,0.468,1.86,0.784,3,0.937c5.341,0.713,9.159-2.712,10.959-4.816
		c0.879-1.025,1.855-2.487,2.155-4.118c0.139-0.012,0.278-0.009,0.419-0.03c0.617-0.093,1.139,0.441,0.999,1.049
		c-0.09,0.388-0.193,0.84-0.297,1.308C173.627,150.851,172.902,151.858,172.232,152.642"/>
	<path fill="#EDB072" d="M136.956,135.936c0.203-0.134,0.403-0.269,0.604-0.404c3.203-1.015,6.499-3.089,9.559-1.018
		c1.449,0.981,2.587,2.498,2.872,4.226c0.379,2.28-0.796,4.639-2.611,6.068c-1.815,1.429-4.175,2.023-6.484,2.092"/>
	<path fill="#591777" d="M146.673,147.916c0.653-0.324,1.259-0.703,1.812-1.139c2.448-1.926,3.73-4.973,3.268-7.761
		c-0.349-2.114-1.674-4.086-3.634-5.413c-3.21-2.172-6.559-0.896-9.251,0.13c-0.617,0.236-1.233,0.471-1.845,0.667
		c-0.162,0.049-0.312,0.124-0.452,0.218l-0.606,0.403c-0.819,0.548-1.038,1.658-0.49,2.476c0.55,0.82,1.657,1.045,2.476,0.49
		l0.398-0.266c0.595-0.198,1.194-0.425,1.792-0.653c2.667-1.017,4.385-1.587,5.979-0.508c1.134,0.769,1.926,1.904,2.114,3.04
		c0.25,1.5-0.539,3.258-1.956,4.374c-1.691,1.336-3.89,1.665-5.435,1.712c-0.982,0.026-1.759,0.849-1.731,1.835
		c0.03,0.985,0.853,1.76,1.838,1.731C143.085,149.188,145.028,148.732,146.673,147.916"/>
	<path fill="#591777" d="M115.994,128.361c2.664-0.172,4.975,2.047,5.163,4.956c0.186,2.909-1.819,5.406-4.483,5.578
		c-2.662,0.172-4.973-2.047-5.161-4.956C111.325,131.03,113.33,128.533,115.994,128.361"/>
	<path fill="#ED8C8C" d="M104.385,152.445c-3.625-8.453-12.226-13.308-20.943-12.665c-0.594,6.958,0.431,14.026,3.304,20.724
		c2.756,6.424,6.94,11.843,12.089,16.125C105.538,170.783,108.07,161.032,104.385,152.445"/>
	<path fill="#ED8C8C" d="M172.874,109.925c-8.93,4.945-13.214,15.854-9.568,25.705c3.7,10.005,14.324,15.522,24.463,13.189
		c0.963-6.939,0.3-14.075-2.238-20.932C182.878,120.719,178.463,114.665,172.874,109.925"/>
	<path fill="#F7F1EB" d="M349.629,110.318H238.021h-3.127v3.126v1.924v7.217c0,1.727,1.4,3.126,3.127,3.126h111.607
		c1.727,0,3.127-1.399,3.127-3.126v-7.217v-1.924v-3.126H349.629z"/>
	<rect x="234.895" y="116.813" fill="#00A9DF" width="117.861" height="1.203"/>
	<path fill="#EDD664" d="M259.188,99.794c3.193,0.853,5.768-3.023,3.752-5.581c-1.742-2.21-3.764-4.245-5.814-6.164
		c-1.801-1.688-3.697-3.272-5.676-4.744l-0.139,0.14c-1.545,1.552-3.045,3.157-4.576,4.726l0.668,0.559
		C247.402,88.73,256.781,99.152,259.188,99.794"/>
	<path fill="#EDD664" d="M266.363,88.972c1.588,1.258,3.402,2.561,5.32,1.103c1.428-1.086,2.057-3.254,0.865-4.744
		c-1.799-2.244-4.072-4.25-6.203-6.161c-1.916-1.723-3.914-3.357-5.99-4.887c-1.582,1.611-3.17,3.214-4.758,4.821
		c0.18,0.151,0.879,0.738,0.879,0.738C259.627,83.014,262.855,86.192,266.363,88.972"/>
	<path fill="#EDD664" d="M275.527,80.672c1.529,1.149,3.074,1.349,4.738,0.329c1.383-0.845,2.445-2.506,1.354-4.018
		c-1.576-2.184-3.734-4.14-5.676-5.983c-2.145-2.034-4.406-3.946-6.783-5.702c-1.578,1.614-3.154,3.231-4.732,4.842
		c0.211,0.176,0.85,0.713,0.85,0.713C268.48,74.276,271.775,77.847,275.527,80.672"/>
	<path fill="#0007FF" d="M352.756,107.652v2.018c0.191-4.226,0.262-12.25,0.258-12.904c-0.045-9.231-0.422-18.899-3.139-27.786
		c-1.285-4.199-3.305-9.063-7.768-10.887c-5.029-2.054-11.398-0.296-16.25,1.472c-3.055,1.113-5.48,3.737-8.844,4.698
		c-3.775,1.078-8.035,1.02-11.734-0.331c-3.713-1.357-5.521-4.214-8.381-6.657c-6.59-5.632-14.527-5.362-20.723,0.847
		c-2.334,2.397-4.676,4.784-7.016,7.177c2.377,1.755,4.639,3.667,6.783,5.702c1.941,1.843,4.1,3.798,5.676,5.982
		c1.092,1.512,0.029,3.173-1.354,4.018c-1.664,1.021-3.209,0.82-4.738-0.329c-3.752-2.825-7.047-6.396-10.25-9.82
		c0,0-0.639-0.536-0.85-0.712c-0.703,0.714-1.4,1.433-2.102,2.148c-0.654,0.667-1.314,1.328-1.971,1.995
		c2.076,1.53,4.072,3.164,5.992,4.887c2.129,1.912,4.404,3.917,6.201,6.161c1.191,1.49,0.564,3.658-0.865,4.744
		c-1.918,1.458-3.732,0.156-5.32-1.103c-3.508-2.78-6.736-5.958-9.887-9.13c0,0-0.699-0.587-0.879-0.738
		c-1.385,1.399-2.76,2.807-4.148,4.201c1.979,1.473,3.875,3.058,5.676,4.744c2.051,1.921,4.072,3.955,5.814,6.166
		c2.016,2.558-0.559,6.433-3.752,5.58c-2.406-0.642-11.785-11.064-11.785-11.064l-0.668-0.559c-0.705,0.723-1.396,1.458-2.141,2.142
		c-1.852,1.705-4.172,2.92-5.865,4.756c-3.135,3.399-3.834,8.67-3.834,13.084v4.088h116.797v-4.59H352.756z"/>
	<path fill="#0007FF" d="M352.498,112.242h0.258v-2.572C352.688,111.198,352.602,112.242,352.498,112.242"/>
	<path fill="#0007FF" d="M352.756,107.652h-1.064v4.59h0.807c0.104,0,0.189-1.043,0.258-2.572V107.652z"/>
	<path fill="#00A9DF" d="M270.594,97.879l7.805,7.561c0.76,0.736,1.967,0.726,2.703-0.037c9.227-9.562,27.162-25.786,38.461-9.357
		c1.234,1.798,2.24,3.65,4.266,4.725c4.598,2.44,8.305-2.385,10.914-5.491c1.5-1.787,2.947-3.613,4.248-5.554
		c1.432-2.141,2.193-4.972,3.664-6.979c-0.002,0.002-7.377,10.092-16.035,1.755c-2.773-2.67-5.688-5.089-9.137-6.862
		c-8.668-4.453-16.74-1.16-24.518,3.35c-7.727,4.48-15.055,9.662-22.23,14.967C270.111,96.417,270.037,97.338,270.594,97.879"/>
</g>
</svg>
