<svg version="1.1" xmlns="http://www.w3.org/2000/svg" xmlns:xlink="http://www.w3.org/1999/xlink" x="0" y="0" width="800" height="500" viewBox="-150 0 800 500" enable-background="new -150 0 800 500" xml:space="preserve"><g id="backgroundBubbles"><g id="backgroundBubbles_1_"><circle fill="var(--white)" cx="178.571" cy="234.854" r="11.594"/><circle fill="var(--white)" cx="527.038" cy="189.89" r="8.696"/><circle fill="var(--white)" cx="323.765" cy="339.448" r="12.802"/><circle fill="var(--white)" cx="454.44" cy="302.489" r="10.145"/><circle fill="var(--white)" cx="100.922" cy="84.173" r="7.488"/><path fill="var(--white)" d="M-86.985,254.408c0,2.736,2.219,4.956,4.957,4.956c2.738,0,4.957-2.22,4.957-4.956 c0-2.741-2.219-4.962-4.957-4.962C-84.766,249.446-86.985,251.667-86.985,254.408z"/><circle fill="var(--white)" cx="93.434" cy="291.199" r="4.589"/><circle fill="var(--white)" cx="37.686" cy="423.441" r="5.556"/><circle fill="var(--white)" cx="222.532" cy="417.884" r="10.145"/></g></g><circle fill="var(--white)" cx="295.501" cy="443.724" r="29.952"/><path fill="var(--white)" d="M222.532,251.547c27.371,0,49.541,22.17,49.541,49.518s-22.17,49.517-49.541,49.517	c-27.348,0-49.517-22.169-49.517-49.517S195.185,251.547,222.532,251.547z"/><circle fill="var(--white)" cx="336.566" cy="260.573" r="31.884"/><a class="svg-link" alt="{{50}}" href="https://docs.btcpayserver.org/integrations/woocommerce" target="black_"><g id="woo"><ellipse fill="var(--white)" cx="420.933" cy="175.752" rx="59.191" ry="60.715"/><g><path fill="#9B5D90" d="M460.148,187.853c0-0.898,0.001-1.797,0.001-2.695c0-0.903,0-1.807-0.001-2.71 c0.001-0.898,0.001-1.797,0.001-2.695c0-0.903,0-1.807-0.001-2.71c0.001-0.898,0.001-1.797,0.001-2.694 c0-0.903,0-1.807-0.001-2.709c0.001-0.898,0.001-1.797,0.001-2.696c0-0.902,0-1.806-0.001-2.709 c0.001-0.899,0.001-1.797,0.001-2.696c0.025-0.913-0.158-1.798-0.326-2.686c-0.684-1.949-1.903-3.435-3.65-4.471 c-0.935-0.39-1.881-0.755-2.901-0.802c-0.788-0.036-1.578-0.029-2.367-0.041c-8.693,0.008-17.387,0.02-26.079,0.024 c-12.162,0.003-24.324-0.003-36.486,0.003c-1.683,0-3.168,0.594-4.496,1.653c-1.222,0.976-1.95,2.284-2.505,3.724 c-0.127,0.862-0.297,1.718-0.273,2.595c0,0.898,0,1.797,0,2.696c0,0.903,0,1.806,0,2.709c0,0.899,0,1.798,0,2.696 c0,0.903,0,1.807,0,2.71c0,0.898,0,1.796,0,2.694c0,0.904,0,1.807,0,2.711c0,0.899,0,1.797,0,2.694c0,0.903,0,1.808,0,2.71 c0,0.898,0,1.797,0,2.694c-0.033,0.916,0.156,1.809,0.289,2.707c0.697,1.976,1.928,3.5,3.705,4.553 c0.738,0.248,1.475,0.497,2.213,0.745c0.132,0.013,0.264,0.025,0.396,0.039c0.882-0.02,1.767-0.108,2.646,0.053 c0.877,0,1.75,0,2.628,0c0.882-0.131,1.761-0.131,2.643,0c0.878,0,1.753,0,2.628,0c0.883-0.131,1.762-0.131,2.643,0 c0.878,0,1.751,0,2.628,0c0.882-0.131,1.76-0.131,2.643,0c0.878,0,1.752,0,2.628,0c0.882-0.131,1.761-0.131,2.643,0 c0.878,0,1.752,0,2.63,0c0.88-0.131,1.76-0.131,2.642,0c0.67-0.005,1.339-0.01,2.01-0.019c0.249-0.003,0.47,0.061,0.645,0.249 c0.908,0.439,1.785,0.933,2.621,1.5c0.601,0.271,1.188,0.573,1.713,0.983c0.35,0.096,0.644,0.289,0.915,0.521 c1.793,0.927,3.524,1.97,5.264,3.003c0.919,0.519,1.837,1.038,2.754,1.557c0.305-0.199,0.048-0.405-0.018-0.574 c-0.553-1.456-1.125-2.906-1.694-4.356c-0.358-0.863-0.715-1.729-1.081-2.59c-0.1-0.231-0.044-0.358,0.199-0.349 c0.827,0.032,1.656-0.106,2.477,0.074c0.878,0,1.754,0,2.632,0c0.882-0.131,1.76-0.131,2.643,0c0.875,0,1.75,0,2.627,0 c0.883-0.131,1.762-0.131,2.642,0c0.878,0,1.753,0,2.629,0c0.883-0.131,1.762-0.131,2.644,0c0.876,0,1.749,0,2.628,0 c0.879-0.16,1.763-0.075,2.645-0.054c0.175-0.018,0.353-0.036,0.527-0.052c0.692-0.244,1.387-0.49,2.08-0.735 c1.777-1.052,3.007-2.574,3.694-4.558C460.016,189.66,460.175,188.769,460.148,187.853z M416.039,169.286 c-0.832,3.361-1.361,6.777-1.767,10.217c-0.325,2.75-0.555,5.504-0.505,8.278c0.013,0.671,0.127,1.333,0.013,2.017 c-0.35,2.08-2.172,2.901-3.83,1.649c-1.344-1.016-2.302-2.405-3.22-3.811c-2.034-3.116-3.357-6.565-4.42-10.13 c-0.055-0.188-0.12-0.373-0.186-0.582c-0.291,0.198-0.354,0.5-0.479,0.752c-1.639,3.31-3.24,6.641-4.917,9.932 c-0.698,1.374-1.521,2.693-2.716,3.701c-1.254,1.059-2.266,0.912-3.102-0.52c-0.901-1.541-1.311-3.284-1.767-4.996 c-1.371-5.145-2.317-10.38-3.189-15.633c-0.294-1.772-0.566-3.548-0.862-5.319c-0.183-1.103,0.023-2.095,0.902-2.797 c0.919-0.731,1.989-0.822,3.057-0.393c1.021,0.41,1.242,1.375,1.384,2.359c0.808,5.583,1.769,11.136,3.045,16.628 c0.041,0.171,0.099,0.341,0.189,0.652c1.258-2.461,2.441-4.771,3.623-7.08c1.077-2.113,2.157-4.227,3.239-6.339 c0.235-0.458,0.476-0.914,0.816-1.303c1.427-1.624,3.43-1.222,4.122,0.844c0.385,1.151,0.508,2.368,0.771,3.551 c0.591,2.632,1.273,5.235,2.203,7.765c0.07,0.201,0.157,0.397,0.356,0.579c0.117-0.969,0.222-1.939,0.351-2.907 c0.572-4.352,1.307-8.667,2.902-12.773c0.275-0.709,0.601-1.402,0.955-2.075c0.744-1.415,2.233-1.909,3.579-1.223 c1.431,0.732,1.994,2.292,1.275,3.767C417.057,165.755,416.479,167.496,416.039,169.286z M432.849,184.555 c-1.952,2.808-4.558,4.249-7.974,3.771c-3.654-0.51-5.834-2.842-6.726-6.347c-1.412-5.56-0.301-10.68,3.182-15.171 c3.471-4.473,8.773-3.67,11.435-1.341c1.884,1.646,2.735,3.855,3.127,6.293c0.132,0.825,0.152,1.656,0.15,2.491 C436.043,178.033,434.99,181.477,432.849,184.555z M451.906,185.832c-2.941,3.235-7.89,3.482-11.058,0.619 c-1.741-1.572-2.618-3.669-2.939-5.966c-0.677-4.819,0.305-9.268,3.155-13.207c2.526-3.49,6.33-4.581,10.093-2.917 c2.451,1.086,3.723,3.19,4.488,5.683c0.405,1.315,0.562,2.679,0.54,4.064C456.106,178.532,454.892,182.55,451.906,185.832z"/><path fill="#9B5D90" d="M450.801,174.602c-0.1,2.357-0.596,4.58-2.098,6.462c-0.394,0.493-0.856,0.9-1.384,1.232 c-1.295,0.815-2.48,0.531-3.252-0.808c-0.52-0.901-0.813-1.893-0.931-2.928c-0.336-2.972,0.501-5.598,2.288-7.928 c0.162-0.211,0.346-0.407,0.536-0.592c1.484-1.438,3.102-1.157,4.006,0.711C450.552,171.958,450.853,173.239,450.801,174.602z"/><path fill="#9B5D90" d="M430.645,175.213c-0.072,1.709-0.58,3.86-1.98,5.72c-0.435,0.578-0.968,1.041-1.574,1.413 c-1.203,0.737-2.301,0.482-3.073-0.712c-0.584-0.899-0.895-1.917-1.016-2.967c-0.349-3.059,0.477-5.786,2.382-8.162 c0.248-0.31,0.547-0.59,0.863-0.823c1.262-0.93,2.546-0.66,3.369,0.686C430.282,171.445,430.645,172.954,430.645,175.213z"/></g><text transform="matrix(1 0 0 1 379.2344 253.2598)" font-family="'Open Sans'" class="alt-tooktip" font-size="12">{{50}}</text></g></a><a class="svg-link" alt="{{51}}" href="https://docs.btcpayserver.org/integrations/drupal" target="black_"><g id="drupal"><circle fill="var(--white)" cx="40.639" cy="176.979" r="73.216"/><g><path fill="#29A9DF" d="M38.152,123.248c6.127,7.088,13.071,13.335,20.387,19.573c-18.359-2.289-32.514,17.707-21.666,35.01 c-11.062,1.919-19.236,7.75-23.472,18.208c-4.203,10.373-2.478,20.195,3.981,29.313c-2.102-1.036-3.906-2.43-5.639-3.909 c-8.732-7.46-14.023-16.862-15.867-28.204c-0.063-0.389,0.119-0.894-0.4-1.132c0-3.448,0-6.896,0-10.345 c0.56-0.289,0.354-0.854,0.424-1.289c2.144-13.241,9.147-22.93,21.083-29.086c3.863-1.993,7.803-3.847,11.489-6.175 c4.801-3.032,8.124-7.116,9.26-12.803C38.338,129.372,38.142,126.307,38.152,123.248z"/><path fill="#29A9DF" d="M58.154,230.534c3.353-2.832,6.38-5.961,8.304-9.958c5.561-11.553,4.338-22.39-3.59-32.468 c-0.33-0.42-0.677-0.826-1.059-1.29c11.855-4.674,17.157-13.312,15.863-26.126c1.396,1.127,2.392,2.443,3.421,3.717 c4.438,5.5,8.047,11.42,9.467,18.479c1.64,8.162,0.085,15.852-3.545,23.162c-5.911,11.902-15.407,19.822-27.755,24.46 c-0.298,0.113-0.628,0.135-0.944,0.199C58.262,230.65,58.208,230.591,58.154,230.534z"/><path fill="#29A9DF" d="M57.591,206.968c0.037,9.42-7.544,17.086-16.958,17.146c-9.482,0.062-17.199-7.578-17.232-17.059 c-0.033-9.377,7.623-17.116,16.981-17.165C49.857,189.841,57.553,197.478,57.591,206.968z"/><path fill="#29A9DF" d="M68.542,165.278c-0.014,7.204-5.829,12.942-13.104,12.928c-7.275-0.015-13.073-5.89-13.038-13.21 c0.034-7.157,5.915-12.938,13.152-12.93C62.852,152.071,68.554,157.874,68.542,165.278z"/></g><text transform="matrix(1 0 0 1 22.5425 272.0908)" font-family="'Open Sans'" class="alt-tooktip" font-size="12">{{51}}</text></g></a><g id="git"><path fill="var(--white)" d="M97.97,402.864c0,22.564,18.293,40.859,40.86,40.859c22.564,0,40.86-18.293,40.86-40.859 c0-22.572-18.294-40.865-40.86-40.865C116.263,361.999,97.97,380.292,97.97,402.864z"/><g><path fill="#F05133" d="M163.757,400.629l-21.908-21.91c-1.259-1.262-3.306-1.262-4.565,0l-4.55,4.55l5.77,5.772 c1.341-0.453,2.878-0.15,3.947,0.921c1.077,1.079,1.377,2.628,0.911,3.978l5.564,5.56c1.347-0.464,2.898-0.164,3.972,0.912 c1.502,1.502,1.502,3.933,0,5.438c-1.501,1.501-3.935,1.501-5.438,0c-1.129-1.133-1.409-2.792-0.833-4.184l-5.189-5.187v13.648 c0.366,0.181,0.713,0.423,1.017,0.726c1.501,1.502,1.501,3.934,0,5.439c-1.502,1.502-3.935,1.502-5.437,0 c-1.502-1.507-1.502-3.938,0-5.439c0.373-0.37,0.801-0.65,1.259-0.838v-13.776c-0.458-0.188-0.886-0.466-1.259-0.839 c-1.139-1.138-1.412-2.806-0.827-4.202l-5.688-5.694l-15.02,15.025c-1.26,1.263-1.26,3.309,0,4.57l21.908,21.905 c1.259,1.26,3.304,1.26,4.566,0l21.807-21.806C165.019,403.938,165.019,401.891,163.757,400.629z"/></g></g><a class="svg-link" alt="{{52}}" href="https://docs.btcpayserver.org/integrations/magento" target="black_"><g id="mag"><circle fill="var(--white)" cx="416.3" cy="387.81" r="42.512"/><g><path fill="#F16322" d="M439.624,400.019c-1.552,0.894-3.103,1.788-4.651,2.682c-0.412,0.238-0.826,0.477-1.238,0.715 c-0.15,0.088-0.154,0.086-0.154-0.081c-0.002-0.231-0.001-0.468-0.001-0.701c0-7.785,0-15.571,0.002-23.357 c0-0.118-0.025-0.188-0.139-0.253c-2.507-1.441-5.009-2.89-7.513-4.333c-2.438-1.408-4.875-2.813-7.312-4.228 c-0.109-0.062-0.188-0.064-0.299-0.003c-1.584,0.92-3.169,1.836-4.755,2.75c-2.43,1.401-4.86,2.801-7.289,4.202 c-0.932,0.538-1.86,1.08-2.792,1.616c-0.089,0.052-0.127,0.104-0.127,0.213c0.006,2.457,0.007,4.913,0.009,7.369 c0.001,0.567,0.003,1.14,0.006,1.709c0.004,1.495,0.013,2.99,0.016,4.484c0.004,2.791,0.005,5.584,0.009,8.377 c0.001,0.712,0.004,1.424,0.007,2.136c0,0.055,0,0.108,0,0.198c-2.029-1.175-4.038-2.335-6.046-3.495c0-8.141,0-16.277,0-24.415 c0.254-0.148,0.509-0.296,0.763-0.442c1.66-0.957,3.321-1.914,4.981-2.872c1.276-0.736,2.554-1.478,3.832-2.216 c1.875-1.082,3.751-2.162,5.625-3.244c1.604-0.926,3.204-1.853,4.806-2.778c0.373-0.216,0.741-0.437,1.112-0.653 c0.028,0,0.061,0,0.092,0c-0.002,0.031,0.026,0.039,0.047,0.052c0.745,0.433,1.49,0.862,2.237,1.294 c1.717,0.991,3.436,1.98,5.15,2.973c1.606,0.929,3.211,1.861,4.817,2.788c2.203,1.274,4.409,2.545,6.614,3.815 c0.729,0.42,1.46,0.837,2.188,1.255C439.624,383.721,439.624,391.87,439.624,400.019z"/><path fill="#F16322" d="M418.443,412.227c-0.239-0.188-0.516-0.316-0.775-0.47c-2.158-1.25-4.318-2.498-6.479-3.747 c-0.545-0.312-1.087-0.633-1.635-0.939c-0.109-0.062-0.14-0.133-0.14-0.251c0.003-7.258,0.002-14.518,0.002-21.773 c0-0.771,0.001-1.546-0.004-2.317c-0.002-0.104,0.028-0.164,0.12-0.219c1.847-1.062,3.689-2.131,5.535-3.195 c0.12-0.069,0.243-0.139,0.37-0.207c0.032,0.077,0.018,0.143,0.018,0.207c0.001,8.006,0.001,16.011-0.002,24.017 c0,0.127,0.032,0.197,0.146,0.262c0.932,0.527,1.857,1.062,2.787,1.597c0.072,0.043,0.13,0.045,0.205,0.001 c0.939-0.552,1.884-1.101,2.826-1.646c0.058-0.033,0.084-0.064,0.078-0.131c-0.004-0.041-0.001-0.082-0.001-0.122 c0-7.996,0-15.991,0-23.986c0-0.061,0-0.119,0-0.197c0.187,0.065,0.332,0.173,0.487,0.263c1.823,1.051,3.645,2.104,5.47,3.153 c0.102,0.058,0.109,0.127,0.109,0.224c-0.001,5.244-0.001,10.487-0.001,15.731c0,2.78-0.002,5.562,0.004,8.347 c0,0.131-0.046,0.194-0.155,0.257c-1.779,1.024-3.56,2.053-5.339,3.081c-1.146,0.662-2.292,1.322-3.438,1.984 c-0.036,0.021-0.094,0.023-0.101,0.083C418.504,412.227,418.474,412.227,418.443,412.227z"/></g><text transform="matrix(1 0 0 1 391.291 460.3223)" font-family="'Open Sans'" class="alt-tooktip" font-size="12">{{52}}</text></g></a><g id="wp"><circle fill="var(--white)" cx="545.414" cy="284.289" r="54.348"/><g><g><path fill="#21759B" d="M519.129,285.801c0,11.107,6.457,20.711,15.818,25.262l-13.389-36.688 C520.001,277.867,519.129,281.73,519.129,285.801L519.129,285.801z"/><path fill="#21759B" d="M566.148,284.383c0-3.471-1.246-5.871-2.314-7.742c-1.424-2.312-2.758-4.27-2.758-6.582 c0-2.578,1.957-4.98,4.714-4.98c0.124,0,0.243,0.018,0.364,0.021c-4.994-4.574-11.647-7.367-18.955-7.367 c-9.807,0-18.435,5.029-23.453,12.65c0.658,0.021,1.279,0.033,1.807,0.033c2.938,0,7.48-0.355,7.48-0.355 c1.514-0.09,1.69,2.135,0.181,2.312c0,0-1.521,0.18-3.213,0.27l10.222,30.4l6.143-18.422l-4.373-11.98 c-1.512-0.088-2.942-0.27-2.942-0.27c-1.513-0.088-1.336-2.398,0.179-2.311c0,0,4.635,0.355,7.393,0.355 c2.936,0,7.48-0.355,7.48-0.355c1.516-0.09,1.692,2.133,0.18,2.311c0,0-1.523,0.182-3.211,0.27l10.143,30.174l2.801-9.355 C565.224,289.574,566.148,286.785,566.148,284.383L566.148,284.383z"/><path fill="#21759B" d="M547.691,288.256l-8.422,24.473c2.516,0.738,5.174,1.143,7.93,1.143c3.269,0,6.402-0.562,9.32-1.59 c-0.074-0.121-0.144-0.248-0.199-0.387L547.691,288.256z"/><path fill="#21759B" d="M571.828,272.334c0.119,0.895,0.188,1.854,0.188,2.885c0,2.85-0.531,6.053-2.134,10.057l-8.574,24.789 c8.345-4.867,13.958-13.908,13.958-24.264C575.268,280.92,574.021,276.33,571.828,272.334L571.828,272.334z"/><path fill="#21759B" d="M547.197,253.08c-18.041,0-32.721,14.68-32.721,32.721c0,18.043,14.68,32.721,32.721,32.721 s32.723-14.678,32.723-32.721C579.919,267.758,565.238,253.08,547.197,253.08z M547.197,317.02 c-17.215,0-31.219-14.006-31.219-31.223c0-17.213,14.004-31.219,31.219-31.219c17.213,0,31.22,14.006,31.22,31.219 C578.417,303.014,564.41,317.02,547.197,317.02L547.197,317.02z"/></g></g></g><a class="svg-link" alt="{{53}}" href="https://docs.btcpayserver.org/integrations/prestashop" target="black_"><g id="presta"><circle fill="var(--white)" cx="-17.099" cy="336.089" r="54.785"/><g><path id="XMLID_125_" fill="#A0DBE8" d="M-29.086,355.438c0.542-0.248,1.084-0.451,1.648-0.678 c0.632-0.226,1.264-0.451,1.896-0.654c0.79-0.248,1.603-0.452,2.416-0.632c1.106-0.227,2.212-0.406,3.318-0.52 c-0.632,1.965-1.31,3.929-2.077,5.87c0.022,0.384,0.045,0.745,0.067,1.13c1.513-0.295,3.07-0.453,4.674-0.453 c1.603,0,3.161,0.158,4.674,0.453c0-0.385,0.022-0.77,0.067-1.13c-0.745-1.941-1.445-3.905-2.078-5.87 c1.107,0.112,2.236,0.271,3.32,0.52c0.812,0.181,1.603,0.384,2.416,0.632c0.632,0.204,1.264,0.406,1.896,0.654 c0.564,0.205,1.106,0.429,1.648,0.678c3.839,1.717,7.338,4.246,10.207,7.542c7.203-6.21,11.764-15.4,11.764-25.674 c0-18.719-15.173-33.915-33.915-33.915c-18.719,0-33.915,15.174-33.915,33.915c0,10.252,4.561,19.441,11.764,25.674 C-36.424,359.684-32.925,357.154-29.086,355.438z"/><path id="XMLID_124_" fill="#525353" d="M-26.85,361.58c1.58-0.7,3.274-1.242,5.013-1.58c0-0.384-0.023-0.769-0.067-1.13 c0.745-1.941,1.445-3.905,2.078-5.869c-1.106,0.111-2.235,0.27-3.319,0.519c-0.813,0.181-1.604,0.384-2.416,0.632 c-0.632,0.204-1.265,0.407-1.896,0.655l2.461,0.609L-26.85,361.58z"/><path id="XMLID_123_" fill="#525353" d="M-32.676,365.216c0.067-0.632,0.09-1.265,0.09-1.92c0-0.384,0.316-0.7,0.7-0.7h0.61 l2.167-7.18c-3.838,1.716-7.338,4.245-10.206,7.542c1.58,1.376,3.297,2.596,5.103,3.657 C-33.692,366.142-33.195,365.667-32.676,365.216z"/><path id="XMLID_122_" fill="#525353" d="M-5.219,355.438l2.168,7.182h0.609c0.384,0,0.7,0.315,0.7,0.7 c0,0.654,0.045,1.286,0.09,1.918c0.52,0.452,1.039,0.903,1.513,1.4c1.829-1.06,3.523-2.28,5.104-3.658 C2.12,359.684-1.381,357.154-5.219,355.438z"/><path id="XMLID_121_" fill="#525353" d="M-9.351,355.37l2.461-0.61c-0.632-0.226-1.265-0.451-1.896-0.654 c-0.791-0.248-1.604-0.452-2.416-0.632c-1.106-0.227-2.213-0.406-3.32-0.52c0.632,1.965,1.31,3.929,2.078,5.87 c-0.022,0.384-0.045,0.745-0.067,1.13c1.761,0.337,3.432,0.88,5.013,1.58L-9.351,355.37z"/><path id="XMLID_120_" d="M-17.163,362.619h4.787c-0.09-0.881-0.136-1.762-0.113-2.619c-1.513-0.294-3.07-0.452-4.674-0.452 c-1.604,0-3.161,0.158-4.674,0.452c0.022,0.88-0.023,1.738-0.112,2.619H-17.163z"/><path id="XMLID_119_" d="M-34.189,366.615c0.384,0.226,0.791,0.452,1.197,0.678c0.136-0.678,0.249-1.377,0.316-2.077 C-33.195,365.667-33.692,366.142-34.189,366.615z"/><path id="XMLID_118_" d="M-27.167,362.619h5.239c0.09-0.881,0.136-1.762,0.113-2.619c-1.761,0.338-3.432,0.88-5.012,1.58 L-27.167,362.619z"/><path id="XMLID_117_" d="M-1.628,365.216c0.067,0.699,0.18,1.399,0.316,2.077c0.406-0.204,0.791-0.43,1.197-0.678 C-0.612,366.142-1.109,365.667-1.628,365.216z"/><path id="XMLID_116_" d="M-7.138,362.619l-0.316-1.039c-1.58-0.7-3.273-1.242-5.012-1.58c-0.023,0.88,0.022,1.738,0.113,2.619 H-7.138L-7.138,362.619z"/><path id="XMLID_115_" fill="#AA9678" d="M-27.167,362.619l0.316-1.039l1.875-6.21l-2.462-0.61 c-0.564,0.205-1.106,0.429-1.648,0.678l-2.167,7.182h2.326H-27.167L-27.167,362.619z"/><path id="XMLID_114_" fill="#AA9678" d="M-7.455,361.58l0.316,1.039h1.761h2.326l-2.167-7.182 c-0.542-0.248-1.084-0.451-1.648-0.678l-2.461,0.61L-7.455,361.58z"/><path id="XMLID_113_" fill="#C0B098" d="M-31.186,364.064c0.023-0.023,0.045-0.023,0.068-0.046h-0.068 C-31.186,364.02-31.186,364.041-31.186,364.064z"/><path id="XMLID_112_" fill="#C0B098" d="M-17.163,364.02h-4.991h-5.442h-3.522c-0.023,0.021-0.046,0.021-0.068,0.046 c-0.046,1.331-0.226,2.618-0.52,3.882c4.403,2.101,9.325,3.274,14.542,3.274L-17.163,364.02L-17.163,364.02z"/><path id="XMLID_111_" fill="#AA9678" d="M-3.119,364.02h-0.067c0.022,0.021,0.045,0.021,0.067,0.046 C-3.119,364.041-3.119,364.02-3.119,364.02z"/><path id="XMLID_110_" fill="#AA9678" d="M-3.187,364.02h-3.523h-5.465h-4.989l0,0v7.202c5.193,0,10.138-1.174,14.541-3.274 c-0.293-1.264-0.474-2.574-0.52-3.882C-3.141,364.041-3.164,364.02-3.187,364.02z"/><rect id="XMLID_109_" x="-17.163" y="363.319" fill="#786453" width="0" height=".7"/><path id="XMLID_108_" fill="#8B7460" d="M-1.628,365.216c-0.068-0.632-0.09-1.265-0.09-1.92c0-0.384-0.316-0.7-0.7-0.7h-0.61 h-2.371h-1.761h-5.239h-4.788h-4.787h-5.238h-1.762H-31.3h-0.61c-0.384,0-0.7,0.316-0.7,0.7c0,0.655-0.045,1.288-0.09,1.92 c-0.067,0.699-0.181,1.399-0.316,2.077c0.429,0.226,0.858,0.451,1.288,0.654c0.293-1.265,0.474-2.575,0.52-3.883 c0-0.023,0-0.023,0-0.046h0.067h3.523h5.442h4.99l0,0h5.013h5.442h3.522h0.067c0,0.022,0,0.022,0,0.046 c0.045,1.332,0.226,2.618,0.52,3.883c0.429-0.203,0.858-0.429,1.287-0.654C-1.471,366.615-1.561,365.915-1.628,365.216z"/><g><path id="XMLID_107_" fill="none" d="M-5.738,332.158L-5.738,332.158L-5.738,332.158c0.429,1.219,0.903,2.461,1.151,3.726 c0,0.091-0.022,0.181-0.022,0.271c-0.022,0.136-0.046,0.247-0.067,0.36c0.045-0.157,0.067-0.36,0.112-0.586 C-4.812,334.642-5.309,333.4-5.738,332.158L-5.738,332.158L-5.738,332.158L-5.738,332.158z"/><path id="XMLID_106_" fill="none" d="M4.13,339.835c-0.023,0-0.046,0.023-0.067,0.023C4.084,339.835,4.107,339.835,4.13,339.835z"/><path id="XMLID_105_" fill="none" d="M4.355,339.655c-0.022,0.022-0.046,0.045-0.067,0.068 C4.31,339.7,4.333,339.678,4.355,339.655z"/><path id="XMLID_104_" fill="none" d="M-6.754,331.278c-0.791-0.654-1.603-1.265-2.461-1.784l0,0 C-8.357,330.014-7.545,330.6-6.754,331.278z"/><path id="XMLID_103_" fill="none" d="M1.104,339.384C1.104,339.406,1.104,339.406,1.104,339.384 C1.104,339.406,1.104,339.406,1.104,339.384z"/><path id="XMLID_102_" fill="none" d="M2.526,341.19c0.023,0.022,0.045,0.068,0.068,0.09 C2.594,341.235,2.549,341.213,2.526,341.19z"/><path id="XMLID_101_" fill="none" d="M-4.699,336.584c-0.023,0.112-0.046,0.204-0.067,0.271 C-4.745,336.765-4.722,336.675-4.699,336.584z"/><path id="XMLID_100_" fill="none" d="M-8.019,348.958c-0.52,0.858-0.857,1.692-1.039,2.461 C-8.876,350.629-8.539,349.816-8.019,348.958c0.181-0.295,0.339-0.564,0.497-0.836C-7.68,348.371-7.838,348.664-8.019,348.958 C-8.019,348.936-8.019,348.936-8.019,348.958z"/><path id="XMLID_99_" fill="none" d="M-5.738,332.158c0.023-0.067,0.067-0.112,0.09-0.181l0,0 C-5.693,332.045-5.715,332.091-5.738,332.158c0.203,0.181,0.407,0.362,0.61,0.542C-5.332,332.52-5.535,332.339-5.738,332.158z"/><path id="XMLID_98_" fill="none" d="M-12.467,336.606L-12.467,336.606L-12.467,336.606z"/><path id="XMLID_97_" fill="none" d="M-12.716,336.042L-12.716,336.042L-12.716,336.042z"/><path id="XMLID_96_" fill="none" d="M-10.435,328.794c-0.045-0.022-0.09-0.046-0.113-0.068 C-10.503,328.749-10.479,328.771-10.435,328.794z"/><path id="XMLID_95_" fill="none" d="M-10.254,328.885c-0.045-0.023-0.09-0.069-0.136-0.091 C-10.367,328.839-10.299,328.861-10.254,328.885z"/><path id="XMLID_94_" fill="none" d="M-9.147,331.616c0,0.091,0,0.158,0,0.248C-9.147,331.774-9.147,331.707-9.147,331.616z"/><path id="XMLID_93_" fill="none" d="M-12.58,336.312L-12.58,336.312L-12.58,336.312z"/><path id="XMLID_92_" fill="none" d="M3.926,342.974c0.045,0.047,0.09,0.113,0.136,0.158 C4.017,343.087,3.971,343.02,3.926,342.974z"/><path id="XMLID_91_" fill="none" d="M-9.147,332.678c0,0.361-0.023,0.722-0.045,1.061C-9.17,333.4-9.147,333.039-9.147,332.678z"/><path id="XMLID_90_" fill="none" d="M-12.377,336.923L-12.377,336.923L-12.377,336.923z"/><path id="XMLID_89_" fill="none" d="M-9.283,329.449c-0.112-0.068-0.451-0.249-0.745-0.429 C-9.734,329.178-9.418,329.358-9.283,329.449z"/><path id="XMLID_88_" fill="none" d="M-10.051,328.997c-0.068-0.045-0.135-0.091-0.204-0.112 C-10.187,328.93-10.119,328.975-10.051,328.997z"/><path id="XMLID_87_" fill="none" d="M-9.239,329.471L-9.239,329.471L-9.239,329.471L-9.239,329.471z"/><path id="XMLID_86_" fill="none" d="M5.055,337.713c0-0.022,0-0.046,0-0.067l0,0l0,0c0-0.022,0-0.046,0-0.068 c0,0.022,0,0.046,0,0.09C5.055,337.646,5.055,337.69,5.055,337.713z"/><path id="XMLID_85_" fill="none" d="M-0.5,337.51c0.023,0.046,0.067,0.067,0.09,0.112l0,0l0,0 C-0.409,337.601-0.454,337.556-0.5,337.51L-0.5,337.51z"/><path id="XMLID_84_" fill="none" d="M-5.128,332.7c0.451,0.406,0.902,0.836,1.332,1.265 C-4.248,333.536-4.676,333.106-5.128,332.7z"/><path id="XMLID_83_" fill="none" d="M3.7,335.274c0.09,0,0.158,0.021,0.248,0.045C3.859,335.297,3.768,335.274,3.7,335.274z"/><path id="XMLID_82_" fill="none" d="M2.391,336.968c0,0.046-0.023,0.068-0.023,0.112C2.368,337.036,2.391,337.013,2.391,336.968z"/><path id="XMLID_81_" fill="none" d="M4.017,335.342c0.046,0.022,0.113,0.045,0.158,0.091 C4.13,335.41,4.062,335.364,4.017,335.342z"/><path id="XMLID_80_" fill="none" d="M4.537,335.794c0.022,0.021,0.045,0.046,0.045,0.067 C4.558,335.839,4.558,335.815,4.537,335.794z"/><path id="XMLID_79_" fill="none" d="M5.032,337.126L5.032,337.126c0-0.021,0-0.021,0-0.046 C5.032,337.104,5.032,337.126,5.032,337.126L5.032,337.126z"/><path id="XMLID_78_" fill="none" d="M5.032,338.119L5.032,338.119C5.032,338.097,5.032,338.097,5.032,338.119v0.022 C5.032,338.143,5.032,338.143,5.032,338.119z"/><path id="XMLID_77_" fill="none" d="M2.798,335.861c0.022-0.021,0.044-0.046,0.044-0.067 C2.842,335.815,2.82,335.839,2.798,335.861z"/><path id="XMLID_76_" fill="none" d="M3.452,335.319c0.067-0.022,0.158-0.045,0.249-0.045 C3.61,335.274,3.52,335.297,3.452,335.319z"/><path id="XMLID_75_" fill="none" d="M-2.577,335.229c-0.203-0.227-0.429-0.429-0.632-0.654 C-2.983,334.777-2.78,335.003-2.577,335.229z"/><path id="XMLID_74_" fill="none" d="M3.7,327.868L3.7,327.868L3.7,327.868v3.14l-1.197,5.532c0,0.021,0,0.021,0,0.045v-0.023l0,0 l0,0l1.197-5.532V327.868L3.7,327.868L3.7,327.868L3.7,327.868z"/><path id="XMLID_73_" fill="none" d="M-1.448,336.426c-0.113-0.112-0.225-0.248-0.338-0.361 C-1.651,336.2-1.561,336.312-1.448,336.426z"/><path id="XMLID_72_" fill="none" d="M4.897,336.562c0.022,0.046,0.022,0.09,0.045,0.136l0,0 C4.942,336.629,4.92,336.606,4.897,336.562L4.897,336.562L4.897,336.562z"/><path id="XMLID_71_" fill="none" d="M2.323,337.601L2.323,337.601c0-0.022,0-0.045,0-0.068 C2.346,337.577,2.323,337.577,2.323,337.601z"/><path id="XMLID_70_" fill="none" d="M3.226,335.433c0.046-0.047,0.113-0.068,0.158-0.091 C3.316,335.364,3.271,335.41,3.226,335.433z"/><path id="XMLID_69_" fill="none" d="M2.978,335.636c0.045-0.068,0.113-0.112,0.18-0.158 C3.09,335.522,3.023,335.591,2.978,335.636z"/><path id="XMLID_68_" fill="none" d="M4.942,338.549L4.942,338.549c-0.022,0.112-0.067,0.227-0.113,0.338 C4.875,338.797,4.92,338.685,4.942,338.549L4.942,338.549L4.942,338.549z"/><path id="XMLID_67_" fill="none" d="M-36.379,336.562c0.044-0.067,0.112-0.158,0.158-0.226 C-36.266,336.426-36.334,336.494-36.379,336.562z"/><path id="XMLID_66_" fill="none" d="M4.242,335.478c0.067,0.046,0.113,0.113,0.181,0.158 C4.355,335.591,4.31,335.522,4.242,335.478z"/><path id="XMLID_65_" fill="none" d="M-35.408,335.162c0.023-0.022,0.045-0.068,0.067-0.091 C-35.363,335.094-35.385,335.116-35.408,335.162z"/><path id="XMLID_64_" fill="none" d="M-12.308,337.601L-12.308,337.601L-12.308,337.601L-12.308,337.601L-12.308,337.601v-0.022 C-12.308,337.577-12.308,337.577-12.308,337.601z"/><path id="XMLID_63_" fill="none" d="M-37.847,339.271c-0.068,0.113-0.113,0.249-0.181,0.362 C-37.96,339.52-37.915,339.406-37.847,339.271z"/><path id="XMLID_62_" fill="none" d="M-38.592,341.01c0,0.022-0.023,0.046-0.023,0.068 C-38.615,341.055-38.592,341.032-38.592,341.01z"/><path id="XMLID_61_" fill="none" d="M4.537,328.681L4.537,328.681L4.537,328.681L4.537,328.681z"/><path id="XMLID_60_" fill="none" d="M-31.885,331.368L-31.885,331.368L-31.885,331.368z"/><path id="XMLID_59_" fill="none" d="M-33.218,332.588c0.067-0.068,0.136-0.137,0.204-0.205 C-33.083,332.452-33.15,332.52-33.218,332.588z"/><path id="XMLID_58_" fill="none" d="M-34.415,333.897c0.067-0.091,0.136-0.159,0.204-0.249 C-34.279,333.738-34.347,333.807-34.415,333.897z"/><path id="XMLID_57_" fill="none" d="M4.897,336.562L3.7,331.029L4.897,336.562z"/><path id="XMLID_56_" fill="none" d="M-16.147,340.738c-0.023,0-0.045-0.022-0.067-0.022 C-16.193,340.738-16.17,340.738-16.147,340.738z"/><path id="XMLID_55_" fill="none" d="M-15.831,340.783c-0.023,0-0.045,0-0.067-0.021 C-15.876,340.783-15.854,340.783-15.831,340.783z"/><path id="XMLID_54_" fill="none" d="M-37.101,337.804c-0.068,0.136-0.158,0.271-0.226,0.428 C-37.26,338.097-37.192,337.961-37.101,337.804z"/><path id="XMLID_53_" fill="none" d="M-17.051,340.399L-17.051,340.399L-17.051,340.399z"/><path id="XMLID_52_" fill="none" d="M-16.464,340.648c-0.022,0-0.022,0-0.045-0.022 C-16.486,340.648-16.486,340.648-16.464,340.648z"/><path id="XMLID_51_" fill="none" d="M-16.779,340.535L-16.779,340.535L-16.779,340.535z"/><path id="XMLID_50_" fill="none" d="M-18.451,338.819L-18.451,338.819L-18.451,338.819z"/><path id="XMLID_49_" fill="none" d="M-18.609,336.878c0,0.022-0.023,0.046-0.023,0.068 C-18.609,336.923-18.609,336.9-18.609,336.878z"/><path id="XMLID_48_" fill="none" d="M-18.27,336.042L-18.27,336.042L-18.27,336.042z"/><path id="XMLID_47_" fill="none" d="M-17.208,334.936L-17.208,334.936L-17.208,334.936z"/><path id="XMLID_46_" fill="none" d="M-18.518,336.584c0,0.022-0.023,0.022-0.023,0.046 C-18.541,336.629-18.518,336.606-18.518,336.584z"/><path id="XMLID_45_" fill="none" d="M-18.405,336.312c0,0,0,0.022-0.023,0.022L-18.405,336.312z"/><path id="XMLID_44_" fill="none" d="M-14.86,334.484C-14.883,334.484-14.883,334.484-14.86,334.484 C-14.883,334.484-14.883,334.484-14.86,334.484z"/><path id="XMLID_43_" fill="none" d="M-14.296,334.665L-14.296,334.665L-14.296,334.665z"/><path id="XMLID_42_" fill="none" d="M-16.69,334.642L-16.69,334.642L-16.69,334.642z"/><path id="XMLID_41_" fill="none" d="M-16.102,334.484C-16.102,334.484-16.125,334.484-16.102,334.484 C-16.125,334.484-16.102,334.484-16.102,334.484z"/><path id="XMLID_40_" fill="none" d="M-12.332,337.239L-12.332,337.239L-12.332,337.239z"/><path id="XMLID_39_" fill="none" d="M-15.47,327.326c0-0.045,0-0.09,0-0.136C-15.47,327.236-15.47,327.281-15.47,327.326z"/><path id="XMLID_38_" fill="none" d="M-15.47,327.123c0-0.022,0-0.067,0-0.091C-15.47,327.056-15.47,327.077-15.47,327.123z"/><path id="XMLID_37_" fill="none" d="M-15.47,326.987C-15.47,326.965-15.47,326.965-15.47,326.987 C-15.47,326.965-15.47,326.965-15.47,326.987z"/><path id="XMLID_36_" fill="none" d="M-15.47,327.756v-0.046v-0.136c0-0.046,0-0.091,0-0.136 C-15.47,327.529-15.47,327.642-15.47,327.756z"/><path id="XMLID_35_" fill="none" d="M4.625,339.316c-0.044,0.045-0.067,0.112-0.112,0.158 C4.558,339.43,4.604,339.361,4.625,339.316z"/><path id="XMLID_34_" fill="none" d="M-18.654,337.216c0,0.023,0,0.046-0.022,0.068 C-18.676,337.261-18.676,337.239-18.654,337.216z"/><path id="XMLID_33_" fill="none" d="M-18.631,338.232L-18.631,338.232L-18.631,338.232z"/><path id="XMLID_32_" fill="none" d="M4.807,338.978c-0.023,0.067-0.067,0.158-0.113,0.226 C4.739,339.136,4.762,339.068,4.807,338.978z"/><path id="XMLID_31_" fill="#525353" d="M-7.455,357.764c-0.112-0.111-0.203-0.248-0.316-0.384 C-7.658,357.538-7.545,357.651-7.455,357.764L-7.455,357.764z"/><path id="XMLID_30_" fill="#AA9678" d="M-6.664,358.555L-6.664,358.555L-6.664,358.555c0,0-0.338-0.271-0.791-0.768l0,0 C-7.002,358.283-6.664,358.555-6.664,358.555z"/><ellipse id="XMLID_29_" fill="var(--white)" cx="3.698" cy="327.866" rx="0" ry="0"/><path id="XMLID_28_" fill="var(--white)" d="M5.055,337.623L5.055,337.623L5.055,337.623L5.055,337.623z"/><path id="XMLID_27_" fill="#BBBCBD" d="M5.416,329.766L5.416,329.766L5.416,329.766C5.416,329.766,5.416,329.742,5.416,329.766 L5.416,329.766c-0.293-0.406-0.587-0.769-0.88-1.085l0,0l0,0l0,0l0,0c-0.136-0.158-0.271-0.293-0.407-0.428 c-0.045-0.047-0.113-0.091-0.158-0.137c-0.09-0.09-0.181-0.158-0.271-0.226l0,0v3.161l1.197,5.532l0,0 c0.022,0.046,0.022,0.091,0.045,0.137l0.836,0.948l0,0H6.66c0-0.091,0-0.159,0-0.248l0,0c0-2.62-0.429-5.127-1.197-7.476l0,0 C5.439,329.854,5.439,329.811,5.416,329.766z"/><path id="XMLID_26_" fill="#BBBCBD" d="M5.055,337.623L5.055,337.623L5.055,337.623L5.055,337.623z"/><path id="XMLID_25_" fill="#676A6A" d="M5.032,337.104v0.021c0,0,0,0,0,0.022l0,0c0.023,0.136,0.023,0.271,0.023,0.407 c0,0.022,0,0.045,0,0.067l0,0l0,0c0,0.022,0,0.045,0,0.068c0,0.135,0,0.271-0.023,0.384l0,0v0.021v0.022 c-0.022,0.136-0.045,0.271-0.067,0.407l0,0l0,0l0,0l0,0l0,0l0.835-0.927l-0.835-0.948l0,0 C4.987,336.81,5.01,336.945,5.032,337.104z"/><path d="M5.01,338.164c0-0.021,0-0.021,0-0.045c0.022-0.136,0.022-0.271,0.022-0.383c0-0.023,0-0.069,0-0.091 c0-0.022,0-0.046,0-0.09c0-0.136,0-0.271-0.022-0.407c0-0.022,0-0.022,0-0.045c-0.022-0.137-0.045-0.271-0.068-0.407 c-0.022-0.046-0.022-0.09-0.045-0.136c-0.09-0.27-0.181-0.496-0.316-0.7c-0.022-0.021-0.045-0.045-0.045-0.067 c-0.045-0.045-0.067-0.091-0.113-0.136c-0.045-0.067-0.113-0.112-0.18-0.157c-0.022-0.023-0.045-0.023-0.067-0.046 c-0.045-0.046-0.113-0.068-0.158-0.09c-0.023,0-0.046-0.023-0.067-0.023c-0.068-0.022-0.158-0.046-0.249-0.046 s-0.158,0.023-0.249,0.046c-0.023,0-0.046,0.023-0.067,0.023c-0.046,0.021-0.113,0.045-0.158,0.09 c-0.023,0.021-0.045,0.021-0.067,0.046c-0.067,0.045-0.113,0.111-0.181,0.157c-0.045,0.045-0.067,0.091-0.113,0.136 c-0.022,0.022-0.045,0.046-0.045,0.067c-0.136,0.204-0.249,0.43-0.316,0.7v0.022c-0.045,0.113-0.067,0.248-0.09,0.384 c0,0.046-0.022,0.069-0.022,0.113c-0.022,0.158-0.022,0.294-0.045,0.451c0,0.023,0,0.046,0,0.068l0,0 c0,1.287,0.61,2.349,1.354,2.349c0.136,0,0.249-0.046,0.384-0.09c0.023,0,0.046-0.023,0.067-0.023 c0.046-0.021,0.09-0.067,0.136-0.09c0.022-0.021,0.045-0.045,0.067-0.067c0.067-0.045,0.113-0.112,0.181-0.181 c0.045-0.045,0.067-0.09,0.112-0.158c0.022-0.045,0.045-0.068,0.067-0.112c0.045-0.067,0.067-0.136,0.113-0.226 c0.023-0.022,0.023-0.047,0.046-0.091c0.045-0.112,0.067-0.226,0.113-0.339C4.987,338.436,5.01,338.3,5.01,338.164z M3.746,337.307c-0.294,0-0.52-0.384-0.52-0.881c0-0.475,0.226-0.88,0.52-0.88c0.293,0,0.52,0.384,0.52,0.88 C4.265,336.923,4.017,337.307,3.746,337.307z"/><ellipse id="XMLID_22_" fill="var(--white)" cx="3.746" cy="336.426" rx=".52" ry=".881"/><path id="XMLID_21_" fill="#909393" d="M2.481,336.562L2.481,336.562c0.09-0.271,0.18-0.496,0.316-0.7 c0.022-0.021,0.044-0.046,0.044-0.067c0.045-0.046,0.068-0.091,0.113-0.136c0.045-0.067,0.113-0.112,0.18-0.158 c0.023-0.022,0.046-0.022,0.067-0.045c0.046-0.046,0.113-0.069,0.158-0.091c0.023,0,0.045-0.022,0.067-0.022 c0.067-0.022,0.158-0.045,0.249-0.045c0.091,0,0.158,0.021,0.249,0.045c0.022,0,0.045,0.022,0.067,0.022 c0.045,0.021,0.113,0.046,0.158,0.091c0.023,0.021,0.045,0.021,0.068,0.045c0.067,0.046,0.113,0.112,0.18,0.158 c0.045,0.045,0.067,0.09,0.113,0.136c0.023,0.021,0.045,0.046,0.045,0.067c0.136,0.204,0.249,0.43,0.316,0.7l0,0l0,0 l-1.197-5.532L2.481,336.562L2.481,336.562L2.481,336.562z"/><path d="M-12.308,337.577c0-0.112,0-0.227-0.023-0.338l0,0c-0.022-0.113-0.022-0.204-0.045-0.316l0,0 c-0.022-0.113-0.045-0.204-0.09-0.294l0,0c-0.023-0.09-0.068-0.204-0.113-0.294l0,0c-0.045-0.09-0.09-0.18-0.136-0.271l0,0 c-0.158-0.271-0.338-0.52-0.564-0.723c-0.293-0.271-0.632-0.496-0.994-0.655l0,0c-0.181-0.067-0.384-0.135-0.564-0.18 c0,0,0,0-0.023,0c-0.204-0.045-0.407-0.068-0.61-0.068c-0.204,0-0.407,0.023-0.61,0.068h-0.023 c-0.203,0.046-0.384,0.091-0.564,0.158c0,0,0,0-0.023,0c-0.18,0.067-0.361,0.157-0.519,0.271l0,0 c-0.158,0.113-0.316,0.227-0.452,0.361l0,0h-0.022c-0.226,0.227-0.429,0.474-0.587,0.745l0,0c-0.045,0.09-0.09,0.181-0.135,0.271 c0,0,0,0.022-0.023,0.022c-0.045,0.09-0.067,0.158-0.09,0.248c0,0.022-0.023,0.022-0.023,0.046 c-0.022,0.09-0.045,0.158-0.067,0.248c0,0.022-0.022,0.046-0.022,0.068c-0.023,0.09-0.023,0.158-0.046,0.248 c0,0.021,0,0.046-0.023,0.067c0,0.113-0.022,0.227-0.022,0.339c0,0.204,0.022,0.406,0.067,0.609c0,0,0,0,0,0.022 c0.046,0.204,0.09,0.384,0.181,0.588l0,0c0.158,0.36,0.384,0.7,0.655,0.993c0.225,0.226,0.474,0.429,0.745,0.587l0,0 c0.09,0.045,0.181,0.09,0.271,0.136h0.023c0.09,0.046,0.18,0.067,0.249,0.09c0.022,0,0.022,0,0.045,0.023 c0.09,0.021,0.158,0.044,0.248,0.067c0.023,0,0.046,0.021,0.067,0.021c0.09,0.022,0.158,0.022,0.249,0.046 c0.022,0,0.045,0,0.067,0.022c0.113,0,0.226,0.021,0.339,0.021c0.451,0,0.857-0.09,1.241-0.247 c0.181-0.091,0.361-0.181,0.542-0.294c0.338-0.227,0.632-0.52,0.858-0.858c0.113-0.181,0.203-0.361,0.293-0.542 c0.158-0.384,0.249-0.812,0.249-1.241v-0.023l0,0C-12.308,337.577-12.308,337.577-12.308,337.577L-12.308,337.577z M-15.493,337.194c-0.654,0-1.197-0.543-1.197-1.197s0.542-1.196,1.197-1.196c0.655,0,1.197,0.542,1.197,1.196 S-14.837,337.194-15.493,337.194z"/><circle id="XMLID_18_" fill="var(--white)" cx="-15.493" cy="335.997" r="1.197"/><path id="XMLID_17_" fill="#BBBCBD" d="M-17.706,335.297L-17.706,335.297L-17.706,335.297L-17.706,335.297L-17.706,335.297 l2.212-6.75c0,0,0-0.407,0-0.791c0-0.113,0-0.226,0-0.316c0-0.046,0-0.067,0-0.09c0-0.045,0-0.091,0-0.136 c0-0.022,0-0.067,0-0.091c0-0.021,0-0.067,0-0.09s0-0.045,0-0.045c0-0.022,0-0.022,0-0.022c-1.219-0.248-2.483-0.384-3.771-0.384 c-0.428,0-0.858,0.022-1.288,0.045c-0.067,0-0.113,0-0.18,0.022c-2.213,0.158-4.381,0.744-6.39,1.671 c-1.716,0.79-3.342,1.829-4.765,3.049l0,0l0,0c-0.384,0.338-0.768,0.678-1.128,1.038c-0.068,0.067-0.136,0.136-0.204,0.204 c-0.338,0.338-0.677,0.7-0.994,1.061c-0.068,0.091-0.136,0.158-0.203,0.248c-0.316,0.384-0.632,0.768-0.926,1.152 c-0.022,0.022-0.045,0.068-0.067,0.09c-0.271,0.384-0.542,0.769-0.813,1.175c-0.045,0.068-0.113,0.157-0.158,0.226 c-0.204,0.339-0.407,0.678-0.587,1.017h10.003h0.023L-17.706,335.297z"/><path id="XMLID_16_" fill="#E2DDDB" d="M-9.239,334.552c0.023-0.271,0.046-0.521,0.046-0.79c0.022-0.362,0.022-0.7,0.045-1.062 c0-0.271,0-0.542,0-0.836c0-0.09,0-0.157,0-0.248c0-0.722-0.045-1.422-0.067-2.146l0,0l0,0l0,0l0,0c0,0-0.023,0-0.023-0.021 c0,0-0.022,0-0.022-0.022c-0.135-0.067-0.452-0.248-0.745-0.429h-0.022c-0.068-0.046-0.136-0.091-0.204-0.112l0,0 c-0.045-0.022-0.09-0.068-0.135-0.09l-0.023-0.023c-0.045-0.022-0.09-0.045-0.112-0.067c-0.452-0.248-0.926-0.452-1.4-0.655 c-1.129-0.474-2.665-0.901-3.545-1.106v0.61v0.136v0.045c0,0.407,0,0.791,0,0.791l2.19,6.729l0,0 c0.226,0.204,0.428,0.451,0.564,0.723l0,0c0.045,0.091,0.09,0.181,0.135,0.271l0,0c0.046,0.089,0.09,0.179,0.113,0.293l0,0 c0.023,0.091,0.067,0.203,0.09,0.294l0,0c0.022,0.113,0.045,0.204,0.045,0.315l0,0c0.022,0.113,0.022,0.227,0.022,0.339l0,0 v0.023h2.665C-9.441,336.539-9.306,335.546-9.239,334.552C-9.239,334.598-9.239,334.574-9.239,334.552z"/><path id="XMLID_15_" fill="#FBB040" d="M-5.738,332.158L-5.738,332.158L-5.738,332.158L-5.738,332.158z"/><path id="XMLID_14_" fill="#FBB040" d="M-12.287,347.196c0.61-0.609,1.173-1.174,1.716-1.738 c0.316-0.339,0.632-0.678,0.948-0.993c2.235-2.417,3.861-4.697,4.854-7.609c0.022-0.068,0.045-0.159,0.067-0.271 c0-0.022,0-0.022,0-0.045c0.023-0.113,0.045-0.227,0.067-0.362c0-0.091,0.023-0.18,0.023-0.271 c-0.249-1.265-0.723-2.506-1.151-3.726c0,0,0,0,0,0.023c0,0,0,0-0.022-0.023c-0.09-0.067-0.158-0.157-0.249-0.226 c-0.249-0.227-0.497-0.452-0.768-0.678c-0.79-0.654-1.603-1.265-2.461-1.784l0,0c0.045,0.723,0.067,1.423,0.067,2.145 c0,0.091,0,0.158,0,0.249c0,0.271,0,0.542,0,0.836c0,0.36-0.023,0.722-0.046,1.061c-0.023,0.271-0.023,0.52-0.045,0.79 c0,0.022,0,0.046,0,0.09c-0.09,0.994-0.203,1.987-0.384,2.958l-0.316,1.49c-0.655,2.665-1.987,5.058-3.071,7.542 c-0.293,0.654-0.565,1.332-0.813,2.009c-0.022,0.068-0.045,0.136-0.067,0.204c0.339-0.362,0.654-0.679,0.88-0.903 C-12.761,347.671-12.535,347.423-12.287,347.196z"/><path id="XMLID_13_" fill="#909393" d="M-17.683,335.297L-17.683,335.297c0.135-0.135,0.293-0.248,0.452-0.361l0,0 c0.158-0.113,0.339-0.203,0.52-0.271c0,0,0,0,0.022,0c0.18-0.067,0.361-0.136,0.565-0.158h0.023 c0.203-0.045,0.407-0.068,0.609-0.068c0.204,0,0.407,0.023,0.61,0.068c0,0,0,0,0.022,0c0.203,0.046,0.384,0.091,0.564,0.18l0,0 c0.361,0.159,0.7,0.362,0.994,0.655l0,0l-2.19-6.729L-17.683,335.297z"/><path id="XMLID_12_" fill="#676A6A" d="M-18.451,338.819c-0.067-0.181-0.135-0.384-0.18-0.587c0,0,0,0,0-0.022 c-0.045-0.203-0.068-0.406-0.068-0.609c0-0.112,0-0.227,0.023-0.339c0-0.022,0-0.046,0.022-0.067c0-0.09,0.023-0.157,0.046-0.248 c0-0.022,0.023-0.046,0.023-0.068c0.022-0.09,0.045-0.157,0.067-0.248c0-0.022,0.022-0.022,0.022-0.046 c0.023-0.09,0.068-0.18,0.09-0.248c0,0,0-0.022,0.022-0.022c0.046-0.09,0.09-0.181,0.135-0.271l0,0 c0.158-0.271,0.362-0.52,0.587-0.745l0,0l-9.258,2.281h-0.022l9.167,2.234C-18.067,339.542-18.293,339.203-18.451,338.819 L-18.451,338.819z"/><path id="XMLID_11_" fill="#E2DDDB" d="M2.368,337.08c0-0.044,0.023-0.089,0.023-0.112c0.022-0.136,0.045-0.271,0.09-0.384 c0-0.022,0-0.022,0-0.045l1.197-5.532v-3.161c-0.994-0.813-2.032-1.265-3.139-1.265c-1.4,0-2.687,0.768-3.658,1.716 c-1.061,1.039-1.874,2.349-2.551,3.658c-0.023,0.068-0.067,0.112-0.09,0.18c0.203,0.181,0.407,0.362,0.609,0.543 c0.452,0.405,0.903,0.835,1.333,1.265c0.204,0.203,0.406,0.405,0.609,0.609c0.203,0.226,0.429,0.429,0.632,0.654 c0.271,0.294,0.542,0.563,0.791,0.858c0.113,0.112,0.225,0.248,0.338,0.361c0.316,0.362,0.632,0.7,0.948,1.062l0,0 c0.046,0.045,0.09,0.09,0.113,0.112h2.732c0-0.022,0-0.045,0-0.068C2.346,337.396,2.346,337.239,2.368,337.08z"/><path id="XMLID_10_" fill="#E2DDDB" d="M-5.738,332.158L-5.738,332.158L-5.738,332.158L-5.738,332.158 C-5.738,332.181-5.738,332.181-5.738,332.158C-5.738,332.181-5.738,332.181-5.738,332.158z"/><path id="XMLID_9_" fill="#525353" d="M-38.615,341.078c0-0.022,0.023-0.046,0.023-0.068c0.18-0.451,0.362-0.902,0.564-1.354 c0.046-0.136,0.113-0.249,0.181-0.361c0.158-0.361,0.338-0.7,0.52-1.039c0.067-0.136,0.135-0.27,0.226-0.43 c0.045-0.067,0.09-0.156,0.136-0.225c0.203-0.339,0.384-0.678,0.587-1.017c0.045-0.068,0.112-0.158,0.158-0.226 c0.249-0.407,0.52-0.791,0.813-1.175c0.023-0.021,0.046-0.067,0.067-0.09c0.294-0.407,0.61-0.791,0.926-1.151 c0.067-0.09,0.136-0.158,0.204-0.249c0.316-0.362,0.654-0.722,0.994-1.061c0.067-0.068,0.135-0.136,0.203-0.204 c0.362-0.361,0.723-0.7,1.129-1.038l0,0c1.513-5.104,6.187-8.829,11.696-8.829c2.212,0,4.425,0.633,6.322,1.807 c1.942,1.196,3.523,2.936,4.539,4.945c0,0,0,0.022,0.022,0.022c0.023,0.045,0.046,0.09,0.09,0.158l0,0l0,0l0,0l0,0 c0.858,0.52,1.671,1.129,2.461,1.784c0.271,0.226,0.52,0.451,0.768,0.678c0.09,0.067,0.158,0.158,0.249,0.226l0,0l0,0 c0.023-0.067,0.045-0.112,0.09-0.181c0.768-4.899,2.936-8.445,5.487-8.445c1.919,0,3.635,2.01,4.674,5.104v0.022l0,0 c0.294,0.316,0.586,0.679,0.881,1.062l0,0c0,0,0,0.022,0.023,0.022l0,0l0,0c0.023,0.046,0.023,0.089,0.045,0.135l0,0 l-0.045-0.157c-3.184-9.394-12.058-16.168-22.535-16.168c-13.142,0-23.777,10.637-23.777,23.777c0,2.598,0.407,5.08,1.174,7.407 c0,0,0,0,0-0.022c0.158-0.701,0.339-1.4,0.542-2.078C-38.999,342.116-38.818,341.597-38.615,341.078z"/><path id="XMLID_8_" fill="var(--white)" d="M5.778,337.623l-0.836,0.926l0,0l0,0c-0.022,0.112-0.067,0.227-0.113,0.338 c0,0.022-0.023,0.046-0.046,0.091c-0.022,0.067-0.067,0.158-0.113,0.226c-0.022,0.046-0.045,0.067-0.067,0.113 c-0.045,0.045-0.067,0.112-0.112,0.158c-0.045,0.067-0.113,0.136-0.181,0.18c-0.022,0.022-0.045,0.046-0.067,0.068 c-0.045,0.045-0.09,0.067-0.136,0.09c-0.023,0-0.045,0.022-0.067,0.022c-0.113,0.067-0.248,0.09-0.384,0.09 c-0.745,0-1.355-1.038-1.355-2.348l0,0l0,0h-2.732l0,0l0,0c0.52,0.586,1.016,1.174,1.49,1.783l0.022,0.023 c0.474,0.586,0.948,1.174,1.422,1.76c0.022,0.023,0.045,0.069,0.067,0.091c0.451,0.564,0.881,1.129,1.31,1.693 c0.045,0.045,0.09,0.111,0.135,0.157c0.452,0.61,0.903,1.219,1.354,1.807c0,0,0,0,0,0.022c0.791-2.325,1.219-4.787,1.242-7.36 l0,0L5.778,337.623L5.778,337.623z"/><path id="XMLID_7_" d="M-20.73,326.626c0.067,0,0.112,0,0.18-0.022c0.429-0.021,0.858-0.045,1.288-0.045 c1.287,0,2.551,0.136,3.771,0.384c0,0,0,0,0,0.022c0,0,0,0.022,0,0.045s0,0.046,0,0.091c0,0.022,0,0.046,0,0.09 c0,0.045,0,0.091,0,0.136c0,0.022,0,0.067,0,0.091c0,0.046,0,0.09,0,0.135v-0.609c0.858,0.204,2.394,0.632,3.545,1.106 c0.474,0.204,0.948,0.429,1.4,0.655c0.023,0,0.068,0.021,0.113,0.067c0,0,0.022,0,0.022,0.022 c0.046,0.021,0.09,0.045,0.136,0.091l0,0c0.068,0.045,0.136,0.067,0.203,0.111h0.022c0.294,0.158,0.61,0.362,0.745,0.429 c0.023,0,0.023,0.022,0.023,0.022l0.023,0.022l0,0c-0.023-0.045-0.046-0.091-0.09-0.158c0,0,0-0.022-0.023-0.022 c-1.017-2.032-2.619-3.771-4.539-4.945c-1.896-1.151-4.109-1.806-6.322-1.806c-5.509,0-10.184,3.726-11.696,8.829 c1.445-1.243,3.049-2.281,4.765-3.049C-25.111,327.372-22.921,326.807-20.73,326.626z"/><line id="XMLID_6_" fill="none" x1="-15.47" y1="327.574" x2="-15.47" y2="327.71"/><path id="XMLID_5_" d="M-3.096,328.32c0.971-0.948,2.258-1.718,3.658-1.718c1.106,0,2.167,0.453,3.139,1.265l0,0l0,0l0,0 c0.09,0.069,0.181,0.158,0.271,0.227c0.045,0.045,0.113,0.09,0.158,0.136c0.136,0.136,0.271,0.271,0.407,0.428l0,0l0,0l0,0l0,0 v-0.021c-1.062-3.093-2.755-5.104-4.674-5.104c-2.552,0-4.719,3.523-5.487,8.445l0,0C-4.993,330.668-4.158,329.358-3.096,328.32z"/><path id="XMLID_4_" fill="var(--white)" d="M-25.631,359.548c0.225,0.09,0.428,0.158,0.654,0.226c2.461,0.858,5.103,1.332,7.858,1.332 c3.138,0,6.142-0.608,8.874-1.716c0.136-0.068,0.293-0.113,0.428-0.181c0.226-0.09,0.474-0.203,0.7-0.316 c0.204-0.09,0.406-0.18,0.61-0.293c-0.045,0-0.09,0.022-0.136,0.022l0,0c-0.857,0.09-1.693,0.112-2.529-0.022 c-4.899-0.7-5.983-3.071-5.826-5.51c-0.362-0.204-0.7-0.429-1.084-0.7c-3.771-2.733-6.006-5.645-6.006-5.645 s2.913,2.234,7.248,3.929c0.09,0.045,0.181,0.068,0.271,0.113c0.203-0.701,0.452-1.378,0.654-1.965l0,0 c0.023-0.068,0.046-0.136,0.067-0.204c0.249-0.677,0.52-1.354,0.813-2.01c1.084-2.483,2.416-4.899,3.071-7.54l0.316-1.491h-2.664 l0,0l0,0l0,0l0,0l0,0v0.022c0,0.452-0.09,0.858-0.249,1.242c-0.09,0.181-0.181,0.384-0.293,0.542 c-0.226,0.339-0.519,0.633-0.858,0.858c-0.181,0.112-0.362,0.203-0.542,0.293c-0.384,0.158-0.813,0.248-1.242,0.248 c-0.113,0-0.226,0-0.339-0.021c-0.023,0-0.045,0-0.068-0.022c-0.09,0-0.158-0.022-0.248-0.046c-0.023,0-0.045-0.021-0.068-0.021 c-0.09-0.023-0.157-0.046-0.249-0.069c-0.022,0-0.022,0-0.045-0.021c-0.09-0.022-0.181-0.067-0.248-0.09h-0.023 c-0.09-0.046-0.181-0.091-0.271-0.136l0,0c-0.271-0.158-0.52-0.339-0.746-0.587l-9.167-2.235h-10.001 c-0.045,0.068-0.09,0.158-0.136,0.226c-0.067,0.137-0.158,0.271-0.226,0.429c-0.181,0.339-0.361,0.7-0.52,1.039 c-0.068,0.112-0.113,0.249-0.181,0.361c-0.204,0.452-0.384,0.903-0.564,1.354c0,0.022-0.023,0.047-0.023,0.068 c-0.203,0.52-0.383,1.062-0.542,1.603c-0.203,0.678-0.383,1.377-0.542,2.078c1.58,4.809,4.63,8.941,8.648,11.832 c0.112,0.09,0.248,0.157,0.361,0.248c0.677,0.474,1.377,0.926,2.101,1.31C-27.64,358.668-26.648,359.141-25.631,359.548z"/><path id="XMLID_3_" fill="#9F2255" d="M-9.216,352.142c-0.045,0.249-0.067,0.497-0.067,0.745 c-0.023,0.429,0.023,0.857,0.09,1.242c0.045,0.271,0.09,0.52,0.158,0.769c0.113,0.361,0.225,0.699,0.384,1.016 c0.158,0.315,0.316,0.61,0.474,0.858c0.045,0.09,0.113,0.181,0.158,0.248c0.091,0.112,0.158,0.226,0.249,0.338 c0.113,0.136,0.226,0.271,0.316,0.385c0.429,0.496,0.791,0.768,0.791,0.768s0,0,0,0.023c0,0.021,0,0.045,0.023,0.067l0,0 c0.045,0,0.09-0.022,0.136-0.022c1.061-0.136,2.122-0.43,3.184-0.791c0.542-0.203,1.084-0.406,1.604-0.632 c0.158-0.067,0.316-0.158,0.474-0.227c5.442-2.642,10.003-7.293,10.003-7.293C1.939,353-4.767,352.864-9.216,352.142z"/><path id="XMLID_2_" fill="#E2066F" d="M3.926,342.974c-0.429-0.563-0.881-1.128-1.31-1.692c-0.022-0.022-0.045-0.067-0.067-0.09 c-0.474-0.588-0.948-1.175-1.422-1.761l-0.023-0.022c-0.497-0.61-0.993-1.197-1.49-1.785c-0.022-0.045-0.067-0.067-0.09-0.111 c-0.317-0.362-0.632-0.701-0.948-1.062c-0.113-0.113-0.226-0.248-0.338-0.361c-0.271-0.295-0.52-0.564-0.791-0.859 c-0.204-0.226-0.429-0.428-0.632-0.653c-0.204-0.204-0.407-0.407-0.609-0.61c-0.43-0.429-0.881-0.858-1.333-1.265 c-0.203-0.181-0.406-0.361-0.609-0.542l0,0c0.428,1.242,0.925,2.483,1.173,3.771c0.067,0.338,0.113,0.654,0.158,0.971 c0.61,4.447-0.836,7.36-3.094,11.199c-0.158,0.271-0.339,0.564-0.497,0.836c-0.52,0.858-0.858,1.693-1.039,2.461 c-0.067,0.249-0.113,0.497-0.158,0.744c4.448,0.724,11.132,0.859,17.973-2.506c0,0-1.332-1.964-3.364-4.674 c-0.451-0.61-0.902-1.219-1.354-1.807C4.017,343.087,3.971,343.02,3.926,342.974z"/><path id="XMLID_1_" d="M-6.664,358.555c0,0-0.338-0.271-0.791-0.768c-0.112-0.113-0.203-0.249-0.316-0.385 c-0.09-0.112-0.158-0.226-0.249-0.339c-0.045-0.09-0.113-0.157-0.158-0.248c-0.158-0.271-0.316-0.542-0.474-0.857 c-0.136-0.316-0.271-0.655-0.384-1.017c-0.067-0.248-0.136-0.497-0.158-0.768c-0.067-0.384-0.09-0.813-0.09-1.243 c0-0.247,0.023-0.495,0.067-0.744c0.045-0.248,0.09-0.496,0.158-0.745c0.203-0.768,0.52-1.58,1.039-2.461l0,0 c0.158-0.293,0.339-0.563,0.497-0.836c2.258-3.839,3.703-6.729,3.093-11.199c-0.046-0.316-0.09-0.654-0.158-0.971 c-0.023,0.226-0.068,0.429-0.113,0.586c0,0.022,0,0.022,0,0.046c-0.022,0.112-0.045,0.203-0.067,0.271 c-0.994,2.912-2.619,5.193-4.854,7.608c-0.294,0.338-0.61,0.654-0.948,0.994c-0.543,0.564-1.13,1.151-1.716,1.739 c-0.249,0.248-0.497,0.474-0.745,0.722c-0.226,0.227-0.542,0.542-0.881,0.902l0,0c-0.204,0.588-0.451,1.265-0.654,1.965 c-0.091-0.045-0.181-0.067-0.271-0.112c-4.335-1.671-7.248-3.93-7.248-3.93s2.235,2.914,6.006,5.646 c0.361,0.271,0.722,0.497,1.084,0.699c-0.158,2.461,0.925,4.811,5.826,5.511c0.836,0.112,1.671,0.112,2.529,0.021 C-6.641,358.6-6.664,358.577-6.664,358.555L-6.664,358.555z"/></g></g><text transform="matrix(1 0 0 1 -45.0356 415.6689)" font-family="'Open Sans'" class="alt-tooktip" font-size="12">{{53}}</text></g></a><g id="btc"><path fill="var(--white)" d="M241.332,44.999c35.1,0,63.542,28.442,63.542,63.526s-28.442,63.526-63.542,63.526 c-35.093,0-63.535-28.441-63.535-63.526S206.238,44.999,241.332,44.999z"/><path fill="#CDD932" d="M234.9,97.04V79.386l19.621,10.209l-14.448,11.53l6.816,5.382l16.807-13.288 c1.719-1.452,2.848-2.627,2.752-4.533c-0.134-2.73-1.787-3.761-3.283-4.415l-29.861-15.47c0,0-3.297-1.655-5.429,1.023 c-0.744,0.934-0.877,3.745-0.877,3.745v67.004h0.058c-0.07-2.749,2.258-4.034,2.258-4.034l5.588-2.91v-17.655L234.9,97.04z"/><path fill="#1D7A44" d="M246.888,106.507L234.9,97.04v18.941L246.888,106.507z"/><path fill="#51B13E" d="M263.695,119.794l-16.807-13.286l-6.815,5.38l14.447,11.529l-19.62,10.212l-5.588,2.91 c0,0-2.33,1.284-2.26,4.034c0.016,0.688,0.18,1.462,0.57,2.336c1.441,3.229,5.677,1.304,5.677,1.304l29.864-15.47 c1.496-0.654,3.147-1.686,3.282-4.414C266.542,122.421,265.413,121.247,263.695,119.794z"/></g></svg>