<svg enable-background="new 0 0 599.925 332.958" height="332.958" viewBox="0 0 599.925 332.958" width="599.925" xmlns="http://www.w3.org/2000/svg" xmlns:xlink="http://www.w3.org/1999/xlink"><linearGradient id="a" gradientTransform="matrix(1 0 0 -1 -56 187.958)" gradientUnits="userSpaceOnUse" x1="355.9634" x2="355.9634" y1="-144.999" y2="187.958"><stop offset="0" stop-color="#2b6427"/><stop offset="1" stop-color="#003024"/></linearGradient><path d="m0 0h599.925v332.958h-599.925z" fill="url(#a)"/><path d="m231.963 176.479c0 41.236 31.429 70 72.667 70s74.666-31.43 74.666-72.667-31.43-72-72.666-72c-41.237 0-74.667 33.43-74.667 74.667z" fill="#804e19"/><path d="m334.625 179.521c-.986-.751-2.057-1.375-3.295-2.065.377-.105.598-.166.818-.229 1.633-.487 3.191-1.149 4.488-2.267 4.254-3.664 5.41-8.455 4.699-13.764-.477-3.555-2.652-6.169-5.438-8.303-2.92-2.236-6.246-3.688-9.689-4.889-.592-.206-.658-.443-.516-.994.982-3.824 1.922-7.658 2.908-11.481.146-.566.098-.809-.535-.952-2.174-.491-4.334-1.029-6.49-1.592-.545-.143-.76-.097-.904.511-.904 3.748-1.863 7.48-2.785 11.223-.127.512-.258.723-.879.557-1.672-.452-3.371-.813-5.064-1.189-.455-.101-.582-.246-.453-.75.982-3.823 1.92-7.658 2.895-11.483.117-.452.062-.655-.418-.771-2.26-.54-4.51-1.099-6.758-1.673-.48-.123-.639.003-.756.482-.957 3.902-1.959 7.793-2.91 11.697-.14.569-.349.619-.858.49-4.889-1.225-9.785-2.419-14.673-3.646-.48-.12-.649-.043-.766.449-.494 2.091-1.03 4.173-1.556 6.256-.397 1.572-.395 1.547 1.195 1.942 1.817.452 3.686.744 5.41 1.512 1.918.854 2.812 2.678 2.317 4.658-2.868 11.466-5.74 22.93-8.613 34.394-.512 2.042-1.804 2.871-3.879 2.418-1.648-.358-3.286-.778-4.913-1.224-.549-.151-.808-.098-1.047.474-1.085 2.586-2.215 5.153-3.357 7.714-.219.493-.197.688.384.829 4.896 1.205 9.781 2.446 14.675 3.653.505.125.608.281.475.802-1.001 3.892-1.949 7.795-2.946 11.688-.148.576-.125.838.548.986 2.151.479 4.292 1.006 6.418 1.583.658.181.83-.001.976-.603.927-3.814 1.91-7.613 2.829-11.43.156-.646.375-.738.986-.561 1.576.453 3.167.859 4.769 1.223.629.143.744.37.586.984-.99 3.82-1.932 7.652-2.917 11.477-.136.527-.019.711.505.834 2.1.49 4.188 1.025 6.284 1.543.988.243.984.24 1.24-.779.945-3.782 1.902-7.563 2.832-11.354.131-.539.316-.703.9-.582 1.193.25 2.404.428 3.613.584 3.551.461 7.105.672 10.668.066 4.746-.805 8.492-3.117 11.006-7.271 1.441-2.386 2.371-4.977 2.914-7.699 1.082-5.47-.392-10.032-4.923-13.478zm-12.497 14.147c-1.436 1.982-3.562 2.711-5.875 3.068-.977.151-1.961.178-2.951.17-3.445-.039-6.799-.717-10.131-1.525-1.229-.297-2.449-.635-3.683-.922-.448-.104-.535-.281-.423-.727 1.369-5.408 2.717-10.822 4.082-16.232.053-.213-.023-.608.475-.494 4.105.957 8.244 1.818 12.145 3.479 1.842.783 3.578 1.743 5.09 3.077 3.805 3.356 3.027 7.687 1.271 10.106zm3.594-27.825c-.797 2.996-2.918 4.501-5.852 5.057-.973.185-1.957.226-2.584.233-4.227-.064-7.918-1.062-11.617-2.029-.506-.133-.312-.424-.244-.697.654-2.63 1.314-5.257 1.971-7.885.557-2.221 1.104-4.442 1.664-6.661.074-.29.053-.639.598-.514 3.451.788 6.92 1.509 10.166 2.985 1.221.555 2.383 1.209 3.418 2.068 2.375 1.97 3.277 4.435 2.48 7.443z" fill="#8d8e72"/></svg>