<svg enable-background="new 0 0 599.925 332.958" height="332.958" viewBox="0 0 599.925 332.958" width="599.925" xmlns="http://www.w3.org/2000/svg" xmlns:xlink="http://www.w3.org/1999/xlink"><linearGradient id="a" gradientUnits="userSpaceOnUse" x1="299.9629" x2="299.9629" y1="332.9575" y2=".000488"><stop offset="0" stop-color="#608727"/><stop offset="1" stop-color="#007000"/></linearGradient><path d="m0 0h599.925v332.958h-599.925z" fill="url(#a)"/><path clip-rule="evenodd" d="m231.963 176.479c0 41.237 31.429 70 72.667 70s74.666-31.43 74.666-72.667-31.429-72-72.666-72-74.667 33.43-74.667 74.667z" fill="#c99d38" fill-rule="evenodd"/><path d="m334.625 179.521c-.986-.751-2.058-1.375-3.296-2.065.377-.106.599-.167.819-.23 1.632-.487 3.192-1.149 4.488-2.266 4.255-3.665 5.411-8.455 4.699-13.764-.476-3.555-2.652-6.169-5.438-8.303-2.919-2.236-6.245-3.688-9.688-4.889-.593-.206-.658-.443-.517-.994.984-3.824 1.922-7.658 2.909-11.481.146-.566.097-.809-.536-.952-2.172-.491-4.334-1.029-6.489-1.592-.546-.143-.76-.097-.905.511-.904 3.748-1.863 7.48-2.784 11.223-.127.512-.259.723-.879.557-1.673-.452-3.372-.813-5.066-1.189-.455-.101-.582-.246-.453-.75.984-3.823 1.921-7.658 2.896-11.483.116-.452.062-.655-.419-.771-2.259-.54-4.51-1.099-6.758-1.673-.479-.123-.639.003-.756.482-.957 3.902-1.959 7.793-2.91 11.697-.139.569-.348.619-.858.49-4.889-1.225-9.785-2.419-14.673-3.646-.48-.12-.649-.043-.766.449-.494 2.091-1.03 4.173-1.556 6.256-.397 1.572-.395 1.547 1.195 1.942 1.817.452 3.686.744 5.41 1.512 1.918.854 2.812 2.678 2.317 4.658-2.868 11.466-5.74 22.93-8.613 34.394-.512 2.042-1.804 2.871-3.879 2.418-1.648-.358-3.286-.778-4.913-1.224-.549-.151-.808-.097-1.047.474-1.085 2.586-2.215 5.153-3.357 7.714-.219.493-.197.688.384.829 4.896 1.205 9.781 2.446 14.675 3.654.505.125.608.28.475.801-1.001 3.892-1.949 7.795-2.946 11.688-.148.576-.125.838.548.987 2.151.479 4.292 1.006 6.418 1.583.658.18.83-.001.976-.603.927-3.814 1.91-7.613 2.829-11.429.156-.647.375-.738.986-.561 1.576.453 3.167.86 4.768 1.222.63.144.745.371.587.985-.991 3.82-1.932 7.653-2.918 11.477-.136.527-.019.711.505.833 2.1.491 4.188 1.026 6.283 1.543.988.244.985.241 1.24-.778.946-3.783 1.903-7.564 2.833-11.354.131-.539.317-.704.901-.582 1.192.25 2.403.427 3.612.584 3.552.461 7.106.672 10.668.066 4.746-.805 8.493-3.117 11.007-7.271 1.441-2.386 2.371-4.977 2.913-7.699 1.085-5.472-.39-10.033-4.921-13.48zm-12.496 14.148c-1.436 1.982-3.564 2.71-5.875 3.068-.978.151-1.962.177-2.951.17-3.446-.039-6.8-.717-10.131-1.525-1.229-.298-2.45-.635-3.683-.922-.448-.104-.535-.282-.423-.727 1.369-5.408 2.716-10.822 4.082-16.233.053-.213-.023-.608.474-.493 4.107.957 8.244 1.817 12.146 3.479 1.84.783 3.577 1.743 5.089 3.077 3.805 3.356 3.027 7.685 1.272 10.106zm3.593-27.826c-.796 2.995-2.917 4.502-5.852 5.057-.972.184-1.956.226-2.583.234-4.226-.065-7.918-1.062-11.618-2.03-.505-.133-.312-.424-.243-.698.653-2.629 1.314-5.256 1.971-7.884.555-2.221 1.103-4.442 1.664-6.661.074-.29.051-.639.597-.514 3.451.788 6.919 1.509 10.166 2.985 1.22.555 2.382 1.209 3.417 2.068 2.376 1.97 3.279 4.435 2.481 7.443z" fill="#c7c9b0"/></svg>