<svg clip-rule="evenodd" fill-rule="evenodd" stroke-linejoin="round" stroke-miterlimit="2" viewBox="0 0 200 200" xmlns="http://www.w3.org/2000/svg"><path d="m0 0h200v200h-200z" fill="none"/><g fill="#21759b" fill-rule="nonzero"><path d="m14.22 100c0 33.944 19.733 63.294 48.34 77.202l-40.917-112.12c-4.758 10.671-7.423 22.477-7.423 34.918z"/><path d="m157.912 95.667c0-10.608-3.808-17.943-7.072-23.66-4.351-7.066-8.428-13.05-8.428-20.115 0-7.879 5.981-15.219 14.406-15.219.379 0 .743.055 1.112.064-15.261-13.979-35.593-22.514-57.927-22.514-29.971 0-56.338 15.369-71.673 38.659 2.01.064 3.908.101 5.522.101 8.979 0 22.859-1.085 22.859-1.085 4.627-.275 5.165 6.524.553 7.065 0 0-4.648.55-9.819.826l31.239 92.903 18.773-56.298-13.364-36.612c-4.62-.269-8.991-.825-8.991-.825-4.623-.269-4.083-7.328.547-7.062 0 0 14.165 1.085 22.594 1.085 8.972 0 22.859-1.085 22.859-1.085 4.633-.275 5.171 6.518.55 7.062 0 0-4.654.556-9.813.825l30.998 92.214 8.56-28.59c3.691-11.876 6.515-20.399 6.515-27.739z"/><path d="m101.507 107.503-25.738 74.79c7.689 2.256 15.812 3.493 24.234 3.493 9.99 0 19.565-1.717 28.482-4.859-.226-.37-.44-.758-.608-1.182z"/><path d="m175.27 58.844c.364 2.735.575 5.666.575 8.817 0 8.71-1.623 18.498-6.522 30.735l-26.202 75.756c25.503-14.874 42.656-42.504 42.656-74.152.006-14.917-3.805-28.944-10.507-41.156z"/><path d="m99.997.003c-55.134 0-99.997 44.863-99.997 99.997 0 55.14 44.863 99.997 99.997 99.997s100.003-44.857 100.003-99.997c-.003-55.14-44.869-99.997-100.003-99.997zm0 195.404c-52.61 0-95.407-42.803-95.407-95.419 0-52.604 42.797-95.407 95.407-95.407 52.604 0 95.41 42.803 95.41 95.407 0 52.616-42.806 95.419-95.41 95.419z"/></g></svg>